<?xml version="1.0" encoding="UTF-8" standalone="no"?>
<svg
   version="1.2"
   viewBox="0 0 816 1056"
   width="8.5in"
   height="11in"
   id="svg111"
   xmlns="http://www.w3.org/2000/svg"
   xmlns:svg="http://www.w3.org/2000/svg"
   xmlns:rdf="http://www.w3.org/1999/02/22-rdf-syntax-ns#"
   xmlns:cc="http://creativecommons.org/ns#"
   xmlns:dc="http://purl.org/dc/elements/1.1/">
  <title
     id="title1">iStock-1888854180-ai</title>
  <defs
     id="defs14">
    <linearGradient
       id="g1"
       x2="1"
       gradientUnits="userSpaceOnUse"
       gradientTransform="matrix(181.682,203.8,-203.8,181.682,2172.905,706.827)">
      <stop
         offset="0"
         stop-color="#fa9090"
         id="stop1" />
      <stop
         offset="1"
         stop-color="#ff595a"
         id="stop2" />
    </linearGradient>
    <linearGradient
       id="g2"
       x2="1"
       gradientUnits="userSpaceOnUse"
       gradientTransform="matrix(205.298,244.778,-244.783,205.302,1192.479,711.777)">
      <stop
         offset="0"
         stop-color="#55c793"
         id="stop3" />
      <stop
         offset="1"
         stop-color="#1eb06f"
         id="stop4" />
    </linearGradient>
    <linearGradient
       id="g3"
       x2="1"
       gradientUnits="userSpaceOnUse"
       gradientTransform="matrix(207.021,216.503,-216.503,207.021,380.465,638.392)">
      <stop
         offset="0"
         stop-color="#349cff"
         id="stop5" />
      <stop
         offset="1"
         stop-color="#2f85fe"
         id="stop6" />
    </linearGradient>
    <linearGradient
       id="g4"
       x2="1"
       gradientUnits="userSpaceOnUse"
       gradientTransform="matrix(-11.283,-59.799,57.082,-10.77,1972.643,1932.391)">
      <stop
         offset="0"
         stop-color="#fdcc6d"
         id="stop7" />
      <stop
         offset="1"
         stop-color="#fba233"
         id="stop8" />
    </linearGradient>
    <linearGradient
       id="g5"
       x2="1"
       gradientUnits="userSpaceOnUse"
       gradientTransform="matrix(0,289.376,-194.977,0,2572.992,1123.002)">
      <stop
         offset="0"
         stop-color="#edf1fd"
         id="stop9" />
      <stop
         offset="1"
         stop-color="#c1cef9"
         id="stop10" />
    </linearGradient>
    <linearGradient
       id="g6"
       x2="1"
       gradientUnits="userSpaceOnUse"
       gradientTransform="matrix(32.367,415.191,-504.333,39.316,2246.67,1245.249)">
      <stop
         offset="0"
         stop-color="#fedf8c"
         id="stop11" />
      <stop
         offset="1"
         stop-color="#fbbc56"
         id="stop12" />
    </linearGradient>
    <linearGradient
       id="g7"
       x2="1"
       gradientUnits="userSpaceOnUse"
       gradientTransform="matrix(0,544.726,-596.278,0,679.368,1136.338)">
      <stop
         offset="0"
         stop-color="#c591ff"
         id="stop13" />
      <stop
         offset="1"
         stop-color="#7255fb"
         id="stop14" />
    </linearGradient>
  </defs>
  <style
     id="style14">
		.s0 { fill: #dceafb } 
		.s1 { fill: #1d3b77 } 
		.s2 { fill: none;stroke: #1a284d;stroke-miterlimit:10;stroke-width: 3;stroke-dasharray: 12 } 
		.s3 { fill: #18217c } 
		.s4 { fill: #ffffff } 
		.s5 { fill: #aa6531 } 
		.s6 { fill: #f5b014 } 
		.s7 { fill: #f9c82b } 
		.s8 { fill: #ffde42 } 
		.s9 { fill: #af4852 } 
		.s10 { fill: url(#g1) } 
		.s11 { fill: #1f664e } 
		.s12 { fill: url(#g2) } 
		.s13 { fill: #355baf } 
		.s14 { fill: url(#g3) } 
		.s15 { fill: #f0f5ff } 
		.s16 { fill: #9ebeff } 
		.s17 { fill: #7b95bf } 
		.s18 { fill: #305ebb } 
		.s19 { fill: #b6d2ff } 
		.s20 { fill: url(#g4) } 
		.s21 { fill: url(#g5) } 
		.s22 { fill: #4f6ca4 } 
		.s23 { fill: #19468e } 
		.s24 { fill: url(#g6) } 
		.s25 { fill: #cc2f30 } 
		.s26 { fill: #ff4747 } 
		.s27 { fill: url(#g7) } 
		.s28 { opacity: .5;fill: #6b3cd3 } 
		.s29 { fill: #ffa6aa } 
		.s30 { fill: #f2949b } 
		.s31 { fill: #ff797d } 
		.s32 { fill: #122a4f } 
		.s33 { fill: #4057bf } 
		.s34 { fill: #6475c5 } 
		.s35 { fill: #7f90de } 
	</style>
  <g
     id="Layer 2"
     transform="matrix(0.32270822,0,0,0.33820154,-59.959187,-111.6065)">
    <g
       id="g111">
      <g
         id="&lt;Group&gt;">
        <path
           id="&lt;Path&gt;"
           class="s0"
           d="m 2714.4,880.3 q -1.9,2.8 -3.9,5.5 v -5.5 z" />
      </g>
      <g
         id="g14">
        <path
           id="path14"
           class="s1"
           d="M 2560.3,1703.5 H 189.7 c -2.2,0 -3.9,-1.7 -3.9,-3.9 0,-2.1 1.7,-3.8 3.9,-3.8 h 2370.6 c 2.2,0 3.9,1.7 3.9,3.8 0,2.2 -1.7,3.9 -3.9,3.9 z" />
      </g>
      <g
         id="g110">
        <g
           id="g16">
          <path
             id="path15"
             class="s2"
             d="m 1517.4,821.8 v 430.7" />
          <path
             id="path16"
             class="s2"
             d="m 1724.9,821.8 v 430.7" />
        </g>
        <g
           id="g21">
          <g
             id="g19">
            <g
               id="g18">
              <g
                 id="g17">
                <path
                   id="path17"
                   class="s3"
                   d="m 1972.3,747.7 c 0.4,6.8 0.2,13.5 -0.5,19.9 -4.2,36.3 -35.4,63.4 -71.9,63.4 h -557.8 c -37.4,0 -69.8,-28.3 -72.1,-65.6 q -0.2,-2.5 -0.2,-5 c 0,-43.2 35,-78.8 79.7,-82.7 q -0.1,-0.4 -0.1,-0.8 c -6.9,-72.6 45.5,-139.1 117.8,-148.2 37.8,-4.7 73,6 100.2,26.9 27,-35.9 71.1,-58 120.2,-54 68.6,5.5 122.8,63.1 124.7,131.9 0.2,7.4 -0.2,14.6 -1.1,21.6 16.9,-8.5 36.3,-12.8 56.8,-11.6 55.6,3.3 101,48.6 104.3,104.2 z" />
              </g>
            </g>
          </g>
          <g
             id="g20">
            <path
               id="path19"
               class="s4"
               d="m 1692.6,614.1 v 61.4 h -59.4 l 17.3,-17.8 c -7.2,-7.9 -17.6,-12.8 -29.1,-12.8 -21,0 -38.3,16.6 -39.3,37.5 h -32.4 c 1.1,-38.8 32.8,-69.8 71.7,-69.8 20.3,0 38.5,8.3 51.6,21.8 z" />
            <path
               id="path20"
               class="s4"
               d="M 1549.7,754.5 V 693 h 59.5 l -17.3,17.9 c 7.2,7.8 17.5,12.7 29,12.7 21.1,0 38.4,-16.6 39.4,-37.4 h 32.3 c -1,38.7 -32.7,69.8 -71.7,69.8 -20.2,0 -38.5,-8.4 -51.5,-21.9 z" />
          </g>
        </g>
        <g
           id="g27">
          <path
             id="path21"
             class="s5"
             d="m 1131.2,539.7 c 0,-15.9 -12.9,-28.9 -28.8,-28.9 H 817 c -10.3,0 -18.7,8.6 -18.7,19 v 9.9 176.2 c 0,18.8 15.3,34 34.1,34 h 280.2 c 10.3,0 18.6,-8.5 18.6,-19 v -15 z" />
          <g
             id="g26">
            <g
               id="g22">
              <path
                 id="path22"
                 class="s6"
                 d="m 1116,702.8 v 14.1 c 0,9.8 -8,17.8 -17.8,17.8 H 816.1 c -9.8,0 -17.8,-8 -17.8,-17.8 v -14.1 l 123.4,-82 35.5,23.8 35.5,-23.9 z" />
            </g>
            <g
               id="g23">
              <path
                 id="path23"
                 class="s7"
                 d="m 921.7,620.8 -123.4,82 v -165 z" />
            </g>
            <g
               id="g24">
              <path
                 id="path24"
                 class="s7"
                 d="m 1116,537.8 v 165 L 992.7,620.7 Z" />
            </g>
            <g
               id="g25">
              <path
                 id="path25"
                 class="s8"
                 d="m 1116,528.6 v 9.2 l -123.3,82.9 -35.5,23.9 -35.5,-23.8 -123.4,-83 v -9.2 c 0,-9.8 8,-17.8 17.8,-17.8 h 282.1 c 9.8,0 17.8,8 17.8,17.8 z" />
            </g>
          </g>
        </g>
        <g
           id="g32">
          <path
             id="path27"
             class="s9"
             d="m 2319.6,899.3 v 181.6 c 0,17.4 -14.1,31.6 -31.5,31.6 h -181.7 c -24.8,0 -44.9,-20.2 -44.9,-45 0,16.4 13.3,29.7 29.7,29.7 h 183.5 c 16.4,0 29.7,-13.3 29.7,-29.7 V 884 c 0,-16.4 -13.3,-29.7 -29.7,-29.7 24.8,0 44.9,20.1 44.9,45 z" />
          <g
             id="g31">
            <g
               id="g30">
              <path
                 id="path28"
                 class="s10"
                 d="m 2304.4,884 v 183.5 c 0,16.4 -13.3,29.7 -29.7,29.7 h -183.5 c -16.4,0 -29.7,-13.3 -29.7,-29.7 V 884 c 0,-16.4 13.3,-29.7 29.7,-29.7 h 183.5 c 16.4,0 29.7,13.3 29.7,29.7 z"
                 style="fill:url(#g1)" />
              <g
                 id="g29">
                <path
                   id="path29"
                   class="s4"
                   d="m 2234.1,907.3 v 0.1 l -72.4,14.7 c -0.6,0.2 -1,0.7 -1,1.2 v 9.6 9.6 72.1 c -5.3,-2.6 -13.4,-2.2 -21,1.8 -10.6,5.5 -16.2,15.6 -12.6,22.6 3.6,6.9 15.1,8.1 25.7,2.6 8.8,-4.6 14.6,-12.4 14.6,-18.9 V 942 c 0,-0.5 0.4,-0.9 0.9,-1 l 64.5,-13.1 c 0.6,-0.1 1.3,0.4 1.3,1 v 67.3 c -5.3,-2.6 -13.4,-2.1 -21,1.9 -10.6,5.5 -16.3,15.6 -12.6,22.5 3.6,7 15.1,8.2 25.7,2.7 8.8,-4.6 14.2,-12.4 13.6,-18.9 h 0.1 v -96.7 c 0,-0.8 -0.7,-1.4 -1.5,-1.2 z" />
              </g>
            </g>
          </g>
        </g>
        <g
           id="g36">
          <g
             id="g33">
            <path
               id="path32"
               class="s11"
               d="m 1359.2,937.3 v 181.6 c 0,17.4 -14.2,31.6 -31.6,31.6 h -181.7 c -24.8,0 -44.9,-20.2 -44.9,-45 0,16.4 13.3,29.7 29.7,29.7 h 183.5 c 16.4,0 29.7,-13.3 29.7,-29.7 V 922 c 0,-16.4 -13.3,-29.7 -29.7,-29.7 24.8,0 45,20.1 45,45 z" />
          </g>
          <g
             id="g35">
            <g
               id="g34">
              <path
                 id="path33"
                 class="s12"
                 d="m 1343.9,922 v 183.5 c 0,16.4 -13.3,29.7 -29.7,29.7 h -183.5 c -16.4,0 -29.7,-13.3 -29.7,-29.7 V 922 c 0,-16.4 13.3,-29.7 29.7,-29.7 h 183.5 c 16.4,0 29.7,13.3 29.7,29.7 z"
                 style="fill:url(#g2)" />
              <path
                 id="&lt;Compound Path&gt;"
                 fill-rule="evenodd"
                 class="s4"
                 d="m 1278.1,1013.8 c 0,30.7 -24.9,55.6 -55.7,55.6 -30.7,0 -55.6,-24.9 -55.6,-55.6 0,-30.7 24.9,-55.7 55.6,-55.7 30.8,0 55.7,25 55.7,55.7 z m -26.3,0 -46.3,-30.4 c 0.1,45.8 0,23.3 0,60.8 z" />
            </g>
          </g>
        </g>
        <g
           id="g42">
          <path
             id="path36"
             class="s13"
             d="m 533.6,824.7 v 163.8 c 0,15.9 -12.8,28.7 -28.7,28.7 H 341.1 c -23.3,0 -42.1,-18.8 -42.1,-42 0,14.8 12,26.8 26.8,26.8 h 165.7 c 14.9,0 26.9,-12 26.9,-26.8 V 809.5 c 0,-14.8 -12,-26.9 -26.9,-26.9 23.3,0 42.1,18.9 42.1,42.1 z" />
          <g
             id="g41">
            <g
               id="g40">
              <path
                 id="path37"
                 class="s14"
                 d="m 518.4,809.5 v 165.7 c 0,14.8 -12,26.8 -26.9,26.8 H 325.8 C 311,1002 299,990 299,975.2 V 809.5 c 0,-14.8 12,-26.9 26.8,-26.9 h 165.7 c 14.9,0 26.9,12.1 26.9,26.9 z"
                 style="fill:url(#g3)" />
              <g
                 id="g39">
                <g
                   id="g38">
                  <path
                     id="path38"
                     fill-rule="evenodd"
                     class="s15"
                     d="m 471.9,885 v 14.7 c 0,2.2 -1.9,4.1 -4.2,4.1 h -9 c -1.3,5.7 -3.5,11 -6.5,15.7 l 6.4,6.4 c 1.6,1.6 1.6,4.3 0,5.9 l -10.4,10.4 c -1.6,1.6 -4.3,1.6 -5.9,0 l -6.4,-6.4 c -4.7,3 -10.1,5.2 -15.7,6.5 v 9 c 0,2.3 -1.9,4.2 -4.2,4.2 h -14.7 c -2.2,0 -4.1,-1.9 -4.1,-4.2 v -9 c -5.7,-1.3 -10.9,-3.5 -15.7,-6.5 l -6.4,6.4 c -1.6,1.6 -4.3,1.6 -5.9,0 l -10.4,-10.4 c -1.6,-1.6 -1.6,-4.3 0,-5.9 l 6.4,-6.4 c -3,-4.7 -5.2,-10 -6.5,-15.7 h -9 c -2.3,0 -4.2,-1.9 -4.2,-4.1 V 885 c 0,-2.3 1.9,-4.2 4.2,-4.2 h 9 c 1.3,-5.6 3.5,-10.9 6.5,-15.7 l -6.4,-6.4 c -1.6,-1.6 -1.6,-4.3 0,-5.9 l 10.4,-10.4 c 1.6,-1.6 4.3,-1.6 5.9,0 l 6.4,6.5 c 4.8,-3 10,-5.3 15.7,-6.6 v -9 c 0,-2.3 1.9,-4.2 4.1,-4.2 H 416 c 2.3,0 4.2,1.9 4.2,4.2 v 9 c 5.6,1.3 11,3.6 15.7,6.6 l 6.4,-6.5 c 1.6,-1.6 4.3,-1.6 5.9,0 l 10.4,10.4 c 1.6,1.6 1.6,4.3 0,5.9 l -6.4,6.4 c 3,4.8 5.2,10.1 6.5,15.7 h 9 c 2.3,0 4.2,1.9 4.2,4.2 z m -35.1,7.3 c 0,-15.5 -12.6,-28 -28.1,-28 -15.5,0 -28,12.5 -28,28 0,15.5 12.5,28.1 28,28.1 15.5,0 28.1,-12.6 28.1,-28.1 z" />
                </g>
              </g>
            </g>
          </g>
        </g>
        <g
           id="g49">
          <g
             id="g48">
            <g
               id="g47">
              <path
                 id="path42"
                 class="s4"
                 d="m 2280.5,384 v 219 c 0,29.8 -24.3,54 -54,54 h -159.6 c -10.5,0 -20.3,-3 -28.5,-8.1 -15.4,-9.6 -25.5,-26.6 -25.5,-45.9 V 384 c 0,-29.8 24.2,-54 54,-54 h 159.6 c 29.7,0 54,24.2 54,54 z" />
              <path
                 id="path43"
                 class="s16"
                 d="m 2226.4,344.3 h -159.5 c -21.9,0 -39.7,17.8 -39.7,39.7 V 567.2 603 c 0,21.9 17.8,39.7 39.7,39.7 h 155.5 4 c 22,0 39.7,-17.8 39.7,-39.7 V 522.7 384 c 0,-21.9 -17.7,-39.7 -39.7,-39.7 z" />
              <g
                 id="g44">
                <path
                   id="path44"
                   class="s17"
                   d="m 2222.4,642.7 h -155.5 c -21.9,0 -39.7,-17.8 -39.7,-39.7 v -35.8 l 40.3,-41.1 c 10.3,-10.5 27.2,-10.6 37.6,-0.2 l 11.6,11.5 z" />
              </g>
              <g
                 id="g45">
                <path
                   id="path45"
                   class="s18"
                   d="M 2266.1,522.7 V 603 c 0,21.9 -17.7,39.7 -39.7,39.7 h -4 l -105.7,-105.3 63.8,-63.3 c 9.3,-9.3 24.3,-9.5 33.8,-0.4 z" />
              </g>
              <g
                 id="g46">
                <path
                   id="path46"
                   class="s4"
                   d="m 2132.2,448.9 c 0,16.4 -13.3,29.6 -29.7,29.6 -16.4,0 -29.7,-13.2 -29.7,-29.6 0,-16.4 13.3,-29.7 29.7,-29.7 16.4,0 29.7,13.3 29.7,29.7 z" />
              </g>
            </g>
          </g>
          <path
             id="path48"
             class="s19"
             d="m 2226.5,330 c 38.2,0 69.2,31 69.2,69.2 v 216.5 c 0,31.3 -24.2,56.6 -54,56.6 h -159.6 c -38.2,0 -69.2,-31 -69.2,-69.3 0,19.3 10.1,36.3 25.5,45.9 8.2,5.1 18,8.1 28.5,8.1 h 159.6 c 29.7,0 54,-24.2 54,-54 V 384 c 0,-29.8 -24.3,-54 -54,-54 z" />
        </g>
        <g
           id="g83">
          <g
             id="g82">
            <g
               id="g79">
              <path
                 id="path49"
                 class="s20"
                 d="m 2400.2,1253.2 v 420.9 c 0,12 -9.7,21.7 -21.7,21.7 h -10.2 c -2.9,0 -5.7,-0.6 -8.2,-1.7 -7.9,-3.2 -13.4,-11 -13.4,-20 v -305.3 c 0,-12.1 -9.8,-21.8 -21.8,-21.8 h -189.5 v -39 q 0,-2.6 -0.6,-5.1 c -1.4,-5.8 -5.1,-10.7 -10.1,-13.6 -3.2,-2 -7,-3.1 -11.1,-3.1 H 1872 v -33 c 0,-13.6 10.3,-24.8 23.5,-26.2 0.9,-0.1 1.8,-0.1 2.8,-0.1 h 475.6 c 10.9,0 20.2,6.6 24.2,16 1.3,3.1 2.1,6.6 2.1,10.3 z"
                 style="fill:url(#g4)" />
              <g
                 id="g63">
                <path
                   id="path50"
                   class="s21"
                   d="m 2360.1,1170.2 v 525.6 H 2006 v -525.6 z"
                   style="fill:url(#g5)" />
                <g
                   id="g62"
                   style="opacity:0.5">
                  <g
                     id="g51">
                    <path
                       id="path51"
                       class="s22"
                       d="m 2301,1238.6 h -238.3 v -18.8 H 2301 Z" />
                  </g>
                  <g
                     id="g52">
                    <path
                       id="path52"
                       class="s22"
                       d="M 2301,1270.8 H 2062.7 V 1252 H 2301 Z" />
                  </g>
                  <g
                     id="g53">
                    <path
                       id="path53"
                       class="s22"
                       d="m 2301,1302.9 h -238.3 v -18.8 H 2301 Z" />
                  </g>
                  <g
                     id="g54">
                    <path
                       id="path54"
                       class="s22"
                       d="m 2301,1335 h -238.3 v -18.8 H 2301 Z" />
                  </g>
                  <g
                     id="g55">
                    <path
                       id="path55"
                       class="s22"
                       d="m 2301,1367.1 h -238.3 v -18.8 H 2301 Z" />
                  </g>
                  <g
                     id="g56">
                    <path
                       id="path56"
                       class="s22"
                       d="m 2301,1399.2 h -238.3 v -18.8 H 2301 Z" />
                  </g>
                  <g
                     id="g57">
                    <path
                       id="path57"
                       class="s22"
                       d="m 2301,1431.4 h -238.3 v -18.8 H 2301 Z" />
                  </g>
                  <g
                     id="g58">
                    <path
                       id="path58"
                       class="s22"
                       d="m 2301,1463.5 h -238.3 v -18.8 H 2301 Z" />
                  </g>
                  <g
                     id="g59">
                    <path
                       id="path59"
                       class="s22"
                       d="m 2301,1495.6 h -238.3 v -18.8 H 2301 Z" />
                  </g>
                  <g
                     id="g60">
                    <path
                       id="path60"
                       class="s22"
                       d="m 2301,1527.7 h -238.3 v -18.8 H 2301 Z" />
                  </g>
                  <g
                     id="g61">
                    <path
                       id="path61"
                       class="s22"
                       d="M 2301,1559.8 H 2062.7 V 1541 H 2301 Z" />
                  </g>
                </g>
              </g>
              <g
                 id="g64"
                 style="opacity:0.1">
                <path
                   id="path63"
                   class="s23"
                   d="m 1910.4,1170.2 v 462.4 h 354 v -462.4 z" />
              </g>
              <g
                 id="g78">
                <path
                   id="path64"
                   class="s4"
                   d="m 2249.6,1573.6 h -354.1 v -462.4 h 354.1 z" />
                <g
                   id="g77"
                   style="opacity:0.5">
                  <g
                     id="g76">
                    <g
                       id="g65">
                      <path
                         id="path65"
                         class="s22"
                         d="m 2190.5,1179.6 h -238.2 v -18.8 h 238.2 z" />
                    </g>
                    <g
                       id="g66">
                      <path
                         id="path66"
                         class="s22"
                         d="M 2190.5,1211.7 H 1952.3 V 1193 h 238.2 z" />
                    </g>
                    <g
                       id="g67">
                      <path
                         id="path67"
                         class="s22"
                         d="m 2190.5,1243.9 h -238.2 v -18.8 h 238.2 z" />
                    </g>
                    <g
                       id="g68">
                      <path
                         id="path68"
                         class="s22"
                         d="m 2190.5,1276 h -238.2 v -18.8 h 238.2 z" />
                    </g>
                    <g
                       id="g69">
                      <path
                         id="path69"
                         class="s22"
                         d="m 2190.5,1308.1 h -238.2 v -18.8 h 238.2 z" />
                    </g>
                    <g
                       id="g70">
                      <path
                         id="path70"
                         class="s22"
                         d="m 2190.5,1340.2 h -238.2 v -18.8 h 238.2 z" />
                    </g>
                    <g
                       id="g71">
                      <path
                         id="path71"
                         class="s22"
                         d="m 2190.5,1372.3 h -238.2 v -18.7 h 238.2 z" />
                    </g>
                    <g
                       id="g72">
                      <path
                         id="path72"
                         class="s22"
                         d="m 2190.5,1404.5 h -238.2 v -18.8 h 238.2 z" />
                    </g>
                    <g
                       id="g73">
                      <path
                         id="path73"
                         class="s22"
                         d="m 2190.5,1436.6 h -238.2 v -18.8 h 238.2 z" />
                    </g>
                    <g
                       id="g74">
                      <path
                         id="path74"
                         class="s22"
                         d="m 2190.5,1468.7 h -238.2 v -18.8 h 238.2 z" />
                    </g>
                    <g
                       id="g75">
                      <path
                         id="path75"
                         class="s22"
                         d="M 2190.5,1500.8 H 1952.3 V 1482 h 238.2 z" />
                    </g>
                  </g>
                </g>
              </g>
              <path
                 id="path78"
                 class="s24"
                 d="m 2368.3,1695.8 h -523.1 c -12,0 -21.7,-9.7 -21.7,-21.7 V 1308 c 0,-12 9.8,-21.8 21.8,-21.8 h 268.3 c 4.1,0 7.9,1.1 11.1,3.1 5,2.9 8.7,7.8 10.1,13.6 q 0.6,2.5 0.6,5.1 v 39 h 189.5 c 12,0 21.8,9.7 21.8,21.8 v 305.3 c 0,9 5.5,16.8 13.4,20 2.5,1.1 5.3,1.7 8.2,1.7 z"
                 style="fill:url(#g6)" />
            </g>
            <g
               id="g81"
               style="opacity:0.7">
              <g
                 id="g80">
                <path
                   id="path79"
                   class="s4"
                   d="m 2160.1,1483.5 h -24.8 v -69.3 h -46.9 v 69.3 h -24.8 c -2.8,0 -4.2,3.3 -2.3,5.4 l 48.2,52.7 c 1.3,1.4 3.4,1.4 4.7,0 l 48.3,-52.7 c 1.8,-2.1 0.4,-5.4 -2.4,-5.4 z" />
                <path
                   id="path80"
                   class="s4"
                   d="m 2163.3,1567.8 h -102.9 v -13.7 h 102.9 z" />
              </g>
            </g>
          </g>
        </g>
        <g
           id="g96">
          <g
             id="g86">
            <g
               id="g84">
              <path
                 id="path83"
                 class="s25"
                 d="m 326.8,1608.9 17.5,86.6 h 450.6 l -22.8,-79.2 -5.6,-19 c -1.5,-5.3 -3.3,-10.5 -5.4,-15.5 -3.6,-8.9 -8.1,-17.4 -13.4,-25.3 q -6.5,-9.9 -14.5,-18.5 c -0.6,-0.7 -1.2,-1.3 -1.8,-1.9 q -8.3,-8.8 -17.9,-16 c -24.3,-18.5 -54.4,-29.6 -86.5,-30.3 l -3.5,-0.1 -143.6,-3.2 -41.3,-1 c -34.2,-0.8 -64.6,13 -85.3,34.8 -21.8,23.1 -32.9,55.1 -26.5,88.6 z" />
            </g>
            <g
               id="g85">
              <path
                 id="path84"
                 class="s26"
                 d="m 385.9,1608.9 17.5,86.6 H 854 l -14.9,-51.8 -7.8,-26.7 v -0.1 l -5.7,-19.6 c -9.8,-34.1 -31.1,-62.5 -59,-81.6 -7.4,-5.1 -15.3,-9.5 -23.6,-13.1 q -12.1,-5.5 -25.3,-8.6 c -10.2,-2.6 -20.8,-4 -31.6,-4.2 l -62.3,-1.4 -126.1,-2.9 c -6.1,-0.1 -12,0.2 -17.8,1 -38.7,4.9 -70.6,28.6 -85.9,60.5 -9,18.6 -12.3,39.9 -8.1,61.9 z" />
            </g>
          </g>
          <g
             id="g95">
            <path
               id="path86"
               class="s27"
               d="m 1081.2,1695.5 q 0.2,0.1 0.3,0.3 v -0.3 c 1,-33.2 1.6,-66.5 2.1,-100.2 q 0,-2.6 0.1,-5.3 c 0.1,-1.8 0.1,-3.5 0.1,-5.3 0.4,-34.6 0.8,-68.8 0.8,-102.9 0.8,-0.3 1.6,-0.7 2.5,-1.1 0.7,-0.4 1.5,-0.7 2.3,-1.1 0.9,-0.5 1.8,-0.8 2.7,-1.3 0.8,-0.4 1.5,-0.7 2.2,-1.1 q 2.2,-1.1 4.4,-2.2 c 0.1,-0.1 0.4,-0.3 0.5,-0.3 0.3,-0.1 0.4,-0.2 0.6,-0.3 0.2,-0.2 0.4,-0.2 0.6,-0.3 1.1,-0.6 2.3,-1.3 3.4,-1.9 0.2,-0.1 0.3,-0.2 0.4,-0.3 1.7,-1 3.4,-1.9 5.1,-3 q 1.9,-1.1 3.8,-2.3 c 0.9,-0.5 1.7,-1 2.5,-1.6 6.6,-4.3 13.2,-9.1 19.7,-14.6 1.2,-1 2.3,-1.9 3.4,-2.9 2.8,-2.3 5.5,-4.9 8.3,-7.6 1.1,-1 2.2,-2.1 3.2,-3.1 1,-1 2,-2.1 3,-3.1 v -0.1 q 3,-3.1 5.6,-6.2 c 6.6,-7.5 12.2,-14.9 16.8,-22.1 -5.8,-27.5 -19.2,-72.2 -53.6,-115.7 -5.9,-7.5 -16.3,-20.5 -32.3,-34 -17.2,-14.6 -35.6,-25.1 -53.9,-32.9 -8.1,11.9 -17.4,22.2 -27.7,30.7 -1.5,1.2 -2.9,2.4 -4.4,3.4 -0.8,0.7 -1.6,1.3 -2.5,1.8 -1.5,1.2 -3,2.2 -4.6,3.2 v 0.1 c -1.6,1 -3.3,2 -4.9,2.9 -4.4,2.6 -8.9,4.8 -13.5,6.7 -1.6,0.7 -3.2,1.3 -4.8,1.9 q -0.7,0.2 -1.5,0.5 c -1.7,0.5 -3.3,1 -5,1.5 -2.6,0.8 -5.2,1.4 -7.9,1.8 -0.6,0.2 -1.3,0.3 -1.9,0.4 -4.9,0.8 -9.9,1.2 -14.9,1.2 -7.5,0 -34.9,-0.5 -59.3,-20.9 -2,-1.7 -3.8,-3.4 -5.5,-5.1 -0.9,-0.9 -1.8,-1.8 -2.6,-2.7 -2.4,-2.6 -4.6,-5.4 -6.6,-8.1 -1.2,-1.8 -2.4,-3.7 -3.6,-5.6 -0.9,-1.5 -1.9,-3.2 -2.7,-4.7 q -2.6,-4.9 -4.4,-9.5 -1.8,-4.7 -3.1,-8.9 c -1.3,-4.3 -2.2,-8.3 -2.8,-11.7 -18.9,2.2 -39.1,6.8 -60.9,15.5 -69.3,27.6 -106.3,78.3 -118,94.6 -10.4,14.6 -18.3,28.7 -24.4,41.6 -1.6,3.2 -3,6.3 -4.3,9.4 -0.7,1.5 -1.4,3.1 -1.9,4.5 -1.3,3 -2.4,5.8 -3.4,8.5 -1.6,4.2 -2.9,8 -4.1,11.5 5,4.2 10.4,8.6 16.5,13 9,6.6 19.1,13.2 30.3,19.5 q 5.7,3.1 11.7,6.1 c 2.5,1.3 5,2.5 7.5,3.6 q 0.5,0.2 1.1,0.5 v 0.1 c 0.4,0.1 0.8,0.3 1.1,0.4 q 0.3,0.2 0.7,0.3 c 2,0.9 4,1.8 6,2.6 q 0.4,0.2 0.9,0.4 1,0.4 2,0.8 c 0.3,0.1 0.5,0.2 0.8,0.3 q 6,2.4 11.8,4.4 c 1.1,0.4 2.1,0.8 3.2,1.1 1,0.4 2,0.8 3.1,1.1 1.3,0.4 2.5,0.8 3.7,1.1 0.4,0.1 0.7,0.3 1.1,0.4 1.7,0.5 3.4,1 5,1.4 q 2.1,0.6 4.2,1.1 c 0.2,0.2 0.3,0.2 0.4,0.2 q 3,0.8 6,1.5 c 0.2,0.1 0.4,0.1 0.6,0.1 2.5,0.7 4.9,1.2 7.3,1.7 q -2.3,7.4 -4.6,14.8 c -1.5,5 -3.1,9.9 -4.6,14.9 -2.2,7.2 -4.4,14.5 -6.7,21.7 -0.2,0.8 -0.4,1.5 -0.7,2.3 q -3,9.7 -5.9,19.4 l -0.5,1.3 -0.2,0.5 -0.7,1.5 -0.2,0.5 -0.1,0.5 -0.1,0.1 c 0,0.1 0,0.2 -0.1,0.3 l -3.8,9.4 -13.1,32.9 -14.6,36.4 -27.3,68 -0.2,0.5 -8.6,21.6 z"
               style="fill:url(#g7)" />
            <path
               id="path87"
               class="s28"
               d="m 767.9,1512.7 c 15.4,-34.7 25.7,-61.1 29.2,-96.8 3,-29.9 0,-55 -3,-71.7 -4.9,13.6 -9.9,27.2 -14.7,40.8 -6.7,21.2 -13.2,42.6 -19.8,63.9 q -2.3,7.4 -4.6,14.8 c -1.5,5 -3,9.9 -4.5,14.9 q -3.4,10.8 -6.8,21.7 c -0.2,0.8 -0.4,1.5 -0.7,2.3 q -3,9.7 -5.9,19.4 l -0.5,1.3 -0.2,0.5 -0.9,2 -0.1,0.5 -0.1,0.1 c 0,0.1 0,0.2 -0.1,0.3 l -3.8,9.4 -13.1,32.9 -14.7,36.4 -27.2,68 -0.2,0.5 -8.6,21.6 h 17.8 c 1.1,-5.2 2.4,-10.2 3.8,-15 8,-27.3 21.4,-50.3 41.8,-90.3 3.9,-7.7 8,-15.8 12.4,-24.8 1.4,-2.9 2.8,-5.8 4.3,-8.9 5.8,-12.2 12.1,-25.6 18.9,-40.8 q 0.7,-1.5 1.3,-3 z" />
            <path
               id="path88"
               class="s29"
               d="m 1640.2,1406.5 c 0.1,5.6 -0.7,13.1 -5.6,18.2 -7,7 -16.5,3.9 -40.4,4.5 -29.4,0.8 -40.2,6.1 -45.4,9.2 -7.8,4.5 -16.1,11.9 -14.8,15.3 2.8,6.2 37.1,-7.1 42.6,2.2 2.5,4.3 -2.1,11.3 -4.5,14.8 -6.4,9.6 -15.6,14 -25.5,18.1 -28.1,11.7 -32.1,8.9 -44.3,15.9 -12.7,7.4 -14.2,13.9 -28.4,29.5 -13.6,15 -25.2,23.1 -47.1,38.6 -36.9,26.1 -70.6,39.3 -128.2,61.3 -62.5,23.8 -78.1,24.7 -89.1,24.4 -33.9,-0.9 -59,-13.4 -70.4,-19.3 -24,-12.3 -42.2,-28.5 -55.5,-43.9 0.1,-3.5 0.2,-7 0.2,-10.6 0.5,-34.6 0.8,-68.9 0.8,-102.9 19.9,-8.8 41.9,-22 62.4,-41.9 4.3,-4.2 8.3,-8.3 11.8,-12.5 6.9,19.2 17.2,41.7 33.1,64.8 9.6,14.1 19.6,26 28.9,35.8 11.6,4.1 28.9,8.8 50,9.1 20.7,0.3 35,-3.9 72,-16.5 67.7,-23 101.9,-34.7 116.4,-46.5 10.2,-8.3 19.9,-18.3 45.4,-38.6 24.4,-19.4 31.7,-23.2 36.8,-25.6 25.4,-11.5 48.5,-11 57.9,-10.7 17.5,0.5 31.7,4.2 40.9,7.3 z" />
            <path
               id="path89"
               class="s30"
               d="m 1571.6,1471.5 c -6.4,9 -15.3,13.4 -25,17.3 -28,11.7 -32.2,8.9 -44.3,15.9 -12.7,7.4 -14.2,14 -28.4,29.5 -13.6,15 -25.2,23.1 -47.1,38.6 -36.9,26.1 -70.7,39.3 -128.2,61.3 -62.5,23.8 -78.2,24.7 -89.1,24.4 -33.8,-0.9 -59,-13.4 -70.4,-19.2 -24.1,-12.4 -42.2,-28.6 -55.5,-44 0.1,-3.5 0.2,-7 0.2,-10.6 0.5,-34.6 0.8,-68.9 0.8,-102.9 20,-8.8 42,-22 62.4,-41.9 4.3,-4.1 8.3,-8.3 11.8,-12.6 3.5,9.8 7.9,20.3 13.4,31.4 -9.9,9.8 -21.6,20 -35.4,29.6 -14.4,10.1 -28.3,17.7 -40.7,23.5 -1.7,10 -3.5,28.7 4.1,49.2 15.4,42.2 58.9,63.5 101.7,65.4 27.4,1.1 54,-5 80.9,-8.9 21.9,-3.3 43.9,-8.3 65.1,-15.1 25.7,-8.2 50.6,-19.7 72.4,-35.8 23.3,-17.3 42.6,-39.5 66,-56.9 25.5,-18.8 54.5,-31.9 85.3,-38.2 z" />
            <path
               id="path90"
               class="s31"
               d="m 984.9,1198 c -19.7,-3.5 -41.5,-12.1 -55.4,-32 -4.5,-6.3 -9.9,-16.4 -12.3,-30.8 22,18.1 46.5,27.8 66.7,27 0.3,11.9 0.7,23.9 1,35.8 z" />
            <path
               id="path91"
               class="s32"
               d="m 1057.4,1010.2 c 1,11.6 2.6,33.1 -8.2,56.9 -3.2,7.2 -7,13.4 -10.9,18.5 0.4,-10.9 -0.7,-21.8 -1.9,-33.6 -1.7,-17.6 -5.7,-42.2 -15.6,-71.1 -25.5,9.4 -54.9,6.3 -81.2,10 -26.3,3.6 -43.9,6.3 -56.7,20.7 -3.1,3.4 -15.6,17.5 -11.7,34.4 2.5,10.7 10.4,17.2 13.7,19.8 -9.7,-3.8 -19.8,-1.8 -24.8,4.6 -7.8,9.7 1.3,24.2 2.6,26.3 8.3,13.4 24.2,15.3 26.7,15.6 -5.8,29.2 -11.6,58.4 -17.5,87.6 -6.6,0.3 -13.3,0.8 -20.2,1.7 -18.9,2.2 -39.2,6.8 -61,15.5 -69.3,27.6 -106.3,78.3 -118,94.6 -20.7,29.1 -31.9,56.6 -38.1,75.5 5,4.2 10.4,8.6 16.5,13 12,8.8 25.9,17.6 42,25.6 23.1,11.5 45.7,18.7 66.5,23.1 -3,9.8 -6.1,19.8 -9.2,29.7 -4.4,14.4 -8.9,28.9 -13.3,43.5 l -1.8,4.2 -31.6,79.1 c -27.1,4 -55.2,5.5 -83.6,4.4 -187.5,-6.6 -389.4,-120.4 -391.8,-325.1 -1,-76.7 27.5,-163.8 96.6,-205 50.3,-30 111,-29.2 167,-39.5 53.8,-9.7 109.5,-31.1 153.5,-63.8 44.4,-32.8 78.7,-79.8 128.6,-105.3 53,-26.8 97.8,11.3 151.5,4.5 31.2,-4 62.2,-21.5 92.2,-12.4 42.3,12.7 56.6,71.8 27.4,102.5 5.4,11.2 10.6,26.3 12.3,44.5 z" />
            <path
               id="path92"
               class="s29"
               d="m 983.9,1162.2 c -20.2,0.8 -44.7,-8.9 -66.7,-27 2.4,14.4 7.8,24.5 12.3,30.8 13.9,19.9 35.7,28.5 55.4,32 0,3.2 0.1,6.3 0.2,9.5 16.2,3.2 33.4,8 50.7,15.2 -23.5,34.6 -58,56.2 -93.6,56.1 -7.5,0 -34.9,-0.5 -59.3,-20.9 -7.9,-6.7 -13.8,-14.1 -18.3,-21.5 -7.8,-12.7 -11.3,-25.7 -12.9,-34.8 6.9,-0.9 13.6,-1.4 20.2,-1.7 5.9,-29.2 11.7,-58.4 17.5,-87.6 -2.5,-0.3 -18.4,-2.2 -26.7,-15.6 -1.3,-2.1 -10.4,-16.6 -2.6,-26.3 5,-6.4 15.1,-8.4 24.8,-4.6 -3.3,-2.6 -11.2,-9.1 -13.7,-19.8 -3.9,-16.9 8.6,-31 11.7,-34.4 12.8,-14.4 30.4,-17.1 56.7,-20.7 26.3,-3.7 55.7,-0.6 81.2,-10 9.9,28.9 13.9,53.5 15.6,71.1 1.2,11.8 2.3,22.7 1.9,33.6 0,0.1 0,0.1 0,0.1 -0.4,10.9 -2.2,21.6 -6.5,33.3 -4.4,11.6 -10.5,27.7 -24.4,36.6 -6.7,4.3 -14.7,6.4 -23.5,6.6 z" />
            <path
               id="path93"
               class="s29"
               d="m 620.3,1609.8 c 1.7,4.6 3.7,9.1 6,13.5 11.6,21.6 29.5,37.7 50.1,50.1 4.1,2.6 8.4,4.9 12.8,7.1 11.4,5.8 23.3,10.7 35.3,15 h 247.9 c 1.9,-0.2 3.8,-0.2 5.8,0 h 103 c -13.1,-11.6 -25,-18.5 -32.6,-22.9 -0.3,-0.2 -0.7,-0.3 -1.1,-0.6 -0.6,-0.3 -1.1,-0.6 -1.8,-1 -1.7,-0.9 -3.7,-2 -5.9,-3.1 -1.1,-0.6 -2.3,-1.2 -3.6,-1.8 -3.7,-1.8 -8,-3.8 -12.7,-5.8 -2.1,-0.9 -4.3,-1.7 -6.5,-2.6 q -5.1,-2 -10.6,-3.8 c -34.2,-10.8 -50,-5.1 -84.6,-8.7 -5.4,-0.6 -11.2,-1.6 -17.8,-3.3 q -5,-1.2 -10.5,-2.9 c -1.9,-0.6 -3.8,-1.1 -5.8,-1.8 q -2.7,-0.9 -5.6,-1.8 c -13.6,-4.6 -30.1,-10.6 -50.8,-18.5 q -7.7,-2.9 -16.2,-6.1 c 0,0 -1.7,-0.6 -4.6,-1.8 -4.3,-1.8 -11.3,-4.9 -19.4,-9 -9.4,-4.8 -20.3,-11 -30,-18.2 -6.1,-4.5 -11.8,-9.4 -16.3,-14.6 -0.5,-0.6 -1,-1.2 -1.4,-1.8 -2.3,-2.6 -4,-5.2 -5.4,-7.6 -1.7,-3 -2.8,-5.8 -3.5,-8.4 -0.5,-1.8 -0.9,-3.5 -1.1,-5.2 -0.3,-2.2 -0.3,-4.3 -0.2,-6.2 0,-3.7 0.7,-7 1.6,-9.8 0.1,-0.5 0.2,-1 0.4,-1.5 0.1,-0.1 0.1,-0.2 0.1,-0.3 l 0.1,-0.1 0.1,-0.5 0.2,-0.5 0.7,-1.5 0.2,-0.5 0.5,-1.3 q 2.9,-9.7 5.9,-19.4 c 0.3,-0.8 0.5,-1.5 0.7,-2.3 2.3,-7.2 4.5,-14.5 6.7,-21.7 1.5,-5 3.1,-9.9 4.6,-14.9 q 2.3,-7.4 4.6,-14.8 c -2.4,-0.5 -4.8,-1 -7.3,-1.7 q -0.2,0 -0.6,-0.1 -3,-0.7 -6,-1.5 c -0.1,0 -0.2,0 -0.4,-0.2 q -2.1,-0.4 -4.2,-1.1 c -1.6,-0.4 -3.3,-0.9 -5,-1.4 -0.4,-0.1 -0.7,-0.3 -1.1,-0.4 -2.3,-0.7 -4.6,-1.4 -6.8,-2.2 -1.1,-0.3 -2.1,-0.7 -3.2,-1.1 q -5.8,-2 -11.8,-4.4 c -0.3,-0.1 -0.5,-0.2 -0.8,-0.3 q -1,-0.4 -2,-0.8 -0.5,-0.2 -0.9,-0.4 c -0.6,-0.3 -1.2,-0.5 -1.8,-0.8 q -2.1,-0.8 -4.2,-1.8 -0.4,-0.1 -0.7,-0.3 c -0.3,-0.1 -0.7,-0.3 -1.1,-0.4 -0.4,-0.2 -0.7,-0.4 -1.1,-0.6 -2.5,-1.1 -5,-2.3 -7.5,-3.6 q -6,-3 -11.7,-6.1 c -11.2,-6.3 -21.3,-12.9 -30.3,-19.5 q -1.7,4.7 -3.3,9.3 -1.6,4.6 -3.1,9 c -0.8,2.1 -1.5,4.2 -2.2,6.3 -5,15.1 -9.1,28.7 -12.4,40.5 -2.1,7.5 -4.3,15.2 -6.3,23.1 q -0.2,0.7 -0.3,1.3 c -10.1,39.4 -17.2,82.4 -3.2,120.1 z" />
            <path
               id="path94"
               class="s30"
               d="m 1047.5,1672 c -34.7,-9.8 -69.4,-12 -106.9,-10.5 -29.6,1.2 -55.6,-2.3 -83.7,-11.5 -26.5,-8.8 -52.2,-19.7 -77.8,-30.7 -20.1,-8.5 -39.6,-16.2 -52.6,-34.8 -12.3,-17.5 -14.5,-37.4 -13.4,-58.2 1.2,-23.7 6.9,-42.7 11.8,-55.4 -13.2,-3 -33,-9.2 -54.1,-22.9 -11.5,-7.5 -20.9,-15.6 -28.3,-23.2 2.6,-7.8 5.5,-16 8.6,-24.6 12,8.8 25.9,17.6 42,25.6 23.1,11.5 45.7,18.7 66.5,23.1 -3,9.8 -6.1,19.8 -9.1,29.7 -4.5,14.4 -9,28.9 -13.4,43.4 l -1.4,3.3 -0.3,1 c -1.6,4.5 -2.9,10.8 -2,17.8 0.9,6.7 3.7,14.3 11.4,23.1 22.5,25.6 70.3,43.6 70.3,43.6 56.7,21.4 85,32.2 106.7,34.4 34.6,3.6 50.4,-2.1 84.5,8.7 18.6,6 33.9,14.1 41.2,18.1 z" />
            <path
               id="path95"
               class="s28"
               d="m 1109.3,1469 c -1.7,1 -3.4,1.9 -5.1,2.9 -6.7,3.8 -13.3,7.1 -19.6,9.9 0.1,-18.9 0.1,-37.6 0,-56.2 -0.3,-16.6 -2.4,-37.8 -9.1,-61.4 -4,-14.4 -9.1,-27 -14.1,-37.5 5.7,6.1 13.6,15.9 20.9,29.1 18.8,34.2 18.1,63.6 21.9,89.1 1,7.2 2.7,15.3 5.1,24.1 z" />
          </g>
        </g>
        <g
           id="g109">
          <g
             id="g97">
            <path
               id="path96"
               class="s33"
               d="m 1392.9,1166.6 c -15.9,0 -32,12.6 -35.7,28.1 l -56.3,384.6 c -3.6,15.5 6.3,28.1 22.2,28.1 h -32.5 c -15.8,0 -25.8,-12.6 -22.1,-28.1 l 56.3,-384.6 c 3.7,-15.5 19.7,-28.1 35.6,-28.1 z" />
          </g>
          <g
             id="g100">
            <g
               id="g98">
              <path
                 id="path97"
                 class="s34"
                 d="m 1176.9,1661.8 h 236.2 l -5,16.4 c -3,9.6 -15.7,17.6 -28.3,17.6 h -190.3 c -12.6,0 -20.6,-8 -17.6,-17.6 z" />
            </g>
            <g
               id="g99">
              <path
                 id="path98"
                 class="s33"
                 d="m 1106.6,1661.8 h 116.5 l -4.9,16.4 c -3,9.6 -15.7,17.6 -28.4,17.6 h -70.6 c -12.6,0 -20.6,-8 -17.6,-17.6 z" />
            </g>
          </g>
          <g
             id="g101">
            <path
               id="path100"
               class="s35"
               d="m 1958.5,1194.7 -56.3,384.6 c -3.7,15.5 -19.7,28.1 -35.6,28.1 h -543.5 c -15.9,0 -25.8,-12.6 -22.2,-28.1 l 56.3,-384.6 c 3.7,-15.5 19.8,-28.1 35.7,-28.1 h 543.4 c 15.9,0 25.9,12.6 22.2,28.1 z" />
          </g>
          <g
             id="g102">
            <path
               id="path101"
               class="s34"
               d="m 1675.2,1381.5 c -4,25.3 -27.7,45.9 -53.1,45.9 -13.4,0 -24.6,-5.8 -31.6,-15.1 q 3.1,0.5 6.4,0.5 c 25.3,0 49.1,-20.5 53.1,-45.9 1.8,-11.8 -1,-22.7 -7.1,-30.8 21.8,3.1 35.9,22.2 32.3,45.4 z" />
          </g>
          <g
             id="g108">
            <g
               id="g103">
              <path
                 id="path102"
                 class="s33"
                 d="m 1548.3,1523.8 c -3.8,-25.5 13.9,-32.8 13.9,-32.8 h 99.5 l 49.7,192.7 -138.9,-21.9 c 0,0 -20.3,-112.6 -24.2,-138 z" />
            </g>
            <g
               id="g104">
              <path
                 id="path103"
                 class="s34"
                 d="m 1562.2,1491 h 117.3 l 36.8,170.8 h -120.9 z" />
            </g>
            <g
               id="g107">
              <g
                 id="g105">
                <path
                   id="path104"
                   class="s34"
                   d="m 1587.4,1695.8 c 0,0 103.7,0 129.1,0 25.5,0 17.7,-12.1 17.7,-12.1 -1.8,-12.1 -9.9,-21.9 -17.9,-21.9 h -120.9 c -8,0 -13.1,9.8 -11.2,21.9 z" />
              </g>
              <g
                 id="g106">
                <path
                   id="path105"
                   class="s33"
                   d="m 1515.2,1695.8 h 101.5 l -3.1,-12.1 c -1.9,-12.1 -10,-21.9 -18,-21.9 h -72.4 c -8,0 -13,9.8 -11.2,21.9 z" />
              </g>
            </g>
          </g>
        </g>
      </g>
    </g>
  </g>
  <metadata
     id="metadata111">
    <rdf:RDF>
      <cc:Work
         rdf:about="">
        <dc:title>iStock-1888854180-ai</dc:title>
      </cc:Work>
    </rdf:RDF>
  </metadata>
</svg>
