<svg version="1.2" xmlns="http://www.w3.org/2000/svg" viewBox="0 0 3450 2200" width="3450" height="2200">
	<title>iStock-1386217696-ai</title>
	<defs>
		<linearGradient id="g1" x2="1" gradientUnits="userSpaceOnUse" gradientTransform="matrix(0,861.115,-1541.585,0,1475.598,1164.644)">
			<stop offset="0" stop-color="#ffffff"/>
			<stop offset="1" stop-color="#8c92e5"/>
		</linearGradient>
	</defs>
	<style>
		.s0 { opacity: .2;fill: url(#g1) } 
		.s1 { fill: #ffffff } 
		.s2 { fill: #483193 } 
		.s3 { fill: #d9cdff } 
		.s4 { fill: #2a1968 } 
		.s5 { fill: #ea5942 } 
		.s6 { fill: #9b476f } 
		.s7 { fill: #ff6160 } 
		.s8 { fill: #ae253d } 
		.s9 { fill: #f8f9fb } 
		.s10 { fill: #e4e4e4 } 
		.s11 { fill: #9a466e } 
		.s12 { fill: #4c3a97 } 
		.s13 { fill: #ecdb7f } 
		.s14 { fill: #5a50ee } 
		.s15 { fill: #7768ff } 
		.s16 { fill: #cecef4 } 
		.s17 { fill: #383193 } 
		.s18 { fill: #e7b4ff } 
		.s19 { fill: #483492 } 
	</style>
	<g id="_Artboards_">
	</g>
	<g id="Layer 1">
		<g id="&lt;Group&gt;">
		</g>
		<path id="&lt;Path&gt;" class="s0" d="m1006.6 1927.4c64.8-56.5 85.3-148.6 50.4-227.2h0.1c-47.6-107-6.1-234.4 98.4-291.8 96.3-53.1 214.3-29 283 51.6 108.1 124.1 310.9 81.3 359.3-76.4l0.1 0.2c24.2-79.1 78-149.2 156.2-192.2 159.6-87.9 360.2-29.7 448 129.9 61.8 112.3 51.3 244.8-15.9 344.1h0.1c-54.1 79.8-42.1 187.1 28.3 253.1 24.9 23.2 46.6 50.6 63.9 82.1q1.9 3.5 3.8 7h-1534.6c13.3-30.3 33.1-57.9 58.9-80.4z"/>
		<g id="&lt;Group&gt;">
			<path id="&lt;Path&gt;" class="s1" d="m1824.8 513.1c0-40.1-32.4-72.5-72.5-72.5-4.7 0-9.3 0.4-13.8 1.3-4.4-16.8-19.7-29.2-38-29.2-9.2 0-17.7 3.2-24.4 8.5-18.8-25-48.7-41.1-82.4-41.1-43.7 0-81 27.2-96 65.6-7.1-1.6-14.6-2.4-22.2-2.4-33.4 0-62.9 15.8-81.7 40.4-7.9-4.4-16.9-6.9-26.4-6.9-30.1 0-54.5 24.4-54.5 54.5 0 30 24.4 54.4 54.5 54.4q0.1 0 0.2 0h384.5q0.1 0 0.2 0c40.1 0 72.5-32.5 72.5-72.6z"/>
		</g>
		<g id="&lt;Group&gt;">
			<g id="&lt;Group&gt;">
				<g id="&lt;Group&gt;">
					<path id="&lt;Path&gt;" class="s2" d="m1769.4 449.3c4.8 5.3 6.2 11.9 2.9 14.9-3.2 2.9-9.7 1-14.5-4.3-4.8-5.3-6.1-12-2.9-14.9 3.2-2.9 9.7-1 14.5 4.3z"/>
				</g>
				<g id="&lt;Group&gt;">
					<path id="&lt;Path&gt;" class="s2" d="m1786 425.9c3.5 6.5 3.1 13.4-0.7 15.4-3.8 2.1-9.7-1.6-13.2-8-3.4-6.5-3.1-13.5 0.8-15.5 3.8-2 9.7 1.6 13.1 8.1z"/>
				</g>
				<g id="&lt;Group&gt;">
					<path id="&lt;Path&gt;" class="s2" d="m1791.5 419.7c-3 4.4-7.6 6.5-10.2 4.7-2.7-1.8-2.3-6.9 0.8-11.3 3.1-4.4 7.7-6.5 10.3-4.7 2.6 1.8 2.2 6.9-0.9 11.3z"/>
				</g>
				<g id="&lt;Group&gt;">
					<path id="&lt;Path&gt;" class="s2" d="m1800.3 448.4c-5.3 8.1-13.3 12.3-18 9.3-4.6-3.1-4.1-12.1 1.2-20.3 5.3-8.1 13.4-12.2 18-9.2 4.7 3 4.2 12.1-1.2 20.2z"/>
				</g>
				<g id="&lt;Group&gt;">
					<path id="&lt;Path&gt;" class="s2" d="m1768.4 419.9c4.7 0.7 8.2 3.5 7.8 6.3-0.4 2.8-4.5 4.5-9.2 3.8-4.7-0.6-8.3-3.4-7.9-6.2 0.4-2.8 4.6-4.5 9.3-3.9z"/>
				</g>
				<g id="&lt;Group&gt;">
					<path id="&lt;Path&gt;" class="s2" d="m1795.6 472.2c0 13.4-6.7 24.4-14.9 24.4-8.2 0-14.8-11-14.8-24.4 0-13.5 6.6-24.5 14.8-24.5 8.2 0 14.9 11 14.9 24.5z"/>
				</g>
				<g id="&lt;Group&gt;">
					<path id="&lt;Path&gt;" class="s2" d="m1762.9 480.2c0 5.2-2.5 9.4-5.6 9.4-3.1 0-5.6-4.2-5.6-9.4 0-5.2 2.5-9.4 5.6-9.4 3.1 0 5.6 4.2 5.6 9.4z"/>
				</g>
				<g id="&lt;Group&gt;">
					<path id="&lt;Path&gt;" class="s2" d="m1751.1 473.9c2.4 1.7 3.5 4.2 2.5 5.7-1.1 1.4-3.8 1.1-6.2-0.6-2.3-1.7-3.4-4.3-2.4-5.7 1-1.4 3.8-1.1 6.1 0.6z"/>
				</g>
				<g id="&lt;Group&gt;">
					<path id="&lt;Path&gt;" class="s3" d="m1797.1 485.7h-22-6.5-22.1c0 0-0.4 9.9 1.2 14 0 0 7.3 16.9 7.5 29h16.2 0.9 16.2c0.2-12.1 7.5-29 7.5-29 1.6-4.1 1.1-14 1.1-14z"/>
				</g>
			</g>
		</g>
		<g id="&lt;Group&gt;">
			<path id="&lt;Path&gt;" class="s3" d="m857.6 954.8l-7.5 40.2 133.6-60.6-4.5-12.8z"/>
		</g>
		<g id="&lt;Group&gt;">
			<path id="&lt;Path&gt;" class="s2" d="m1051.4 1303.2c-0.4-7.1 3.5-12.3 4.2-13.2h10c0 0 12.6 7 16.8 9.2q2.5-0.4 5-0.8c0.2 0 0.3-0.1 0.5-0.1 1.3 0 2.4 1.1 2.4 2.5 0 1.3-1.1 2.4-2.4 2.4q-0.1 0-0.1 0-2.6 0-5.2 0 0 0-0.1 0 0 0-0.1 0z"/>
		</g>
		<g id="&lt;Group&gt;">
			<path id="&lt;Path&gt;" class="s4" d="m962.8 1361.3c-0.3-7.2 3.6-12.3 4.3-13.2h10c0 0 12.6 6.9 16.8 9.2q2.5-0.4 5-0.8c0.1 0 0.3-0.1 0.4-0.1 1.4 0 2.5 1.1 2.5 2.5 0 1.3-1.1 2.4-2.5 2.4q0 0 0 0-2.6-0.1-5.3 0 0 0 0 0-0.1 0-0.1 0z"/>
		</g>
		<g id="&lt;Group&gt;">
			<path id="&lt;Path&gt;" class="s1" d="m1015.9 1186.9c0-60.3-48.9-109.1-109.2-109.1-19.1 0-37.1 4.9-52.7 13.6-8.1-47.9-49.7-84.4-99.9-84.4-28.5 0-54.2 11.7-72.6 30.5-27.1-60.6-87.8-102.9-158.5-102.9-85.5 0-156.5 61.8-171 143.2q-0.2 0-0.5 0c-60.3 0-109.2 48.8-109.2 109.1 0 60.3 48.9 109.1 109.2 109.1h555.2c60.3 0 109.2-48.8 109.2-109.1z"/>
		</g>
		<g id="&lt;Group&gt;">
			<path id="&lt;Path&gt;" class="s2" d="m861.4 750.2l-5.4 30.6c-2.3 12.9 1.7 26.1 10.8 35.5l1.4 1.5 17.5-47.6z"/>
		</g>
		<g id="&lt;Group&gt;">
			<path id="&lt;Path&gt;" class="s2" d="m925.9 746.9l8.5 33.5c0.9 3.4 0.2 7-1.8 9.9-2 2.8-5.1 4.6-8.6 5l-5.2 0.4-5.5-35.8z"/>
		</g>
		<g id="&lt;Group&gt;">
			<path id="&lt;Path&gt;" class="s5" d="m915.6 771.4l-6.3 36.6-2.6 6.7-8.7 22.5-3.6 9.4-37.6-17.7 16-38.5 9-36.5z"/>
		</g>
		<g id="&lt;Group&gt;">
			<path id="&lt;Path&gt;" class="s1" d="m847.3 830.4l9.9-9.5 40.7 24.1-24.4 125.1-8 41.3-15.9 81.7-118.8-26.2 50.4-189.4c2.5-9.2 8.6-16.9 17.1-21.4z"/>
		</g>
		<g id="&lt;Group&gt;">
			<path id="&lt;Path&gt;" class="s4" d="m731.2 1067.6q-0.1 0-0.2 0c-0.3-0.1-0.6-0.5-0.5-0.9l21.8-82.8c0.1-0.3 0.5-0.6 0.9-0.5 0.3 0.1 0.6 0.5 0.5 0.9l-21.8 82.8c-0.1 0.3-0.4 0.5-0.7 0.5z"/>
		</g>
		<g id="&lt;Group&gt;">
			<path id="&lt;Path&gt;" class="s6" d="m897.9 845l6 23.3-11.9 6.8z"/>
		</g>
		<g id="&lt;Group&gt;">
			<path id="&lt;Path&gt;" class="s6" d="m898.2 867.8l5.4 202.2h-33l22-200.2z"/>
		</g>
		<g id="&lt;Group&gt;">
			<path id="&lt;Path&gt;" class="s2" d="m870.2 739c15.9-11.4 34.7-12.5 50.2 0.4 2.4 2 4.3 4.6 5.5 7.5 1.5 3.8 2.2 9.1-1.4 14.5l-24.2-3.2-9.6-1.2c0.1 0.3 0.3 0.6 0.4 0.9 1.4 5.9 0.3 11.8-2.6 16.3-2.2-1-4.8-0.9-6.9 0.5-1.9 1.2-4 3.5-3.6 7.4q-0.4 0.1-0.8 0.2c-5.2 1.3-10.5 0.1-14.8-2.8-4.2-2.7-7.4-7.2-8.7-12.5-1.9-8.1 1.1-16.6 7.8-21.6 3-2.2 5.8-4.4 8.7-6.4z"/>
		</g>
		<g id="&lt;Group&gt;">
			<g id="&lt;Group&gt;">
				<path id="&lt;Path&gt;" class="s7" d="m925.9 757.1z"/>
			</g>
			<g id="&lt;Group&gt;">
				<path id="&lt;Path&gt;" class="s5" d="m924.1 796.7l-13.4 0.2c-2.9 0.2-5.7-0.8-7.8-2.7-2.1-1.9-3.4-4.6-3.6-7.4 0-0.2 0-0.3 0-0.5 0-0.2 0-0.3 0-0.5 0 0-0.6-6.8 5.2-13.3 0 0 4.3-3.8 1.3-9q-0.5-1-1.4-1.9-1.9-1.9-4.1-3.4l21.6 2.9 3.5 22.6 3.1 10.3c0.1 0.7 0 1.4-0.4 1.9-0.4 0.5-1 0.8-1.7 0.8h-2.3z"/>
			</g>
		</g>
		<g id="&lt;Group&gt;">
			<path id="&lt;Path&gt;" class="s8" d="m906.7 814.7l-8.7 22.5c-13.8-8-5.8-25.8-5.8-25.8z"/>
		</g>
		<g id="&lt;Group&gt;">
			<path id="&lt;Path&gt;" class="s2" d="m862.4 779.5q-0.3-0.5-0.6-1l-2.9-4.8c-3.3-9.5 1.6-14.2 4.2-15.9 11.5-7.6 26.2-7.2 37.2 0.4q2.2 1.5 4.1 3.4c0.6 0.6 1.1 1.2 1.4 1.9 3 5.2-1.3 9-1.3 9-5.8 6.5-5.2 13.3-5.2 13.3 0 0.2 0 0.3 0 0.5 0 0.2 0 0.3 0 0.5 0.2 2.8 1.5 5.5 3.6 7.4 2.1 1.9 4.9 2.9 7.8 2.7l13.4-0.2-0.6 9.9 0.7 9.5c-0.3 4.6-3 8.7-7 10.9-9.3 5-25.7-4-25-14.8l0.8-19.1c0-0.2 0-0.3 0-0.5l0.4-9.5c0.1-1.6-0.2-3.1-0.8-4.4-0.4-0.8-0.8-1.7-1.5-2.4-0.7-1-1.6-1.7-2.6-2.1-2.2-1-4.8-0.9-6.9 0.5-1.9 1.2-4 3.5-3.6 7.4 0.1 1.1 0.4 2.4 1 3.8 0 0 0.6 1.6 1.7 3.5l-16.1 17.2c-2.6-4.4 0.7-16-0.1-21-0.3-2-0.8-3.8-2.1-6.1z"/>
		</g>
		<g id="&lt;Group&gt;">
			<path id="&lt;Path&gt;" class="s2" d="m1067.8 1292.6l-18.3 1.7-65.7-229-174.7 73.8c-21.1 7.9-44.8 3.2-61.3-12-6.1-5.6-10.8-12.2-14-19.4-5.7-12.6-6.9-26.9-3.1-40.7l0.1-0.1 19.1 4.2 42.5-14.6 214.1-73.5c6.1-2.1 12.9-1.1 18.2 2.7 5.3 3.8 8.4 10 8.3 16.5z"/>
		</g>
		<g id="&lt;Group&gt;">
			<path id="&lt;Path&gt;" class="s4" d="m792.4 1056.5l-58.6 51.2c-5.7-12.6-6.9-27-3.1-40.7l0.1-0.1 19.1 4.2z"/>
		</g>
		<g id="&lt;Group&gt;">
			<path id="&lt;Path&gt;" class="s4" d="m964.1 1052.9c-8.8 0-17.2 3.7-23.1 10.2-5.9 6.6-8.7 15.3-7.8 24.1l27.8 264.6h17.6l17.7-265.8c0.6-8.6-2.4-17-8.3-23.3-5.9-6.3-14.1-9.8-22.7-9.8z"/>
		</g>
		<g id="&lt;Group&gt;">
			<path id="&lt;Path&gt;" class="s4" d="m951.1 1180.2l-10.6-59.7-143.7 21.8 154.5-86.8c0 0 34 47.6 28.2 91.9z"/>
		</g>
		<g id="&lt;Group&gt;">
			<path id="&lt;Path&gt;" class="s1" d="m837 1163.1c0 41.6-33.8 75.4-75.4 75.4-41.7 0-75.4-33.8-75.4-75.4 0-41.7 33.7-75.4 75.4-75.4 41.6 0 75.4 33.7 75.4 75.4z"/>
		</g>
		<g id="&lt;Group&gt;">
			<g id="&lt;Group&gt;">
				<g id="&lt;Group&gt;">
					<path id="&lt;Path&gt;" class="s1" d="m860.3 1075.2c0 2.2-1.7 3.9-3.9 3.9-2.1 0-3.9-1.7-3.9-3.9 0-2.1 1.8-3.9 3.9-3.9 2.2 0 3.9 1.8 3.9 3.9z"/>
				</g>
				<g id="&lt;Group&gt;">
					<path id="&lt;Path&gt;" class="s1" d="m863 1071.4c0 1.7-1.4 3-3.1 3-1.7 0-3-1.3-3-3 0-1.7 1.3-3 3-3 1.7 0 3.1 1.3 3.1 3z"/>
				</g>
				<g id="&lt;Group&gt;">
					<path id="&lt;Path&gt;" class="s1" d="m868.2 1061.2c0 5.1-4.1 9.2-9.1 9.2-5.1 0-9.2-4.1-9.2-9.2 0-5.1 4.1-9.2 9.2-9.2 5 0 9.1 4.1 9.1 9.2z"/>
				</g>
				<g id="&lt;Group&gt;">
					<path id="&lt;Path&gt;" class="s1" d="m849.7 1050.9c0 1.6-1.3 2.8-2.9 2.8-1.5 0-2.8-1.2-2.8-2.8 0-1.6 1.3-2.9 2.8-2.9 1.6 0 2.9 1.3 2.9 2.9z"/>
				</g>
				<g id="&lt;Group&gt;">
					<path id="&lt;Path&gt;" class="s1" d="m867.9 1075.9c0 1-0.8 1.8-1.8 1.8-0.9 0-1.7-0.8-1.7-1.8 0-1 0.8-1.8 1.7-1.8 1 0 1.8 0.8 1.8 1.8z"/>
				</g>
				<g id="&lt;Group&gt;">
					<path id="&lt;Path&gt;" class="s1" d="m869.2 1049.9c0 2.6-2.1 4.7-4.8 4.7-2.6 0-4.7-2.1-4.7-4.7 0-2.7 2.1-4.8 4.7-4.8 2.7 0 4.8 2.1 4.8 4.8z"/>
				</g>
			</g>
			<g id="&lt;Group&gt;">
				<g id="&lt;Group&gt;">
					<g id="&lt;Group&gt;">
						<path id="&lt;Path&gt;" class="s9" d="m856.6 1137.2c0 0.1-0.1 0.2-0.2 0.2h-22.4c-0.2 0-0.3-0.1-0.3-0.2v-2.5h22.9z"/>
					</g>
					<g id="&lt;Group&gt;">
						<path id="&lt;Path&gt;" class="s9" d="m862.6 1090.5v0.6l-1.7 13.6-2.3 18.8-1.6 12.6c0 0.2-0.2 0.3-0.3 0.3h-23.1c-0.1 0-0.3-0.1-0.3-0.3l-1.6-12.6-2.3-18.8-1.7-13.6v-0.6z"/>
					</g>
					<g id="&lt;Group&gt;" style="mix-blend-mode: multiply">
						<path id="&lt;Path&gt;" class="s10" d="m862.6 1091.1l-1.7 13.6"/>
					</g>
				</g>
				<g id="&lt;Group&gt;">
					<path id="&lt;Path&gt;" class="s7" d="m860.9 1104.7l-2.3 18.8h-26.9l-2.3-18.8z"/>
				</g>
				<g id="&lt;Group&gt;">
					<path id="&lt;Path&gt;" class="s7" d="m854.8 1107.1c0 5.4-4.3 9.7-9.7 9.7-5.3 0-9.6-4.3-9.6-9.7 0-5.3 4.3-9.6 9.6-9.6 5.4 0 9.7 4.3 9.7 9.6z"/>
				</g>
				<g id="&lt;Group&gt;">
					<path id="&lt;Path&gt;" class="s1" d="m851.4 1107.1c0 3.5-2.8 6.3-6.3 6.3-3.4 0-6.2-2.8-6.2-6.3 0-3.4 2.8-6.2 6.2-6.2 3.5 0 6.3 2.8 6.3 6.2z"/>
				</g>
				<g id="&lt;Group&gt;">
					<path id="&lt;Path&gt;" class="s4" d="m861.3 1084.1l-0.3-1.4c-0.1-0.3-0.3-0.4-0.5-0.4h-1.1c-0.1-0.3-0.3-0.4-0.5-0.4h-2.9c-0.2 0-0.4 0.1-0.5 0.4h-2.1q-1.4 0-2.8 0.3l-1.6 0.3q-1.2 0.3-2.5 0.3h-17.1c-0.2 0-0.5 0.2-0.5 0.5l-0.2 0.8-0.5 3.6 33.9-0.3z"/>
				</g>
				<g id="&lt;Group&gt;">
					<path id="&lt;Path&gt;" class="s4" d="m864.3 1090.7v0.4h-38.3v-0.4c0-0.2 0.1-0.4 0.3-0.4v-2.5c0-0.3 0.3-0.5 0.6-0.5h36.5c0.3 0 0.6 0.2 0.6 0.5v2.5c0.2 0 0.3 0.2 0.3 0.4z"/>
				</g>
			</g>
		</g>
		<g id="&lt;Group&gt;">
			<path id="&lt;Path&gt;" class="s3" d="m840.6 867.7v149.8l-26.5-4.3z"/>
		</g>
		<g id="&lt;Group&gt;">
			<g id="&lt;Group&gt;">
				<path id="&lt;Path&gt;" class="s1" d="m823.1 1010.6l23.9-178-58.8 41.5-8.7 167.2c-0.3 4.1 1.6 8.1 5 10.5 3.3 2.5 7.6 3.1 11.5 1.6l134.4-51.8-3.3-12.4z"/>
			</g>
			<g id="&lt;Group&gt;">
				<path id="&lt;Path&gt;" class="s4" d="m782.8 972q-0.1 0-0.1 0c-0.4 0-0.7-0.4-0.7-0.8l4.4-80.2c0-0.3-0.3-31.4 27.6-34.6 0.4-0.1 0.7 0.2 0.8 0.6 0 0.4-0.2 0.7-0.6 0.8-11.2 1.3-19 7.2-23.3 17.7-3.2 7.8-3.1 15.5-3.1 15.5l-4.3 80.3c-0.1 0.4-0.4 0.7-0.7 0.7z"/>
			</g>
			<g id="&lt;Group&gt;">
				<path id="&lt;Path&gt;" class="s4" d="m781.9 993.7q0 0 0 0c-0.4 0-0.7-0.4-0.7-0.8l0.7-13.7c0-0.4 0.4-0.7 0.8-0.7 0.4 0 0.7 0.3 0.6 0.7l-0.7 13.8c0 0.4-0.3 0.7-0.7 0.7z"/>
			</g>
			<g id="&lt;Group&gt;">
				<path id="&lt;Path&gt;" class="s4" d="m791.7 1054.9c-2.7 0-5.4-0.9-7.7-2.5-3.5-2.6-5.5-6.7-5.3-11.1l2.3-39.8c0-0.4 0.3-0.7 0.7-0.7 0.4 0.1 0.7 0.4 0.7 0.8l-2.2 39.8c-0.2 3.8 1.5 7.5 4.7 9.8 3.1 2.4 7.2 2.9 10.8 1.5l116.7-45c0.4-0.1 0.8 0.1 0.9 0.4 0.2 0.4 0 0.8-0.4 1l-116.7 45c-1.4 0.5-3 0.8-4.5 0.8z"/>
			</g>
			<g id="&lt;Group&gt;">
				<path id="&lt;Path&gt;" class="s5" d="m997.9 982.1c0 0-2.5-0.8-7.1 0.8l-9.9 2.6c0 0-2.2-2.6-9.8-1.6-7.5 1-8.6 0.9-16.8-0.7-2.8-0.5-5.2-1-7.4-1.2-5.1-0.6-9.9 1.7-12.8 5.8l-7 1.4 3.3 12.4 6.9-2.7 19.2-1.4c0 0 2.9 0.5 5.8-0.9l32.7-11.2c0 0 5-1.6 2.9-3.3z"/>
			</g>
		</g>
		<g id="&lt;Group&gt;">
			<g id="&lt;Group&gt;">
				<path id="&lt;Path&gt;" class="s1" d="m627.8 1480.3h-2.8v-280.5h2.8z"/>
			</g>
			<g id="&lt;Group&gt;">
				<g id="&lt;Group&gt;">
					<path id="&lt;Path&gt;" class="s1" d="m522.6 1397.5h-44.9v-2.9h44.9c18.3 0 33.2-14.8 33.2-33.1v-122.1h2.8v122.1c0 19.8-16.1 36-36 36z"/>
				</g>
				<g id="&lt;Group&gt;">
					<path id="&lt;Compound Path&gt;" fill-rule="evenodd" class="s1" d="m465.1 1410.1c-7.7 0-14-6.3-14-14.1 0-7.7 6.3-14 14-14 7.8 0 14.1 6.3 14.1 14 0 7.8-6.3 14.1-14.1 14.1zm0-25.2c-6.1 0-11.1 5-11.1 11.1 0 6.2 5 11.2 11.1 11.2 6.2 0 11.2-5 11.2-11.2 0-6.1-5-11.1-11.2-11.1z"/>
				</g>
			</g>
			<g id="&lt;Group&gt;">
				<g id="&lt;Group&gt;">
					<path id="&lt;Path&gt;" class="s1" d="m775 1397.5h-44.9c-19.8 0-35.9-16.2-35.9-36v-122.1h2.8v122.1c0 18.3 14.9 33.1 33.1 33.1h44.9z"/>
				</g>
				<g id="&lt;Group&gt;">
					<path id="&lt;Compound Path&gt;" fill-rule="evenodd" class="s1" d="m787.6 1410.1c-7.7 0-14-6.3-14-14.1 0-7.7 6.3-14 14-14 7.8 0 14.1 6.3 14.1 14 0 7.8-6.3 14.1-14.1 14.1zm0-25.2c-6.1 0-11.1 5-11.1 11.1 0 6.2 5 11.2 11.1 11.2 6.2 0 11.2-5 11.2-11.2 0-6.1-5-11.1-11.2-11.1z"/>
				</g>
			</g>
			<g id="&lt;Group&gt;">
				<path id="&lt;Compound Path&gt;" fill-rule="evenodd" class="s1" d="m626.4 1506.9c-7.7 0-14-6.3-14-14 0-7.8 6.3-14 14-14 7.7 0 14 6.2 14 14 0 7.7-6.3 14-14 14zm0-25.2c-6.2 0-11.2 5-11.2 11.2 0 6.1 5 11.2 11.2 11.2 6.2 0 11.2-5.1 11.2-11.2 0-6.2-5-11.2-11.2-11.2z"/>
			</g>
		</g>
		<g id="&lt;Group&gt;">
			<g id="&lt;Group&gt;">
				<path id="&lt;Path&gt;" class="s1" d="m1566.4 726.7h-2.9v-205.8h2.9z"/>
			</g>
			<g id="&lt;Group&gt;">
				<g id="&lt;Group&gt;">
					<path id="&lt;Path&gt;" class="s1" d="m1488.8 1043.4h-83.4v-2.9h83.4c13.2 0 23.9-10.7 23.9-23.9v-466.6h2.9v466.6c0 14.8-12 26.8-26.8 26.8z"/>
				</g>
				<g id="&lt;Group&gt;">
					<path id="&lt;Compound Path&gt;" fill-rule="evenodd" class="s1" d="m1396.2 1052.6c-5.9 0-10.7-4.8-10.7-10.6 0-5.9 4.8-10.7 10.7-10.7 5.8 0 10.6 4.8 10.6 10.7 0 5.8-4.8 10.6-10.6 10.6zm0-18.5c-4.4 0-7.9 3.5-7.9 7.9 0 4.3 3.5 7.8 7.9 7.8 4.3 0 7.8-3.5 7.8-7.8 0-4.4-3.5-7.9-7.8-7.9z"/>
				</g>
			</g>
			<g id="&lt;Group&gt;">
				<g id="&lt;Group&gt;">
					<path id="&lt;Path&gt;" class="s1" d="m1877.6 881.6h-236.5c-14.8 0-26.8-12-26.8-26.8v-304.8h2.8v304.8c0 13.2 10.8 23.9 24 23.9h236.5z"/>
				</g>
				<g id="&lt;Group&gt;">
					<path id="&lt;Compound Path&gt;" fill-rule="evenodd" class="s1" d="m1886.9 890.8c-5.9 0-10.7-4.8-10.7-10.7 0-5.8 4.8-10.6 10.7-10.6 5.8 0 10.6 4.8 10.6 10.6 0 5.9-4.8 10.7-10.6 10.7zm0-18.5c-4.4 0-7.9 3.5-7.9 7.8 0 4.4 3.5 7.9 7.9 7.9 4.3 0 7.8-3.5 7.8-7.9 0-4.3-3.5-7.8-7.8-7.8z"/>
				</g>
			</g>
			<g id="&lt;Group&gt;">
				<path id="&lt;Compound Path&gt;" fill-rule="evenodd" class="s1" d="m1564.9 746.6c-5.8 0-10.6-4.8-10.6-10.6 0-5.9 4.8-10.7 10.6-10.7 5.9 0 10.7 4.8 10.7 10.7 0 5.8-4.8 10.6-10.7 10.6zm0-18.5c-4.3 0-7.8 3.5-7.8 7.9 0 4.3 3.5 7.8 7.8 7.8 4.4 0 7.9-3.5 7.9-7.8 0-4.4-3.5-7.9-7.9-7.9z"/>
			</g>
		</g>
		<g id="&lt;Group&gt;">
			<g id="&lt;Group&gt;">
				<path id="&lt;Path&gt;" class="s1" d="m2868.4 1438.8h-2.8v-372.6h2.8z"/>
			</g>
			<g id="&lt;Group&gt;">
				<g id="&lt;Group&gt;">
					<path id="&lt;Path&gt;" class="s1" d="m2760.2 1649.4h-199.9v-2.8h199.9c18.8 0 34.1-15.4 34.1-34.2v-505.4h2.9v505.4c0 20.4-16.6 37-37 37z"/>
				</g>
				<g id="&lt;Group&gt;">
					<path id="&lt;Compound Path&gt;" fill-rule="evenodd" class="s1" d="m2547.3 1662.4c-7.9 0-14.4-6.5-14.4-14.4 0-8 6.5-14.4 14.4-14.4 7.9 0 14.4 6.4 14.4 14.4 0 7.9-6.5 14.4-14.4 14.4zm0-26c-6.4 0-11.6 5.2-11.6 11.6 0 6.3 5.2 11.5 11.6 11.5 6.4 0 11.6-5.2 11.6-11.5 0-6.4-5.2-11.6-11.6-11.6z"/>
				</g>
			</g>
			<g id="&lt;Group&gt;">
				<g id="&lt;Group&gt;">
					<path id="&lt;Path&gt;" class="s1" d="m3020.1 1332h-46.3c-20.4 0-37-16.6-37-37v-188h2.9v188c0 18.8 15.3 34.1 34.1 34.1h46.3z"/>
				</g>
				<g id="&lt;Group&gt;">
					<path id="&lt;Compound Path&gt;" fill-rule="evenodd" class="s1" d="m3033 1344.9c-7.9 0-14.4-6.4-14.4-14.4 0-7.9 6.5-14.4 14.4-14.4 8 0 14.4 6.5 14.4 14.4 0 8-6.4 14.4-14.4 14.4zm0-25.9c-6.3 0-11.5 5.2-11.5 11.5 0 6.4 5.2 11.6 11.5 11.6 6.4 0 11.6-5.2 11.6-11.6 0-6.3-5.2-11.5-11.6-11.5z"/>
				</g>
			</g>
			<g id="&lt;Group&gt;">
				<path id="&lt;Compound Path&gt;" fill-rule="evenodd" class="s1" d="m2867 1466.1c-7.9 0-14.4-6.4-14.4-14.4 0-7.9 6.5-14.4 14.4-14.4 7.9 0 14.4 6.5 14.4 14.4 0 8-6.5 14.4-14.4 14.4zm0-25.9c-6.4 0-11.5 5.2-11.5 11.5 0 6.4 5.1 11.6 11.5 11.6 6.4 0 11.6-5.2 11.6-11.6 0-6.3-5.2-11.5-11.6-11.5z"/>
			</g>
		</g>
		<g id="&lt;Group&gt;">
			<g id="&lt;Group&gt;">
				<path id="&lt;Path&gt;" class="s2" d="m905.5 976.7c0 2.9 2.3 5.3 5.2 5.3h134.5c2.9 0 5.2-2.4 5.2-5.3 0-2.9-2.3-5.2-5.2-5.2h-134.5c-5.2 0-5.2 5.2-5.2 5.2z"/>
			</g>
			<g id="&lt;Group&gt;">
				<path id="&lt;Path&gt;" class="s2" d="m939.5 982h150.1c4.9 0 9.2-3.6 10.1-8.4l16.7-90.3c0.5-3-0.3-6.1-2.2-8.4-2-2.4-4.8-3.7-7.9-3.7h-137.8c-4.9 0-9.2 3.5-10.1 8.4z"/>
			</g>
			<g id="&lt;Group&gt;">
				<path id="&lt;Path&gt;" class="s1" d="m1013.7 924.5c-1.5 8 3.7 14.4 11.7 14.4 7.9 0 15.5-6.4 17-14.4 1.4-7.9-3.8-14.3-11.7-14.3-8 0-15.6 6.4-17 14.3z"/>
			</g>
		</g>
		<g id="&lt;Group&gt;">
			<path id="&lt;Path&gt;" class="s1" d="m1531.4 505.8c0 39.4-32 71.4-71.5 71.4-39.4 0-71.4-32-71.4-71.4 0-39.5 32-71.5 71.4-71.5 39.5 0 71.5 32 71.5 71.5z"/>
		</g>
		<g id="&lt;Group&gt;">
			<path id="&lt;Path&gt;" class="s5" d="m1564 238.5l0.4 10.5 0.4 10.3 0.2 4 28.2-7.2-1.6-5.8v-22.8l-6.7-8.4-16.6-10.1z"/>
		</g>
		<g id="&lt;Group&gt;">
			<path id="&lt;Path&gt;" class="s1" d="m1551.4 353l13.6-89.7 28.2-7.2 2 5.9 38.7 28.6-3.7 66.9-0.1 0.8-4.5 87.4-81.9-9.4 7.6-83.2z"/>
		</g>
		<g id="&lt;Group&gt;">
			<path id="&lt;Path&gt;" class="s11" d="m1565 263.3l-7.7 13.1 4.7 6.4z"/>
		</g>
		<g id="&lt;Group&gt;">
			<path id="&lt;Path&gt;" class="s11" d="m1559.9 274.8l-29.1 139.7 22.1 2.3 9.6-140.8z"/>
		</g>
		<g id="&lt;Group&gt;">
			<path id="&lt;Path&gt;" class="s8" d="m1564.4 249l0.4 10.3c7.2-2.4 5.9-14 5.9-14z"/>
		</g>
		<g id="&lt;Group&gt;">
			<path id="&lt;Path&gt;" class="s4" d="m1581.4 490l-327.6 13.5-0.4-11.1 317.5-62.5z"/>
		</g>
		<g id="&lt;Group&gt;">
			<path id="&lt;Path&gt;" class="s12" d="m1590.5 441.6l35.1 4.1 0.1 4.3q0.1 3.4-0.3 6.7c-2.2 15.6-13.7 28.7-29.5 32.3q0 0-0.1 0c-20.3 4.6-41.5-3.6-53.5-20.7l-54.5-62.4-96 87.9-9.7-9.5 95.1-125.5c3.1-4.1 7.8-6.7 12.9-7 5.1-0.4 10.2 1.4 13.8 5z"/>
		</g>
		<g id="&lt;Group&gt;">
			<path id="&lt;Path&gt;" class="s12" d="m1394.9 497.9c0.1-5.4-3-9.1-3.6-9.8l-5.6-1.7c0 0-11.1 7.6-14.2 9.4q-1.9-0.2-3.8-0.5v0.1c-0.1 0-0.2-0.1-0.3-0.1-1 0.1-1.8 0.9-1.8 1.9 0.1 1 0.9 1.8 1.9 1.8q0 0 0.1 0 1.9-0.1 3.9-0.2 0 0 0 0 0.1 0 0.1 0z"/>
		</g>
		<g id="&lt;Group&gt;">
			<path id="&lt;Path&gt;" class="s4" d="m1244.8 503.8c5.4 0.1 9.2-3 9.8-3.6l-0.3-7.4c0 0-5.6-9.3-7.4-12.4q0.2-1.9 0.5-3.8c0-0.1 0-0.2 0-0.3 0-1-0.9-1.8-1.9-1.8-1 0.1-1.8 0.9-1.7 1.9q0 0 0 0.1 0.1 1.9 0.1 3.9 0 0 0 0 0 0.1 0 0.1z"/>
		</g>
		<g id="&lt;Group&gt;">
			<g id="&lt;Group&gt;">
				<g id="&lt;Group&gt;">
					<path id="&lt;Compound Path&gt;" class="s2" d="m1613.9 224.4c0.7-6.6-1.6-13.8-5.7-18.5-3.2-3.7-7.6-6.9-12.3-8.6-4.1-2.1-9.3-3.4-15.9-2.6q0 0 0 0c-1.1-1.7-2.6-3.2-4.7-4-4.9-2-10.5 0.4-12.5 5.4-2 4.9 0.4 10.6 5.3 12.5q1.2 0.5 2.4 0.6l12.8 4.5 6.4 2.2c-0.1 0.2-0.3 0.3-0.5 0.5-2.8 3.3-3.9 7.3-3.5 11.1 1.7 0.1 3.3 1 4.2 2.5 0.8 1.4 1.4 3.5-0.1 5.9q0.2 0.2 0.5 0.4c2.9 2.4 6.6 3.4 10.2 2.9 3.6-0.4 7-2.2 9.5-5.2 2.3-2.7 3.6-6.1 3.9-9.6z"/>
				</g>
				<g id="&lt;Group&gt;">
					<path id="&lt;Path&gt;" class="s5" d="m1574.5 249.7l2.4-11.6c0-0.1 0-0.2 0.1-0.3l2.8-6.2q0-0.1 0.1-0.2l-1.4-0.8 1.5-1.6 11.5-15.3-8.1-6.6-16.5 0.9c0 0-1.5 2-3.6 4.8q-0.6 0.7-1.2 1.5c-4.2 5.6-9.7 12.9-9.8 13-0.1 0.8 0.4 1.6 1.1 2l2.5 1.3-3.6 9.8c-0.8 2.1-0.5 4.4 0.8 6.2 1.2 1.8 3.3 2.9 5.5 2.9z"/>
				</g>
				<g id="&lt;Group&gt;">
					<path id="&lt;Path&gt;" class="s2" d="m1607 225.2c-4.9-8.4-14.3-12.9-23.7-11.5q-1.9 0.2-3.7 0.8-0.8 0.3-1.5 0.7c-3.5 2.4-2 6.2-2 6.2 0.9 3.4 0.5 6.2-0.1 8l3.9 2c0.5-1 1.1-1.8 2-2.4 0.4-0.4 0.9-0.7 1.5-1 0.7-0.3 1.5-0.5 2.3-0.5 1.7 0.1 3.3 1 4.2 2.5 0.8 1.4 1.4 3.5-0.1 5.9q-0.6 1-1.8 2.1c0 0-0.9 0.8-2.2 1.7l5.8 10.6 13-13.6c5.1-5 3.5-9.6 2.4-11.5z"/>
				</g>
				<g id="&lt;Group&gt;">
					<path id="&lt;Compound Path&gt;" fill-rule="evenodd" class="s2" d="m1559.1 217.9c2-3.8 5.1-7.3 7.1-6.2 2 1 1.1 5.6-0.9 9.4-1.9 3.8-5.1 7.3-7.1 6.3-2-1-1-5.7 0.9-9.5zm1 0.5c-2.2 4.3-2.3 7.5-1.4 8 0.9 0.4 3.4-1.6 5.6-5.8 2.2-4.3 2.3-7.5 1.4-7.9-0.9-0.5-3.4 1.5-5.6 5.7z"/>
				</g>
				<g id="&lt;Group&gt;">
					<path id="&lt;Path&gt;" class="s2" d="m1564.6 221.3l13.2 6.8 0.5-1-13.2-6.8z"/>
				</g>
			</g>
		</g>
		<g id="&lt;Group&gt;">
			<path id="&lt;Path&gt;" class="s1" d="m1589.4 501.3c0 27.1-22.1 49.2-49.3 49.2-27.2 0-49.2-22.1-49.2-49.2 0-27.2 22-49.3 49.2-49.3 27.2 0 49.3 22.1 49.3 49.3z"/>
		</g>
		<g id="&lt;Group&gt;">
			<path id="&lt;Path&gt;" class="s1" d="m1517.9 518.7c0 27.2-22 49.3-49.2 49.3-27.2 0-49.3-22.1-49.3-49.3 0-27.2 22.1-49.2 49.3-49.2 27.2 0 49.2 22 49.2 49.2z"/>
		</g>
		<g id="&lt;Group&gt;">
			<g id="&lt;Group&gt;">
				<path id="&lt;Path&gt;" class="s2" d="m424.4 902.9c0 3.4-2.8 6.2-6.2 6.2-3.4 0-6.2-2.8-6.2-6.2 0-3.4 2.8-6.2 6.2-6.2 3.4 0 6.2 2.8 6.2 6.2z"/>
			</g>
			<g id="&lt;Group&gt;">
				<path id="&lt;Path&gt;" class="s2" d="m437.6 873.5c0 6-4.9 10.8-10.9 10.8-6 0-10.8-4.8-10.8-10.8 0-6 4.8-10.9 10.8-10.9 6 0 10.9 4.9 10.9 10.9z"/>
			</g>
			<g id="&lt;Group&gt;">
				<path id="&lt;Path&gt;" class="s2" d="m446.9 828.5c0 6.7-5.3 12-12 12-6.6 0-12-5.3-12-12 0-6.6 5.4-12 12-12 6.7 0 12 5.4 12 12z"/>
			</g>
			<g id="&lt;Group&gt;">
				<path id="&lt;Path&gt;" class="s2" d="m530.5 883.9c0 6.2-5 11.3-11.2 11.3-6.2 0-11.2-5.1-11.2-11.3 0-6.2 5-11.2 11.2-11.2 6.2 0 11.2 5 11.2 11.2z"/>
			</g>
			<g id="&lt;Group&gt;">
				<path id="&lt;Path&gt;" class="s2" d="m477.9 869.2c0 6.2-5.1 11.2-11.3 11.2-6.2 0-11.2-5-11.2-11.2 0-6.2 5-11.2 11.2-11.2 6.2 0 11.3 5 11.3 11.2z"/>
			</g>
			<g id="&lt;Group&gt;">
				<path id="&lt;Path&gt;" class="s2" d="m510.4 845.6c0 7.7-6.3 13.9-14 13.9-7.7 0-13.9-6.2-13.9-13.9 0-7.7 6.2-14 13.9-14 7.7 0 14 6.3 14 14z"/>
			</g>
			<g id="&lt;Group&gt;">
				<path id="&lt;Path&gt;" class="s2" d="m483.3 901.2c0 4-3.2 7.3-7.2 7.3-4 0-7.2-3.3-7.2-7.3 0-4 3.2-7.2 7.2-7.2 4 0 7.2 3.2 7.2 7.2z"/>
			</g>
			<g id="&lt;Group&gt;">
				<path id="&lt;Path&gt;" class="s2" d="m454 939.9c-7.6-48.3-24.2-62.5-24.4-62.6l1.2-1.5c0.7 0.6 17.4 14.8 25.2 63.8z"/>
			</g>
			<g id="&lt;Group&gt;">
				<path id="&lt;Path&gt;" class="s2" d="m447.5 943c-7.2-27.9-29.5-39.1-29.7-39.2l0.8-1.8c0.3 0.2 23.4 11.8 30.7 40.6z"/>
			</g>
			<g id="&lt;Group&gt;">
				<path id="&lt;Path&gt;" class="s2" d="m455.3 945.3c-10.8-17.2-18-35.9-21.4-55.8-3.4-19.9-2.1-43.7-0.4-54.9l1.9 0.3c-1.6 10.6-2.9 34.7 0.4 54.3 3.3 19.6 10.4 38.1 21.2 55z"/>
			</g>
			<g id="&lt;Group&gt;">
				<path id="&lt;Path&gt;" class="s2" d="m454.5 949c-5.6-13.8-6.5-25.6-2.5-35 1.4-3.3 3-5.6 4.7-8.1 1.9-2.7 3.9-5.5 5.7-9.9 3.1-7.6 4-16 2.9-25.1l1.9-0.3c1.2 9.5 0.2 18.2-3 26.1-1.9 4.7-3.9 7.6-5.9 10.3-1.7 2.4-3.2 4.6-4.5 7.7-3.8 9-3 20.3 2.5 33.5z"/>
			</g>
			<g id="&lt;Group&gt;">
				<path id="&lt;Path&gt;" class="s2" d="m460.6 947.8l-1.1-1.5c11.1-8.4 30.7-27 36.8-57.1 2.7-13.7 2.4-27.6-1.2-41.4l1.9-0.5c3.6 14.1 4 28.3 1.2 42.2-6.3 30.8-26.2 49.8-37.6 58.3z"/>
			</g>
			<g id="&lt;Group&gt;">
				<path id="&lt;Path&gt;" class="s2" d="m467.6 946.9l-1.9-0.5c3.3-13.4 9.8-26.1 18.8-36.8 8.9-10.5 20.2-19 32.9-24.6l0.7 1.7c-12.3 5.5-23.4 13.9-32.2 24.2-8.7 10.4-15.1 22.8-18.3 36z"/>
			</g>
			<g id="&lt;Group&gt;">
				<path id="&lt;Path&gt;" class="s2" d="m463.7 948.5l-1.9-0.5 12.8-43 1.9 0.5z"/>
			</g>
			<g id="&lt;Group&gt;">
				<g id="&lt;Group&gt;">
					<path id="&lt;Path&gt;" class="s3" d="m495.7 949.7l-0.4 3.4-2.1 16.8-5.7 46.1c-0.5 3.6-3.6 6.4-7.2 6.4h-46.6c-3.7 0-6.8-2.8-7.2-6.4l-8.3-66.3z"/>
				</g>
				<g id="&lt;Group&gt;">
					<g id="&lt;Group&gt;">
						<path id="&lt;Path&gt;" class="s2" d="m496 988h-78v-1.7h78z"/>
					</g>
					<g id="&lt;Group&gt;">
						<g id="&lt;Group&gt;">
							<path id="&lt;Compound Path&gt;" fill-rule="evenodd" class="s2" d="m457.8 1081.7h-1.6l-16.5-44.7-16.4 44.7-1.7-0.3v-93.6l1.7-0.3 16.4 44.4 16.5-45h1.6l16.5 45 16.4-44.4 1.7 0.3v93.6l-1.7 0.3-16.4-44.7zm-17.2-47.3l16.4 44.5 16.4-44.5-16.4-44.8zm34.6 0l15.4 42.1v-83.9zm-51.9-41.8v83.9l15.4-42.1z"/>
						</g>
					</g>
				</g>
				<g id="&lt;Group&gt;">
					<path id="&lt;Path&gt;" class="s4" d="m495.3 953.1l-2.1 16.8-41.9-13.3z"/>
				</g>
				<g id="&lt;Group&gt;">
					<path id="&lt;Path&gt;" class="s3" d="m412.2 935.9l2.4 22.2h84.7l2.4-22.2z"/>
				</g>
			</g>
		</g>
		<g id="&lt;Group&gt;">
			<path id="&lt;Path&gt;" class="s2" d="m2090.6 1457.6c-6.9 45.6-49.6 76.9-95.2 70-45.6-7-77-49.6-70-95.2 6.9-45.7 49.6-77 95.2-70.1 45.6 7 77 49.6 70 95.3z"/>
		</g>
		<g id="&lt;Group&gt;">
			<path id="&lt;Path&gt;" class="s4" d="m1986.6 1488.4c-26.2-4-48.2-18.8-62.1-39.2 1.9 38.9 30.9 72.3 70.9 78.4 45.6 6.9 88.3-24.4 95.2-70 1.8-11.8 1.1-23.4-1.8-34.2-12.8 43.5-56.1 72-102.2 65z"/>
		</g>
		<g id="&lt;Group&gt;">
			<path id="&lt;Path&gt;" class="s2" d="m2003.9 1614.7c-18.7 59-81.8 91.6-140.7 72.8-24.5-7.7-44.4-23-58-42.7-19.2-27.6-25.9-63.4-14.9-98 2.7-8.4 6.1-16.1 10.5-23.4 2.2-3.4 4.4-6.7 6.5-9.9 0.4-0.5 0.7-0.9 1.1-1.4 10.7-13.7 24.1-24.6 39.4-32 25.1-12.3 54.6-15.3 83.2-6.2 59 18.7 91.7 81.7 72.9 140.8z"/>
		</g>
		<g id="&lt;Group&gt;">
			<path id="&lt;Path&gt;" class="s5" d="m1888.1 1740.7l-120.1 86.6 20.5-144.4 1.8-12.9 4.3-30 1.5-10.5 72.2-39.9z"/>
		</g>
		<g id="&lt;Group&gt;">
			<path id="&lt;Path&gt;" class="s8" d="m1834.6 1625.1c-7.9 31.9-24.4 41-44.3 44.9l4.3-30z"/>
		</g>
		<g id="&lt;Group&gt;">
			<path id="&lt;Path&gt;" class="s5" d="m1854.9 1607.2c-3.2 1.3-5.8 4.4-7.4 7.8-8.7 17.6-25.7 27.7-42.3 29.8-7 1-13.8 0.6-20.1-1.3-15.8-4.5-27.2-17.9-24.4-40.2 0.3-2.6 10.2-30.5 10.5-30.2l0.1-0.2c-2-1.2-4.9-2.9-7-3.9-1.7-0.9-2.5-2.9-2-4.7l0.2-0.4c0.5-1.5 1.6-2.8 2.8-3.4l22.6-15.7 7.1-11.9c1.9-3.2 3.8-6.4 5.8-9.5 2.2-3.4 4.4-6.7 6.5-9.9 0.4-0.5 0.7-0.9 1.1-1.4 10.7-13.7 24.1-24.6 39.4-32-2.4 48.2-4.8 86.2-4.8 86.2l8.6 4.5c3.1-5.6 7.8-11.9 11-14.3 4.8-3.6 10.4-4.7 15.2-2.9 4.7 1.8 7.5 6.2 8.5 11.8 4.1 21.4-16.3 35.4-31.4 41.8z"/>
		</g>
		<g id="&lt;Group&gt;">
			<path id="&lt;Compound Path&gt;" fill-rule="evenodd" class="s1" d="m1788 1584.8q-0.6 0-1.3-0.2c-6.7-2.1-5-19.8 0.2-36.1 5.2-16.3 14-31.7 20.7-29.6 6.7 2.2 5 19.8-0.2 36.1-4.8 15.3-12.9 29.8-19.4 29.8zm18.2-62.4c-2.6 0-10 9-15.8 27.2-6 19-4.8 30.8-2.6 31.5q0.2 0 0.3 0c2.6 0 10-8.9 15.8-27.2 6-19 4.9-30.7 2.6-31.5q-0.2 0-0.3 0z"/>
		</g>
		<g id="&lt;Group&gt;">
			<path id="&lt;Path&gt;" class="s1" d="m1851.3 1572.4l-46.7-15.2 1.2-3.5 46.6 15.2z"/>
		</g>
		<g id="&lt;Group&gt;">
			<path id="&lt;Path&gt;" class="s13" d="m1855.5 1596.4l-26 96h45.9z"/>
		</g>
		<g id="&lt;Group&gt;">
			<path id="&lt;Path&gt;" class="s5" d="m1999.8 1824.8l-94.5-51.8-17.2-32.3-106.8 20.1-83.4 64z"/>
		</g>
		<g id="&lt;Group&gt;">
			<path id="&lt;Path&gt;" class="s14" d="m2073 2007.8h-457.4l13-28.9 13.7-30.4 13-29 13.7-30.4 13-29 15.9-35.3h301.9l14.1 35.3 11.6 29 12.2 30.4 11.5 29 12.2 30.4z"/>
		</g>
		<g id="&lt;Group&gt;">
			<g id="&lt;Group&gt;">
				<path id="&lt;Path&gt;" class="s15" d="m2025.5 1889.1h-356.5l13-29h331.9z"/>
			</g>
			<g id="&lt;Group&gt;">
				<path id="&lt;Path&gt;" class="s15" d="m2049.2 1948.5h-406.9l13-29h382.4z"/>
			</g>
			<g id="&lt;Group&gt;">
				<path id="&lt;Path&gt;" class="s15" d="m2073 2007.8h-457.4l13-28.9h432.8z"/>
			</g>
		</g>
		<g id="&lt;Group&gt;">
			<path id="&lt;Path&gt;" class="s8" d="m1888.1 1740.7l-76.6 55.2 93.8-22.9z"/>
		</g>
		<g id="&lt;Group&gt;">
			<path id="&lt;Path&gt;" class="s4" d="m1850.2 1890.5h-179.8c-0.8 0-1.4-0.6-1.4-1.4 0-0.8 0.6-1.5 1.4-1.5h179.8c0.8 0 1.4 0.7 1.4 1.5 0 0.8-0.6 1.4-1.4 1.4z"/>
		</g>
		<g id="&lt;Group&gt;">
			<path id="&lt;Path&gt;" class="s4" d="m1915.9 1979.6h-42.9c-0.8 0-1.4-0.6-1.4-1.4 0-0.8 0.6-1.4 1.4-1.4h42.9c0.8 0 1.4 0.6 1.4 1.4 0 0.8-0.6 1.4-1.4 1.4z"/>
		</g>
		<g id="&lt;Group&gt;">
			<path id="&lt;Path&gt;" class="s4" d="m1913.4 1916.4c0 0 19.5 91.4 22.2 91.4 2.8 0-22.2 0-22.2 0z"/>
		</g>
		<g id="&lt;Group&gt;">
			<g id="&lt;Group&gt;">
				<path id="&lt;Path&gt;" class="s2" d="m1652.5 2000.1c0 5.4-4.4 9.9-9.9 9.9h-252.9c-5.5 0-9.9-4.5-9.9-9.9 0-5.4 4.4-9.9 9.9-9.9h252.9c9.9 0 9.9 9.9 9.9 9.9z"/>
			</g>
			<g id="&lt;Group&gt;">
				<path id="&lt;Path&gt;" class="s2" d="m1588.6 2010h-282.5c-9.3 0-17.2-6.7-18.9-15.8l-31.5-169.9c-1-5.6 0.5-11.4 4.1-15.8 3.7-4.4 9.1-7 14.9-7h259.2c9.3 0 17.3 6.7 19 15.8z"/>
			</g>
			<g id="&lt;Group&gt;">
				<path id="&lt;Path&gt;" class="s1" d="m1416.9 1810.1c0.3 1.9-0.9 3.5-2.8 3.5-1.9 0-3.7-1.6-4.1-3.5-0.3-1.9 0.9-3.4 2.8-3.4 1.9 0 3.7 1.5 4.1 3.4z"/>
			</g>
			<g id="&lt;Group&gt;">
				<path id="&lt;Path&gt;" class="s1" d="m1267.7 1818.6l30.4 162.2h272.8l-30.3-162.2z"/>
			</g>
			<g id="&lt;Group&gt;">
				<path id="&lt;Path&gt;" class="s13" d="m1291.3 1838l6.1 32.6h54.9l-6.1-32.6z"/>
			</g>
			<g id="&lt;Group&gt;">
				<path id="&lt;Path&gt;" class="s13" d="m1363.5 1838l6.1 32.6h54.9l-6.1-32.6z"/>
			</g>
			<g id="&lt;Group&gt;">
				<path id="&lt;Path&gt;" class="s13" d="m1299.3 1886.1l6.1 32.6h54.9l-6.1-32.6z"/>
			</g>
			<g id="&lt;Group&gt;">
				<path id="&lt;Path&gt;" class="s13" d="m1371.6 1886.1l6 32.6h54.9l-6.1-32.6z"/>
			</g>
		</g>
		<g id="&lt;Group&gt;">
			<g id="&lt;Group&gt;">
				<path id="&lt;Compound Path&gt;" fill-rule="evenodd" class="s1" d="m1470.4 1720.3h-311.2c-37.3 0-67.7-30.3-67.7-67.7 0-37.3 30.4-67.7 67.7-67.7h311.2c37.3 0 67.7 30.4 67.7 67.7 0 37.4-30.4 67.7-67.7 67.7zm-311.2-132.5c-35.8 0-64.9 29.1-64.9 64.8 0 35.8 29.1 64.9 64.9 64.9h311.2c35.7 0 64.8-29.1 64.8-64.9 0-35.7-29.1-64.8-64.8-64.8z"/>
			</g>
			<g id="&lt;Group&gt;">
				<path id="&lt;Path&gt;" class="s1" d="m1429 1719l32.8 48.6-0.1-48.7z"/>
			</g>
			<g id="&lt;Group&gt;">
				<g id="&lt;Group&gt;">
					<path id="&lt;Path&gt;" class="s1" d="m1395.4 1652.6c0 8.6-7 15.5-15.5 15.5-8.6 0-15.5-6.9-15.5-15.5 0-8.5 6.9-15.5 15.5-15.5 8.5 0 15.5 7 15.5 15.5z"/>
				</g>
				<g id="&lt;Group&gt;">
					<path id="&lt;Path&gt;" class="s1" d="m1330.3 1652.6c0 8.6-7 15.5-15.5 15.5-8.6 0-15.5-6.9-15.5-15.5 0-8.5 6.9-15.5 15.5-15.5 8.5 0 15.5 7 15.5 15.5z"/>
				</g>
				<g id="&lt;Group&gt;">
					<path id="&lt;Path&gt;" class="s1" d="m1265.2 1652.6c0 8.6-6.9 15.5-15.5 15.5-8.5 0-15.5-6.9-15.5-15.5 0-8.5 7-15.5 15.5-15.5 8.6 0 15.5 7 15.5 15.5z"/>
				</g>
			</g>
		</g>
		<g id="&lt;Group&gt;">
			<g id="&lt;Group&gt;">
				<path id="&lt;Compound Path&gt;" fill-rule="evenodd" class="s1" d="m1845.1 385.4h-139.3c-17.1 0-31-14-31-31.1 0-17.2 13.9-31.1 31-31.1h139.3c17.2 0 31.1 13.9 31.1 31.1 0 17.1-13.9 31.1-31.1 31.1zm-139.3-59.4c-15.5 0-28.2 12.7-28.2 28.3 0 15.6 12.7 28.2 28.2 28.2h139.3c15.6 0 28.3-12.6 28.3-28.2 0-15.6-12.7-28.3-28.3-28.3z"/>
			</g>
			<g id="&lt;Group&gt;">
				<path id="&lt;Path&gt;" class="s1" d="m1724.4 384l-14.7 21.8v-21.8z"/>
			</g>
			<g id="&lt;Group&gt;">
				<g id="&lt;Group&gt;">
					<path id="&lt;Path&gt;" class="s1" d="m1739.4 354.3c0 3.8 3.1 6.9 7 6.9 3.8 0 6.9-3.1 6.9-6.9 0-3.9-3.1-7-6.9-7-3.9 0-7 3.1-7 7z"/>
				</g>
				<g id="&lt;Group&gt;">
					<path id="&lt;Path&gt;" class="s1" d="m1768.6 354.3c0 3.8 3.1 6.9 6.9 6.9 3.8 0 6.9-3.1 6.9-6.9 0-3.9-3.1-7-6.9-7-3.8 0-6.9 3.1-6.9 7z"/>
				</g>
				<g id="&lt;Group&gt;">
					<path id="&lt;Path&gt;" class="s1" d="m1797.7 354.3c0 3.8 3.1 6.9 6.9 6.9 3.9 0 7-3.1 7-6.9 0-3.9-3.1-7-7-7-3.8 0-6.9 3.1-6.9 7z"/>
				</g>
			</g>
		</g>
		<g id="&lt;Group&gt;">
			<path id="&lt;Path&gt;" class="s1" d="m512.5 1119.8c0 30.6-24.9 55.5-55.5 55.5-30.7 0-55.5-24.9-55.5-55.5 0-30.7 24.8-55.5 55.5-55.5 30.6 0 55.5 24.8 55.5 55.5z"/>
		</g>
		<g id="&lt;Group&gt;">
			<path id="&lt;Path&gt;" class="s1" d="m1802.8 531.2c0 15.6-12.6 28.2-28.1 28.2-15.6 0-28.2-12.6-28.2-28.2 0-15.5 12.6-28.1 28.2-28.1 15.5 0 28.1 12.6 28.1 28.1z"/>
		</g>
		<g id="&lt;Group&gt;">
			<path id="&lt;Path&gt;" class="s3" d="m1608.2 317.6c0 0 19.2 92.3 19.3 90.5 0.1-1.8 2.2-41.6 2.2-41.6z"/>
		</g>
		<g id="&lt;Group&gt;">
			<path id="&lt;Path&gt;" class="s1" d="m1700.3 475.6l-66.4-185-36.1 17.9 93.7 170.7z"/>
		</g>
		<g id="&lt;Group&gt;">
			<path id="&lt;Path&gt;" class="s4" d="m1668.8 438.4c-0.3 0-0.5-0.1-0.7-0.3l-64-116.6c0-0.1-11-16.5 3.5-31.4 0.3-0.2 0.8-0.3 1 0 0.3 0.3 0.3 0.7 0.1 1-13.8 14.1-3.5 29.5-3.4 29.6l64.1 116.7c0.2 0.3 0 0.8-0.3 1q-0.2 0-0.3 0z"/>
		</g>
		<g id="&lt;Group&gt;">
			<g id="&lt;Group&gt;">
				<g id="&lt;Group&gt;">
					<path id="&lt;Path&gt;" class="s5" d="m1700.3 475.6l1.6 4 8.5-2.4q1-0.3 2-0.2l19.9 3.1c0.3 0 0.5 0.2 0.6 0.4 0.1 0.3 0 0.5-0.2 0.7-0.4 0.5-1.4 1-3.7 1.1l-6.8-0.5 9.8 6.3c0.2 0.2 0.3 0.4 0.3 0.7 0 0.3-0.2 0.5-0.4 0.6-1 0.4-2.2 0.8-3 0.2 0 0-1.7 1.8-5.9-0.2 0 0-0.9 0.8-3.3 0.2 0 0-8.8-3.6-8.8-3.6-5.7 2.6-12.4 8.9-16.2-0.2l-3.2-6.6z"/>
				</g>
			</g>
		</g>
		<g id="&lt;Group&gt;">
			<path id="&lt;Path&gt;" class="s4" d="m1676.9 410.9c-0.3 0-0.6-0.1-0.7-0.4l-2.4-6.7c-0.1-0.3 0.1-0.7 0.5-0.9 0.3-0.1 0.7 0.1 0.9 0.5l2.3 6.6c0.2 0.4 0 0.8-0.4 0.9q-0.1 0-0.2 0z"/>
		</g>
		<g id="&lt;Group&gt;">
			<path id="&lt;Path&gt;" class="s4" d="m1691.5 479.9c-0.2 0-0.5-0.1-0.6-0.4-0.2-0.4 0-0.8 0.4-0.9l8.1-3.4-21.5-59.9c-0.2-0.3 0-0.8 0.4-0.9 0.4-0.1 0.8 0.1 0.9 0.4l22 61.2-9.4 3.9q-0.1 0-0.3 0z"/>
		</g>
		<g id="&lt;Group&gt;">
			<g id="&lt;Group&gt;">
				<path id="&lt;Path&gt;" class="s16" d="m1623.5 487.7c0 1.7 1.4 3 3 3h76.6c1.6 0 3-1.3 3-3 0-1.6-1.4-3-3-3h-76.6c-3 0-3 3-3 3z"/>
			</g>
			<g id="&lt;Group&gt;">
				<path id="&lt;Path&gt;" class="s16" d="m1642.9 490.7h85.5c2.8 0 5.2-2 5.7-4.8l9.5-51.4c0.4-1.7-0.1-3.5-1.2-4.8-1.1-1.3-2.8-2.1-4.5-2.1h-78.5c-2.8 0-5.2 2-5.7 4.8z"/>
			</g>
			<g id="&lt;Group&gt;">
				<path id="&lt;Path&gt;" class="s1" d="m1688.3 458c-0.8 4.5 2.2 8.2 6.7 8.2 4.5 0 8.8-3.7 9.7-8.2 0.8-4.5-2.2-8.2-6.7-8.2-4.5 0-8.9 3.7-9.7 8.2z"/>
			</g>
		</g>
		<g id="&lt;Group&gt;">
			<path id="&lt;Path&gt;" class="s4" d="m1487.8 407.7c-0.4 0-0.7-0.3-0.7-0.7v-12.5c0-0.4 0.3-0.8 0.7-0.8 0.4 0 0.7 0.4 0.7 0.8v12.5c0 0.4-0.3 0.7-0.7 0.7z"/>
		</g>
		<g id="&lt;Group&gt;">
			<g id="&lt;Group&gt;">
				<path id="&lt;Path&gt;" class="s1" d="m3125.7 952.9q0-1 0-1.9c0-63-51.1-114-114-114-10.8 0-21.2 1.5-31.1 4.2-48.2-72.4-130.6-120.2-224.1-120.2-148.5 0-268.9 120.4-268.9 269q0 0 0 0c0 79.6 64.5 144.1 144.1 144.1l485.2-0.1c48.5 0 88.4-37.9 90.7-86.4q0.1-2.1 0.1-4.3c0-47.2-36-86-82-90.4z"/>
			</g>
			<g id="&lt;Group&gt;">
				<path id="&lt;Path&gt;" class="s5" d="m2759.9 715.2c-4.6 0-9 2.5-11.3 6.7l-49.2 89.1-117.3 10 0.1 0.3-9.8-12.7-11.2 0.3 0.1 24.7 26-0.1 97.4 4.1 33.5 1.4 24.2-32.6 15.3-20.5 10-70.7z"/>
			</g>
			<g id="&lt;Group&gt;">
				<g id="&lt;Group&gt;">
					<g id="&lt;Group&gt;">
						<path id="&lt;Path&gt;" class="s1" d="m2561.5 782.9c-0.1 1.7 1.3 3 2.9 3.1 1.7 0 3-1.3 3-3 0-1.6-1.3-3-2.9-3-1.7 0-3 1.3-3 2.9z"/>
					</g>
					<g id="&lt;Group&gt;">
						<path id="&lt;Path&gt;" class="s1" d="m2559.5 780c0 1.3 1 2.3 2.3 2.3 1.3 0.1 2.3-1 2.3-2.2 0-1.3-1-2.4-2.3-2.4-1.3 0-2.3 1-2.3 2.3z"/>
					</g>
					<g id="&lt;Group&gt;">
						<path id="&lt;Path&gt;" class="s1" d="m2555.5 772.1c0 3.9 3.1 7.1 7 7.2 3.8 0 7-3.1 7.1-7 0-3.9-3.1-7.1-7-7.1-3.9-0.1-7.1 3.1-7.1 6.9z"/>
					</g>
					<g id="&lt;Group&gt;">
						<path id="&lt;Path&gt;" class="s1" d="m2569.8 764.4c0 1.2 0.9 2.2 2.2 2.2 1.2 0 2.2-1 2.2-2.2 0-1.2-1-2.2-2.2-2.2-1.2 0-2.2 1-2.2 2.2z"/>
					</g>
					<g id="&lt;Group&gt;">
						<path id="&lt;Path&gt;" class="s1" d="m2555.6 783.4c0 0.8 0.6 1.4 1.4 1.4 0.7 0 1.3-0.6 1.4-1.4 0-0.7-0.6-1.3-1.4-1.3-0.7-0.1-1.4 0.6-1.4 1.3z"/>
					</g>
					<g id="&lt;Group&gt;">
						<path id="&lt;Path&gt;" class="s1" d="m2554.9 763.4c0 2 1.6 3.7 3.6 3.7 2 0 3.6-1.6 3.7-3.6 0-2-1.6-3.6-3.6-3.7-2 0-3.7 1.6-3.7 3.6z"/>
					</g>
				</g>
				<g id="&lt;Group&gt;">
					<g id="&lt;Group&gt;">
						<g id="&lt;Group&gt;">
							<path id="&lt;Path&gt;" class="s13" d="m2559.6 794.7v0.4l1.2 10.4 1.6 14.4 1.1 9.7c0 0.1 0.1 0.2 0.2 0.2l17.7 0.2c0.1 0 0.2-0.1 0.2-0.2l1.4-9.6 1.9-14.4 1.4-10.4v-0.4z"/>
						</g>
						<g id="&lt;Group&gt;" style="mix-blend-mode: multiply">
							<path id="&lt;Path&gt;" class="s10" d="m2559.6 795.1l1.2 10.4"/>
						</g>
					</g>
					<g id="&lt;Group&gt;">
						<path id="&lt;Path&gt;" class="s17" d="m2560.6 789.7l0.3-1c0-0.2 0.2-0.4 0.4-0.4h0.8c0.1-0.1 0.2-0.2 0.4-0.2h2.2c0.2 0 0.3 0.1 0.4 0.3h1.6q1.1 0 2.1 0.2l1.3 0.3q0.9 0.3 1.9 0.3l13.1 0.1c0.2 0 0.3 0.2 0.4 0.4l0.1 0.6 0.4 2.8-26-0.5z"/>
					</g>
					<g id="&lt;Group&gt;">
						<path id="&lt;Path&gt;" class="s17" d="m2558.3 794.8v0.3l29.3 0.3v-0.3c0-0.2-0.1-0.3-0.2-0.3v-1.9c0-0.2-0.2-0.4-0.4-0.4l-28-0.3c-0.2 0-0.4 0.1-0.4 0.4l-0.1 1.8c-0.1 0.1-0.2 0.2-0.2 0.4z"/>
					</g>
				</g>
			</g>
			<g id="&lt;Group&gt;">
				<path id="&lt;Path&gt;" class="s5" d="m2571.3 822.9c0.2 0.2 1.5 1.4 1.5 3.4 0 1.9-1.2 3.1-1.4 3.3 0 0.2 0.2 1.6-0.8 2.8-1.1 1.2-2.6 1-2.8 1l-6.5 0.2c-1.8 0-3.3-1.6-3.5-3.7 0-0.4 0-0.7 0-0.7-2.4-3 0-6.3 0-6.3-1.9-0.8-2-2.9-2-2.9 0-3.6 3.1-4 3.1-4-1.6-1.2-1.3-3.4-1.3-3.4 0-3.9 3.6-3.9 3.6-3.9h7.5c1.9 0.3 3.4 1.7 3.7 3.4 0.4 2.1-1.1 3.7-1.3 3.8 0.2 0.1 1.9 1.3 1.9 3.5 0.1 2.1-1.5 3.4-1.7 3.5z"/>
			</g>
			<g id="&lt;Group&gt;">
				<path id="&lt;Path&gt;" class="s5" d="m2591.4 821.8l-10-13.4-12.3-8.2c-0.6-0.5-1.5-0.5-2.2-0.1-2.3 1.3-0.6 4.7 0.9 6l4.3 2.9 1.8 1.3c0 0 1.7 12.2 11.1 15.5 0 0 3.9-2.2 6.4-4z"/>
			</g>
			<g id="&lt;Group&gt;">
				<path id="&lt;Path&gt;" class="s15" d="m2767.5 715.2h83.8l25.7 180.5h-134.7z"/>
			</g>
			<g id="&lt;Group&gt;">
				<path id="&lt;Path&gt;" class="s17" d="m2764.9 859.6c0.5-1.9-0.5-3.8-2.4-4.4l-71.1-21-20.4-86.9c-0.3-1.6-1.8-2.7-3.4-2.7h-89.6c-1.1 0-2.1 0.5-2.8 1.3-0.6 0.8-0.9 1.9-0.6 3l20.8 88.9c0.5 1.8 2.4 3 4.2 2.6 1.3-0.3 2.2-1.3 2.6-2.5l69.7 20.7h77.3l11.3 3.3q0.5 0.2 1 0.2c1.5 0 2.9-1 3.4-2.5z"/>
			</g>
			<g id="&lt;Group&gt;">
				<g id="&lt;Group&gt;">
					<path id="&lt;Path&gt;" class="s5" d="m2754.3 1015.8l-1.2 9.9-34.4-21.4-6.4-3.9-42.1-26.1 3.5-27.4 44.1 37.8 18.1 15.4z"/>
				</g>
				<g id="&lt;Group&gt;">
					<path id="&lt;Path&gt;" class="s8" d="m2735.9 1000.1l-17.2 4.2-6.4-3.9 5.5-15.7z"/>
				</g>
				<g id="&lt;Group&gt;">
					<path id="&lt;Path&gt;" class="s18" d="m2750.7 1009.5l-8 12.8 2.1 40.9-8.1 13.1c-0.6 0.9-0.6 2 0 2.8 0.6 0.8 1.7 1.2 2.7 1l5-1.2c4.3-1 7.9-3.6 10.2-7.2l28.5-45.2c0.8-1.3 0.7-3 0.2-4.5-0.5-1.4-1.7-2.5-3.2-3z"/>
				</g>
			</g>
			<g id="&lt;Group&gt;">
				<path id="&lt;Path&gt;" class="s1" d="m2639.7 789.2c1.2 6.2-2.9 11.2-9.1 11.2-6.2 0-12.2-5-13.4-11.2-1.1-6.2 3-11.2 9.2-11.2 6.2 0 12.2 5 13.3 11.2z"/>
			</g>
			<g id="&lt;Group&gt;">
				<path id="&lt;Path&gt;" class="s19" d="m2854.4 658.2c0 22.1-17.9 39.9-39.9 39.9-9.2 0-17.6-3-24.4-8.2-9.5-7.3-15.6-18.8-15.6-31.7q0-4.7 1-9.1c0.4-1.4 0.8-2.8 1.2-4.1 0.1-0.2 0.1-0.4 0.2-0.6 2.1-5.8 5.5-11 9.9-15.1 7.2-6.9 17-11.1 27.7-11.1 22 0 39.9 17.9 39.9 40z"/>
			</g>
			<g id="&lt;Group&gt;">
				<path id="&lt;Path&gt;" class="s5" d="m2825.9 715.2l-32.8 41.6-5-50.4-2.4-23.4-0.3-3.3 20.3-21.9z"/>
			</g>
			<g id="&lt;Group&gt;">
				<path id="&lt;Path&gt;" class="s19" d="m2858.9 685.9c0 5.8-4.7 10.5-10.5 10.5-5.8 0-10.6-4.7-10.6-10.5 0-5.8 4.8-10.5 10.6-10.5 5.8 0 10.5 4.7 10.5 10.5z"/>
			</g>
			<g id="&lt;Group&gt;">
				<path id="&lt;Path&gt;" class="s8" d="m2788.1 706.4l-2.4-23.4 12.1-5.2c0 0 7 21.6-9.7 28.6z"/>
			</g>
			<g id="&lt;Group&gt;">
				<path id="&lt;Path&gt;" class="s5" d="m2803 671.7c-1 0.8-1.5 2.1-1.7 3.5-1.1 6.9-5.7 12.1-11.2 14.7-2.2 1.1-4.6 1.7-6.9 1.7-5.9 0.2-11.2-3.1-12.7-11-0.1-1 0.2-11.5 0.3-11.4v-0.1c-0.7-0.2-1.9-0.5-2.8-0.6-0.6-0.1-1.1-0.7-1.1-1.4v-0.1c0-0.6 0.2-1.1 0.6-1.5l6-7.8 1.1-4.8q0.4-1.9 0.9-3.8c0.4-1.4 0.8-2.8 1.2-4.1 0.1-0.2 0.1-0.4 0.2-0.6 2.1-5.8 5.5-11 9.9-15.1 4.4 16.6 7.7 29.8 7.7 29.8l3.4 0.6c0.5-2.2 1.4-4.9 2.2-6.1 1.3-1.7 3.1-2.7 4.9-2.6 1.8 0.1 3.2 1.3 4.1 3.1 3.7 6.9-1.7 13.8-6.1 17.6z"/>
			</g>
			<g id="&lt;Group&gt;">
				<path id="&lt;Path&gt;" class="s19" d="m2787.2 618.2c-11.4 0-20.7 9.2-20.7 20.6v0.7h21.3l0.3-5.9 27.4-15.4z"/>
			</g>
			<g id="&lt;Group&gt;">
				<path id="&lt;Path&gt;" class="s14" d="m2863.1 957.3c-10.6 8.3-24.5 10.9-37.4 6.9l-173.5-53.7-25.3-87.9 215.5 62.9 4.5 1.4 30.1 8.8 1.7 27c0.8 13.4-5.1 26.4-15.6 34.6z"/>
			</g>
			<g id="&lt;Group&gt;">
				<path id="&lt;Path&gt;" class="s5" d="m2910 863.9l-42.2-136.7c0 0-2.9-12-16.5-12l19.3 135.3-108.5-22.6-13.5 1.5-15.4-2.7c-2.7 1.1 0.2 2.6 0.2 2.6l-7.1 1c-1.5 3.4 7.6 3 7.6 3l-5.6 1.5c-1 4.4 11.3 2.5 11.3 2.5l-9.1 6.7c2.6 4.7 11.9-2.7 11.9-2.7l5.2-3.3c5.2-0.3 13.5 2.9 13.5 2.9 0 0 0.2 1.2-5.7 4.5-5.9 3.3-5.2 7.7-5.2 7.7 0.9 3.6 4.3 0.1 4.3 0.1l3.4-2.2 8.4-3.1c4.3-0.9 10-4.3 11.3-5.2l110 42.5c6.2 2.2 13.1 0.8 17.8-3.7 4.8-4.5 6.6-11.3 4.6-17.6z"/>
			</g>
			<g id="&lt;Group&gt;">
				<g id="&lt;Group&gt;">
					<g id="&lt;Group&gt;">
						<path id="&lt;Path&gt;" class="s2" d="m3052 700.5c0 0-12.6 3.1-18.2 13.6-5.5 10.4-13.6 11.7-15.1 11.4 0 0-6.2-1.3-3.4-9.9 0 0 5.9-19.4 36.7-15.1z"/>
					</g>
					<g id="&lt;Group&gt;">
						<path id="&lt;Path&gt;" class="s2" d="m3001.7 704.7c0 0 8.7 2.4 9 13.8 0 0 0.3 9.9-4.9 15.4l-5.9-12.9v-0.1c-3.3-9.9-8.3-19.2-14.7-27.5-2.1-2.8-4.1-6.4-5.3-10.9 0 0 17.2 1.5 21.8 22.2z"/>
					</g>
					<g id="&lt;Group&gt;">
						<path id="&lt;Path&gt;" class="s2" d="m3051.5 728.8c-5.3-2.3-14.6-0.9-19.9 0.8-4 1.2-7.7 3.4-10 6.9-1.3 1.9-2.1 4.2-2.4 6.6-0.3 2.2 1.2 7 0.4 8.7 0 0 4-9.2 14.8-14.2 3.5-1.6 6.9-0.7 10.3-2 2.7-1.1 5.5-4.3 6.8-6.8z"/>
					</g>
					<g id="&lt;Group&gt;">
						<path id="&lt;Path&gt;" class="s2" d="m3003.3 755.5c0 0 3.1-10.8-5.3-21.9 0 0-7.9-12.8-29.6-11.3-2.4 0.1-4.7 0.7-6.9 1.8-1.7 0.8-3.5 1.9-4.8 3.4 0 0 11.2-1.1 25.3 6.9 7 4 13.1 9.5 17.7 16.1z"/>
					</g>
					<g id="&lt;Group&gt;">
						<path id="&lt;Path&gt;" class="s2" d="m3014.8 782.7c0.3-19.9 8.1-36.8 8.2-36.9l-1.8-0.9c-0.1 0.2-8.1 17.4-8.4 37.7z"/>
					</g>
					<g id="&lt;Group&gt;">
						<path id="&lt;Path&gt;" class="s2" d="m3010.3 781.4h2c-1.2-43.3 9.2-63 9.3-63.2l-1.7-1c-0.5 0.8-10.8 20.3-9.6 64.2z"/>
					</g>
					<g id="&lt;Group&gt;">
						<path id="&lt;Path&gt;" class="s2" d="m3010.9 781.6c0.4-30.2-4.3-50.8-4.4-51l-1.9 0.5c0 0.2 4.7 20.6 4.3 50.5z"/>
					</g>
					<g id="&lt;Group&gt;">
						<path id="&lt;Path&gt;" class="s2" d="m3006.2 781.9l2-0.2c-1.6-20.4-6-33.4-6-33.5l-1.9 0.7c0 0.1 4.3 12.8 5.9 33z"/>
					</g>
				</g>
				<g id="&lt;Group&gt;">
					<path id="&lt;Path&gt;" class="s2" d="m3010.1 772.4c-1.6-72.7-8.4-100.4-8.5-100.6l-1.7 0.4c0.1 0.3 6.9 27.8 8.4 100.2z"/>
				</g>
				<g id="&lt;Group&gt;">
					<path id="&lt;Path&gt;" class="s2" d="m3016.6 777.1l1.7-0.2c-16.3-125.2-9.7-247.5-9.7-248.7l-1.7-0.1c-0.1 1.3-6.7 123.7 9.7 249z"/>
				</g>
				<g id="&lt;Group&gt;">
					<path id="&lt;Path&gt;" class="s2" d="m3012.6 741l1.7-0.2c-4.1-33.9 22.1-123.5 22.4-124.4l-1.7-0.5c-0.3 0.9-26.6 90.8-22.4 125.1z"/>
				</g>
				<g id="&lt;Group&gt;">
					<path id="&lt;Path&gt;" class="s2" d="m3006.7 779.2c-8-110.5-41.3-173.6-41.6-174.2l-1.6 0.8c0.4 0.6 33.5 63.4 41.5 173.5z"/>
				</g>
				<g id="&lt;Group&gt;">
					<g id="&lt;Group&gt;">
						<path id="&lt;Path&gt;" class="s1" d="m2992 765.8h13.3 9.5 13.4l19.5 58.3h-32.9-9.5-32.8z"/>
					</g>
					<g id="&lt;Group&gt;">
						<path id="&lt;Path&gt;" class="s3" d="m3028.2 882.4h-13.4-9.5-13.3l-19.5-58.3h32.8 9.5 32.9z"/>
					</g>
				</g>
				<g id="&lt;Group&gt;">
					<path id="&lt;Path&gt;" class="s2" d="m3027.5 613.1c0 5.3 4.3 9.7 9.6 9.7 5.4 0 9.7-4.4 9.7-9.7 0-5.3-4.3-9.7-9.7-9.7-5.3 0-9.6 4.4-9.6 9.7z"/>
				</g>
				<g id="&lt;Group&gt;">
					<path id="&lt;Path&gt;" class="s2" d="m2994 670.7c0 3.5 2.9 6.4 6.4 6.4 3.5 0 6.4-2.9 6.4-6.4 0-3.6-2.9-6.4-6.4-6.4-3.5 0-6.4 2.8-6.4 6.4z"/>
				</g>
				<g id="&lt;Group&gt;">
					<path id="&lt;Path&gt;" class="s2" d="m2954.8 603.3c0 4.6 3.8 8.4 8.4 8.4 4.6 0 8.4-3.8 8.4-8.4 0-4.6-3.8-8.4-8.4-8.4-4.6 0-8.4 3.8-8.4 8.4z"/>
				</g>
				<g id="&lt;Group&gt;">
					<path id="&lt;Path&gt;" class="s2" d="m2996.2 523c0 6.2 5 11.2 11.2 11.2 6.2 0 11.2-5 11.2-11.2 0-6.2-5-11.2-11.2-11.2-6.2 0-11.2 5-11.2 11.2z"/>
				</g>
			</g>
			<g id="&lt;Group&gt;">
				<path id="&lt;Path&gt;" class="s1" d="m3052.7 897.5c0 24-19.5 43.5-43.6 43.5-24 0-43.5-19.5-43.5-43.5 0-24.1 19.5-43.6 43.5-43.6 24.1 0 43.6 19.5 43.6 43.6z"/>
			</g>
			<g id="&lt;Group&gt;">
				<g id="&lt;Group&gt;">
					<g id="&lt;Group&gt;">
						<path id="&lt;Path&gt;" class="s5" d="m2544.5 1019.4l-13 20.3-27.3 42.2-17.2 26.6-9.9 0.1 12.3-27.4 21.4-47.9 6.2-13.6z"/>
					</g>
					<g id="&lt;Group&gt;">
						<path id="&lt;Path&gt;" class="s1" d="m2497 1096.1l-15.1 0.2-33.4 23.7-15.4 0.2c-1 0-1.9 0.6-2.3 1.5-0.4 1-0.2 2 0.6 2.8l3.7 3.6c3.1 3.1 7.2 4.7 11.6 4.7l53.3-0.2c1.6 0 3-1 3.9-2.2 1-1.2 1.3-2.8 0.9-4.3z"/>
					</g>
				</g>
				<g id="&lt;Group&gt;">
					<path id="&lt;Path&gt;" class="s8" d="m2531.5 1039.7l-27.3 42.2-14.8-0.7 21.4-47.9z"/>
				</g>
			</g>
			<g id="&lt;Group&gt;">
				<path id="&lt;Path&gt;" class="s17" d="m2779.4 949.8l-86.9-38.3-103.8-49.7 6.3-12.8h-37.7c-13.7-1.2-27.3 5.9-33.8 19l-0.1 0.1c-7.9 15.8-2.6 35 12.3 44.6l173 102.8 37.2-65.7z"/>
			</g>
			<g id="&lt;Group&gt;">
				<path id="&lt;Path&gt;" class="s14" d="m2667.7 887.7l-106.1 220.4-38.5-20.3-4-2.1-40.8-21.6 107.8-223.3c7.4-15.2 24.6-22.9 40.8-18.2z"/>
			</g>
			<g id="&lt;Group&gt;">
				<path id="&lt;Path&gt;" class="s17" d="m2665.5 901.5c-0.2 0-0.4 0-0.6-0.2l-14.6-17.5c-0.3-0.3-0.2-0.7 0.1-1 0.3-0.2 0.7-0.2 1 0.1l14.6 17.5c0.3 0.3 0.2 0.7-0.1 1q-0.2 0.1-0.4 0.1z"/>
			</g>
			<g id="&lt;Group&gt;">
				<path id="&lt;Path&gt;" class="s15" d="m2842.4 885.5v37.5l-130.5-41-1.4 4.3 131.9 41.4 4.5 1.4v-4.7-37.5z"/>
			</g>
			<g id="&lt;Group&gt;">
				<path id="&lt;Path&gt;" class="s15" d="m2616.3 907.5l-93.2 180.3-4-2.1 93.2-180.3z"/>
			</g>
			<g id="&lt;Group&gt;">
				<path id="&lt;Path&gt;" class="s1" d="m2967.8 1007.5c0-48.7-39.4-88.1-88.1-88.1-48.6 0-88 39.4-88 88.1 0 48.6 39.4 88 88 88 48.7 0 88.1-39.4 88.1-88z"/>
			</g>
			<g id="&lt;Group&gt;">
				<path id="&lt;Path&gt;" class="s17" d="m2877 896.4q-0.1 0-0.2 0l-77.8-22.8c-0.3-0.1-0.6-0.5-0.5-0.8 0.2-0.4 0.6-0.6 0.9-0.5l77.8 22.7c0.4 0.1 0.6 0.5 0.5 0.9-0.1 0.3-0.3 0.5-0.7 0.5z"/>
			</g>
		</g>
		<g id="&lt;Group&gt;">
		</g>
		<g id="&lt;Group&gt;">
		</g>
		<g id="&lt;Group&gt;">
		</g>
		<g id="&lt;Group&gt;">
		</g>
		<g id="&lt;Group&gt;">
			<g id="&lt;Group&gt;">
				<g id="&lt;Group&gt;">
					<path id="&lt;Path&gt;" class="s1" d="m1071.7 737c-5.1 0-9.3-4.2-9.3-9.3 0-5.2 4.2-9.3 9.3-9.3 5.1 0 9.3 4.1 9.3 9.3 0 5.1-4.2 9.3-9.3 9.3z"/>
				</g>
				<g id="&lt;Group&gt;">
					<path id="&lt;Path&gt;" class="s1" d="m1039.3 737c-5.2 0-9.3-4.2-9.3-9.3 0-5.2 4.1-9.3 9.3-9.3 5.1 0 9.3 4.1 9.3 9.3 0 5.1-4.2 9.3-9.3 9.3z"/>
				</g>
				<g id="&lt;Group&gt;">
					<path id="&lt;Path&gt;" class="s1" d="m1006.9 737c-5.2 0-9.3-4.2-9.3-9.3 0-5.2 4.1-9.3 9.3-9.3 5.1 0 9.3 4.1 9.3 9.3 0 5.1-4.2 9.3-9.3 9.3z"/>
				</g>
			</g>
			<g id="&lt;Group&gt;">
				<path id="&lt;Compound Path&gt;" fill-rule="evenodd" class="s1" d="m1039.3 823.3c-52.7 0-95.6-42.9-95.6-95.6 0-52.8 42.9-95.6 95.6-95.6 52.7 0 95.6 42.8 95.6 95.6 0 52.7-42.9 95.6-95.6 95.6zm0-188.4c-51.2 0-92.8 41.6-92.8 92.8 0 51.1 41.6 92.7 92.8 92.7 51.1 0 92.8-41.6 92.8-92.7 0-51.2-41.7-92.8-92.8-92.8z"/>
			</g>
			<g id="&lt;Group&gt;">
				<path id="&lt;Path&gt;" class="s1" d="m1039.3 844.1l7.8-22h-15.7z"/>
			</g>
		</g>
		<g id="&lt;Group&gt;">
			<g id="&lt;Group&gt;">
				<g id="&lt;Group&gt;">
					<path id="&lt;Path&gt;" class="s1" d="m2646 636.6c-3.8 0-7-3.2-7-7 0-3.9 3.2-7.1 7-7.1 3.9 0 7.1 3.2 7.1 7.1 0 3.8-3.2 7-7.1 7z"/>
				</g>
				<g id="&lt;Group&gt;">
					<path id="&lt;Path&gt;" class="s1" d="m2621.6 636.6c-3.9 0-7.1-3.2-7.1-7 0-3.9 3.2-7.1 7.1-7.1 3.8 0 7 3.2 7 7.1 0 3.8-3.2 7-7 7z"/>
				</g>
				<g id="&lt;Group&gt;">
					<path id="&lt;Path&gt;" class="s1" d="m2597.1 636.6c-3.9 0-7-3.2-7-7 0-3.9 3.1-7.1 7-7.1 3.9 0 7 3.2 7 7.1 0 3.8-3.1 7-7 7z"/>
				</g>
			</g>
			<g id="&lt;Group&gt;">
				<path id="&lt;Compound Path&gt;" fill-rule="evenodd" class="s1" d="m2621.6 702.1c-40 0-72.6-32.5-72.6-72.5 0-40 32.6-72.6 72.6-72.6 40 0 72.5 32.6 72.5 72.6 0 40-32.5 72.5-72.5 72.5zm0-142.2c-38.5 0-69.7 31.2-69.7 69.7 0 38.4 31.2 69.7 69.7 69.7 38.4 0 69.6-31.3 69.6-69.7 0-38.5-31.2-69.7-69.6-69.7z"/>
			</g>
			<g id="&lt;Group&gt;">
				<path id="&lt;Path&gt;" class="s1" d="m2621.6 719.9l6.8-19.1h-13.6z"/>
			</g>
		</g>
	</g>
</svg>