<svg version="1.2" xmlns="http://www.w3.org/2000/svg" viewBox="0 0 3000 3000" width="3000" height="3000">
	<title>iStock-1343779997-ai</title>
	<style>
		.s0 { fill: #ffffff;stroke: #9087f4;stroke-linecap: round;stroke-linejoin: round;stroke-width: 25.3 } 
		.s1 { fill: #6868e0 } 
		.s2 { fill: #c5c2f9 } 
		.s3 { fill: #8a8aff } 
		.s4 { fill: none;stroke: #c5c2f9;stroke-linecap: round;stroke-linejoin: round;stroke-width: 29.7 } 
		.s5 { fill: none;stroke: #6868e0;stroke-miterlimit:10;stroke-width: 12.8 } 
		.s6 { fill: #45b4ad } 
		.s7 { fill: #f95f6a } 
		.s8 { fill: #f26d6d } 
		.s9 { fill: #191245 } 
		.s10 { fill: #ffc5ae } 
		.s11 { fill: #653087 } 
		.s12 { fill: #fb9c98 } 
		.s13 { fill: #8754af } 
		.s14 { fill: none;stroke: #8754af;stroke-linecap: round;stroke-linejoin: round;stroke-width: 30 } 
		.s15 { fill: #f9e0d2 } 
		.s16 { fill: #f6a19e } 
		.s17 { fill: none;stroke: #ffc5ae;stroke-linecap: round;stroke-miterlimit:10;stroke-width: 13.8 } 
		.s18 { fill: none;stroke: #ffc5ae;stroke-linecap: round;stroke-linejoin: round;stroke-width: 13.8 } 
		.s19 { fill: none;stroke: #ffffff;stroke-linecap: round;stroke-linejoin: round;stroke-width: 20.5 } 
		.s20 { fill: none;stroke: #d3d5fc;stroke-linecap: round;stroke-linejoin: round;stroke-width: 35.5 } 
		.s21 { fill: #d3d5fc } 
		.s22 { fill: #f89f4f } 
		.s23 { fill: #efeefe } 
		.s24 { fill: #ffffff } 
		.s25 { fill: #fdc854 } 
		.s26 { fill: none;stroke: #9087f4;stroke-linecap: round;stroke-linejoin: round;stroke-width: 25.3 } 
	</style>
	<g id="_Artboards_">
	</g>
	<g id="321353356351 1">
		<path id="&lt;Path&gt;" class="s0" d="m2682.6 2572.9h165.8"/>
		<g id="&lt;Group&gt;">
			<path id="&lt;Path&gt;" class="s1" d="m592.8 2563.9h930.1v-956.2h-930.1z"/>
			<path id="&lt;Path&gt;" class="s2" d="m570.6 2103.6h965.9c20.1 0 36.5 19.5 36.5 43.6v162.5c0 24-16.4 43.6-36.5 43.6h-965.9c-20.1 0-36.5-19.6-36.5-43.6v-162.5c0-24.1 16.4-43.6 36.5-43.6z"/>
			<path id="&lt;Path&gt;" class="s3" d="m681.1 2332.2h853.6c11.4 0 20.6-9.2 20.6-20.6v-166.3c0-11.4-9.2-20.6-20.6-20.6h-853.6c-11.4 0-20.6 9.2-20.6 20.6v166.3c0 11.4 9.2 20.6 20.6 20.6z"/>
			<path id="&lt;Path&gt;" class="s1" d="m597.4 2283.7c0-10 8.2-18.2 18.2-18.2 10.1 0 18.3 8.2 18.3 18.2 0 10.1-8.2 18.3-18.3 18.3-10 0-18.2-8.2-18.2-18.3z"/>
			<path id="&lt;Path&gt;" class="s1" d="m598.5 2177.7c0-10.1 8.2-18.3 18.3-18.3 10.1 0 18.2 8.2 18.2 18.3 0 10.1-8.1 18.2-18.2 18.2-10.1 0-18.3-8.1-18.3-18.2z"/>
			<path id="&lt;Path&gt;" class="s2" d="m570.6 1506h965.9c20.1 0 36.5 19.5 36.5 43.6v162.4c0 24.1-16.4 43.6-36.5 43.6h-965.9c-20.1 0-36.5-19.5-36.5-43.6v-162.4c0-24.1 16.4-43.6 36.5-43.6z"/>
			<path id="&lt;Path&gt;" class="s3" d="m681.1 1734.6h853.6c11.4 0 20.6-9.3 20.6-20.6v-166.4c0-11.3-9.2-20.6-20.6-20.6h-853.6c-11.4 0-20.6 9.3-20.6 20.6v166.4c0 11.3 9.2 20.6 20.6 20.6z"/>
			<path id="&lt;Path&gt;" class="s4" d="m1522.9 1633.5h-217.8"/>
			<path id="&lt;Path&gt;" class="s4" d="m1217.7 1633.5h-217.9"/>
			<path id="&lt;Path&gt;" class="s4" d="m909.8 1633.5h-217.8"/>
			<path id="&lt;Path&gt;" class="s1" d="m597.4 1686.1c0-10.1 8.2-18.2 18.2-18.2 10.1 0 18.3 8.1 18.3 18.2 0 10.1-8.2 18.3-18.3 18.3-10 0-18.2-8.2-18.2-18.3z"/>
			<path id="&lt;Path&gt;" class="s1" d="m598.5 1580.1c0-10.1 8.2-18.3 18.3-18.3 10.1 0 18.2 8.2 18.2 18.3 0 10-8.1 18.2-18.2 18.2-10.1 0-18.3-8.2-18.3-18.2z"/>
			<path id="&lt;Path&gt;" class="s2" d="m570.6 1804.7h965.9c20.1 0 36.5 19.6 36.5 43.6v162.5c0 24-16.4 43.6-36.5 43.6h-965.9c-20.1 0-36.5-19.6-36.5-43.6v-162.5c0-24 16.4-43.6 36.5-43.6z"/>
			<path id="&lt;Path&gt;" class="s3" d="m681.1 2033.3h853.6c11.4 0 20.6-9.2 20.6-20.6v-166.3c0-11.4-9.2-20.6-20.6-20.6h-853.6c-11.4 0-20.6 9.2-20.6 20.6v166.3c0 11.4 9.2 20.6 20.6 20.6z"/>
			<path id="&lt;Path&gt;" class="s1" d="m597.4 1984.9c0-10.1 8.2-18.3 18.2-18.3 10.1 0 18.3 8.2 18.3 18.3 0 10-8.2 18.2-18.3 18.2-10 0-18.2-8.2-18.2-18.2z"/>
			<path id="&lt;Path&gt;" class="s1" d="m598.5 1878.8c0-10.1 8.2-18.2 18.3-18.2 10.1 0 18.2 8.1 18.2 18.2 0 10.1-8.1 18.3-18.2 18.3-10.1 0-18.3-8.2-18.3-18.3z"/>
			<path id="&lt;Path&gt;" class="s5" d="m616.8 1686h-22.8c-52.9 0-95.8 42.9-95.8 95.8 0 52.9 42.9 95.7 95.8 95.7h22.8"/>
			<path id="&lt;Path&gt;" class="s5" d="m616.8 1986.3h-22.8c-52.9 0-95.8 42.9-95.8 95.8 0 52.9 42.9 95.8 95.8 95.8h22.8"/>
			<g id="&lt;Group&gt;">
				<path id="&lt;Path&gt;" class="s6" d="m1240.7 2231.1c0-11.5 9.3-20.9 20.8-20.9 11.6 0 20.9 9.4 20.9 20.9 0 11.5-9.3 20.9-20.9 20.9-11.5 0-20.8-9.4-20.8-20.9z"/>
			</g>
			<g id="&lt;Group&gt;">
				<path id="&lt;Path&gt;" class="s6" d="m1240.7 1929.6c0-11.6 9.3-20.9 20.8-20.9 11.6 0 20.9 9.3 20.9 20.9 0 11.5-9.3 20.8-20.9 20.8-11.5 0-20.8-9.3-20.8-20.8z"/>
			</g>
			<g id="&lt;Group&gt;">
				<path id="&lt;Path&gt;" class="s6" d="m1240.7 1630.8c0-11.5 9.3-20.9 20.8-20.9 11.6 0 20.9 9.4 20.9 20.9 0 11.5-9.3 20.9-20.9 20.9-11.5 0-20.8-9.4-20.8-20.9z"/>
			</g>
			<path id="&lt;Path&gt;" class="s7" d="m934 2231.1c0-11.5 9.3-20.9 20.8-20.9 11.6 0 20.9 9.4 20.9 20.9 0 11.5-9.3 20.9-20.9 20.9-11.5 0-20.8-9.4-20.8-20.9z"/>
			<g id="&lt;Group&gt;">
				<path id="&lt;Path&gt;" class="s6" d="m934 1929.6c0-11.6 9.3-20.9 20.8-20.9 11.6 0 20.9 9.3 20.9 20.9 0 11.5-9.3 20.8-20.9 20.8-11.5 0-20.8-9.3-20.8-20.8z"/>
			</g>
			<g id="&lt;Group&gt;">
				<path id="&lt;Path&gt;" class="s6" d="m934 1630.8c0-11.5 9.3-20.9 20.8-20.9 11.6 0 20.9 9.4 20.9 20.9 0 11.5-9.3 20.9-20.9 20.9-11.5 0-20.8-9.4-20.8-20.9z"/>
			</g>
			<path id="&lt;Path&gt;" class="s4" d="m1522.9 1929.7h-217.8"/>
			<path id="&lt;Path&gt;" class="s4" d="m1217.7 1929.7h-217.9"/>
			<path id="&lt;Path&gt;" class="s4" d="m909.8 1929.7h-217.8"/>
			<path id="&lt;Path&gt;" class="s4" d="m1522.9 2231.1h-217.8"/>
			<path id="&lt;Path&gt;" class="s4" d="m1217.7 2231.1h-217.9"/>
			<path id="&lt;Path&gt;" class="s4" d="m909.8 2231.1h-217.8"/>
		</g>
		<g id="&lt;Group&gt;">
			<g id="&lt;Group&gt;">
				<g id="&lt;Group&gt;">
					<path id="&lt;Path&gt;" class="s8" d="m2328.5 1723.8c-7.4-0.8-15.9-2.2-25.2-4.5-32.7-8.1-52.4-21.9-57.2-16.4-5.6 6.6 18.2 31.1 12.4 37.6-4.5 5.1-23.8-5.3-32.2-10.6-10.4-6.5-21.8-13.8-26.4-26.3l-14.9 3.2-7-34.8 38.1-5.9c14-5.2 37-10.5 63.3-3.1 30.9 8.6 49.2 30 58.9 45.4 4.5 7.1-1.4 16.4-9.8 15.4z"/>
					<path id="&lt;Path&gt;" class="s9" d="m2039.5 1277c4.8 24.8-14.4 37-15 74-0.6 39.3 20.4 72.1 40 95-7.8 5.8-122.7 89-235 39.1-12.6-5.6-82.2-36.5-95-101.1-15.8-79.9 63.4-169 149-181 68.2-9.6 147.3 28.8 156 74z"/>
					<g id="&lt;Group&gt;">
						<path id="&lt;Path&gt;" class="s10" d="m2172.3 1678.7c0 0-179.1 74.6-330 184.3-12.4-3-31.1-8.6-51.7-19.6l26.9 139.3c134.6-2.8 382.9-268.8 382.9-268.8z"/>
					</g>
					<g id="&lt;Group&gt;">
						<path id="&lt;Path&gt;" class="s11" d="m2253.3 2139.6l-288.1-195c-34.3 73.5-57.5 127.9-57.5 127.9l-79.8-15.5-192.2 292.4 90.2 88.3c37.6 36.8 88.3 56.9 140.9 55.7 112.9-2.6 298.1-55.9 386.5-353.8z"/>
					</g>
					<path id="&lt;Path&gt;" class="s8" d="m2568.5 2506.7c0 0-36.5 22.1-4.2 58.6l177 3.6c0.8-11-5.8-21.2-16.2-24.8l-107.7-37.7z"/>
					<path id="&lt;Path&gt;" class="s8" d="m1965.1 2043.1c0 0 138.1-421 368.5-271 0 0 58.1 32.6 97.2 147.5 39.1 114.9 205.3 644.3 205.3 644.3l-50.4-4.1c0 0-256.3-363.3-301.6-499.3l-41.5 165.9z"/>
					<path id="&lt;Path&gt;" class="s12" d="m2432.5 2501.9c0 0-36.7 21.7-4.8 58.5l176.9 5.5c1-10.9-5.6-21.1-15.9-24.9l-107.3-38.8z"/>
					<g id="&lt;Group&gt;">
						<path id="&lt;Path&gt;" class="s12" d="m2427 1918.4c-7.9-141.3-171.3-220.1-283.4-133.8-17.5 13.5-33.3 30.8-46.2 52.9-68.3 116.8-141.4 277.1-173 348.4h342.9c10.8-46.1 17.7-125.9 18.4-131.2 8.2 70.9 30 176.3 60.1 254.6 47.4 123.3 40.1 97.5 85 192.6l53.9 2.6z"/>
					</g>
					<g id="&lt;Group&gt;">
						<path id="&lt;Path&gt;" class="s13" d="m2024.5 2527c95.8-45.3 195.6-145.7 248.9-359.1-178.7-83.7-254.4-155.3-282.9-189.4-42.9 90.3-73.6 162.1-73.6 162.1l-79.7-15.5q-132.8 47.6-265.5 95.1c1.7 31.8 12.1 162.9 117.9 257.7 21.9 19.6 87.8 78.7 186.4 83.6 67.7 3.3 119-20.5 148.5-34.5z"/>
					</g>
					<g id="&lt;Group&gt;">
						<path id="&lt;Path&gt;" class="s14" d="m2570.4 1413.9l-168.8 318.5h-347.2"/>
					</g>
					<path id="&lt;Path&gt;" class="s12" d="m2257.8 1709.5c-2.5 3.6-10.5 2.5-26.5 0.2-33.3-4.8-49.7-7.2-60.6-1.6-5 2.6-10.3 5.9-10.3 5.9-7.1 4.4-13.6 2.3-17.1 4.2-4.2 2.4 2.2 13.1-7.8 12.6h-24.6l-11.9-36 23.5-13.8c4.5-4.9 31.3-23.3 64.6-23.9 25.6-0.5 50.1 11.7 63.2 29.5 1.3 1.8 12.1 16.5 7.5 22.9z"/>
					<g id="&lt;Group&gt;">
						<path id="&lt;Path&gt;" class="s15" d="m1844 1447.7c-40.3 43.9-81.4 96.1-119.2 157.7-149.1 243-161 492.2-155.6 629.8 41.4 1.4 102.9-1.4 173.5-22.7 68.8-20.7 120.6-51.2 154.1-74.5 19.8-36 176.1-377.5 33.5-618.9-19.7-33.3-42.5-34.7-86.3-71.4z"/>
					</g>
					<path id="&lt;Path&gt;" class="s16" d="m1834.3 1464.3c-3.5-3.5 43.8-81.3 43.8-81.3l70.6 32.9-24.8 98.1c0 0-42.4-3.2-89.6-49.7z"/>
					<path id="&lt;Path&gt;" class="s8" d="m1892 1427.2c10.2 29.7 42.4 37.2 44.4 37.6l12.3-48.9q-27.8-13.8-55.6-27.6c-2 5-7.3 20.9-1.1 38.9z"/>
					<path id="&lt;Path&gt;" class="s16" d="m1988 1266.3c3.9 2.4 33.9 20.9 44.2 56.6 13.6 47.4-10.5 115-58.8 124.8-46.2 9.3-94-38.5-102-87.2-7.1-43.2 15.5-96.2 54.7-107.1 27.4-7.7 53.7 8 61.9 12.9z"/>
					<g id="&lt;Group&gt;">
						<path id="&lt;Path&gt;" class="s9" d="m1967.5 1253c-21.3-11-37.2-26.1-48.9-41.4-3 2.6-6.3 5-10.3 7.3-29.9 17.2-47.4-0.6-75.5 14.4-30.6 16.3-54 66.7-35.9 107.6 21.4 48.3 91 62 110.2 43.2 15.8-15.5-10-45.9 7.6-71 18.9-27.1 58.6-6.2 96.3-34.8 3.3-2.5 6.6-5.4 9.8-8.6-18.7-2.8-37.2-8.4-53.3-16.7z"/>
					</g>
					<path id="&lt;Path&gt;" class="s16" d="m1920.8 1353c1.6-11.5-6.3-22-17.8-23.6-11.4-1.6-21.9 6.4-23.5 17.8-1.6 11.4 6.4 21.9 17.8 23.5 11.4 1.6 21.9-6.3 23.5-17.7z"/>
					<g id="&lt;Group&gt;">
						<path id="&lt;Path&gt;" class="s15" d="m1804.6 1547.1c0 0-110.4 46.6-71.4 170.2 38.9 123.5 98.5 306.5 172.4 370.6 73.8 64.1 250.5-358.3 250.5-358.3l-57.7-43.2c0 0-115.7 169.1-147.2 238.6-5.5-83.1-14.2-151.9-21.8-202.1-18.2-121-33.6-160.4-65.7-174.9-21.3-9.5-43.9-5.5-59.1-0.9z"/>
					</g>
					<path id="&lt;Path&gt;" class="s16" d="m1889.1 1361l-19.1 35.6 47.8-2.4 12.7-28.2z"/>
				</g>
				<g id="&lt;Group&gt;">
					<path id="&lt;Path&gt;" class="s17" d="m1740.4 1740.3c13.4 53.9 34.3 119.2 68 189.7 28.5 59.7 59.7 109.5 88.4 149.6"/>
				</g>
			</g>
			<g id="&lt;Group&gt;">
				<path id="&lt;Path&gt;" class="s18" d="m1942.4 1802l9.9 111.8 21.2-40.6"/>
			</g>
		</g>
		<path id="&lt;Path&gt;" class="s9" d="m1881.4 1169.8c0-34.7-28.1-62.8-62.8-62.8-34.7 0-62.8 28.1-62.8 62.8 0 34.8 28.1 62.9 62.8 62.9 34.7 0 62.8-28.1 62.8-62.9z"/>
		<path id="&lt;Path&gt;" class="s2" d="m1559.8 1100.5v-0.3c0-76.3-61.8-138.2-138.2-138.2-31.7 0-60.9 10.7-84.2 28.6-22-80.2-95.4-139.1-182.6-139.1h-12.5c-94.6 0-173 69.4-187.1 160-91.9 9.9-163.5 87.6-163.5 182.2 0 101.1 82.1 183.1 183.2 183.1h368.6v-0.5h202.5c76.3 0 138.2-61.9 138.2-138.2 0-71.7-54.5-130.6-124.4-137.6z"/>
		<path id="&lt;Path&gt;" class="s19" d="m1335.4 1210.4v39.2h-195.3v-39.2"/>
		<path id="&lt;Path&gt;" class="s19" d="m1185.2 1138.8l52.9 39.2 55.9-39.2"/>
		<path id="&lt;Path&gt;" class="s19" d="m1237.8 1174.8v-124.1"/>
		<g id="&lt;Group&gt;">
			<g id="&lt;Group&gt;">
				<path id="&lt;Path&gt;" class="s20" d="m2392.1 1295.8c-21.7-27.5-55.3-45.1-93-45.1-37.8 0-71.4 17.6-93.1 45.1"/>
				<path id="&lt;Path&gt;" class="s20" d="m2457 1229.6c-38.6-43.7-95.1-71.2-157.9-71.2-62.9 0-119.3 27.5-157.9 71.2"/>
				<path id="&lt;Path&gt;" class="s20" d="m2522.2 1163c-55.5-60.1-134.9-97.6-223.1-97.6-88.2 0-167.6 37.5-223.1 97.6"/>
			</g>
		</g>
		<path id="&lt;Path&gt;" class="s21" d="m2337 1362.1c0-20.9-17-37.9-37.9-37.9-21 0-37.9 17-37.9 37.9 0 21 16.9 37.9 37.9 37.9 20.9 0 37.9-16.9 37.9-37.9z"/>
		<g id="&lt;Group&gt;">
			<path id="&lt;Path&gt;" class="s22" d="m1683.3 2231.1h-475v-54.8h475z"/>
			<path id="&lt;Path&gt;" class="s22" d="m1361 2224.8h-216.3v-73.6c0-4.7 3.8-8.4 8.5-8.4h199.4c4.6 0 8.4 3.7 8.4 8.4z"/>
			<path id="&lt;Path&gt;" class="s23" d="m1665.7 2224.8h-502.7v-27.9h502.7z"/>
			<path id="&lt;Path&gt;" class="s24" d="m1677.5 2224.8h-502.8v-15.6h502.8z"/>
			<path id="&lt;Path&gt;" class="s25" d="m1683.3 2563.8h-538.6l-9.8-339h558.2z"/>
			<path id="&lt;Path&gt;" class="s22" d="m1520 2409c-58.3 74-127.4 122.7-193.2 154.8h356.5l9.8-339h-77.7c-17.1 56.7-46.1 121.5-95.4 184.2z"/>
		</g>
		<g id="&lt;Group&gt;">
			<path id="&lt;Path&gt;" class="s24" d="m283.6 2572.9h2339.6"/>
			<path id="&lt;Path&gt;" class="s26" d="m283.6 2572.9h2339.6"/>
		</g>
	</g>
</svg>