<?xml version="1.0" encoding="UTF-8" standalone="no"?>
<!-- Created with Inkscape (http://www.inkscape.org/) -->

<svg
   width="912.8125mm"
   height="582.08337mm"
   viewBox="0 0 912.8125 582.08337"
   version="1.1"
   id="svg1"
   xml:space="preserve"
   xmlns="http://www.w3.org/2000/svg"
   xmlns:svg="http://www.w3.org/2000/svg"><defs
     id="defs1"><linearGradient
       id="g1"
       x2="1"
       gradientUnits="userSpaceOnUse"
       gradientTransform="matrix(0,861.115,-1541.585,0,1475.598,1164.644)"><stop
         offset="0"
         stop-color="#ffffff"
         id="stop1" /><stop
         offset="1"
         stop-color="#8c92e5"
         id="stop2" /></linearGradient></defs><style
     id="style2">
		.s0 { fill: #8c92e5 } 
		.s1 { opacity: .2;fill: url(#g1) } 
		.s2 { fill: #ffffff } 
		.s3 { fill: #483193 } 
		.s4 { fill: #d9cdff } 
		.s5 { fill: #2a1968 } 
		.s6 { fill: #ea5942 } 
		.s7 { fill: #9b476f } 
		.s8 { fill: #ff6160 } 
		.s9 { fill: #ae253d } 
		.s10 { fill: #f8f9fb } 
		.s11 { fill: #e4e4e4 } 
		.s12 { fill: #9a466e } 
		.s13 { fill: #4c3a97 } 
		.s14 { fill: #ecdb7f } 
		.s15 { fill: #5a50ee } 
		.s16 { fill: #7768ff } 
		.s17 { fill: #cecef4 } 
		.s18 { fill: #383193 } 
		.s19 { fill: #e7b4ff } 
		.s20 { fill: #483492 } 
		.s21 { fill: #b1bbf2 } 
	</style><g
     id="g2"
     transform="matrix(0.26458333,0,0,0.26458333,-1.5542261e-5,4.6231087e-8)"><g
       id="_Artboards_" /><g
       id="Layer 1"><g
         id="&lt;Group&gt;"><path
           id="&lt;Path&gt;"
           class="s0"
           d="M 321.71524,2200 H 3128.2848 A 321.71524,321.71524 135 0 0 3450,1878.2848 V 321.71524 A 321.71524,321.71524 45 0 0 3128.2848,0 H 321.71524 A 321.71524,321.71524 135 0 0 0,321.71524 V 1878.2848 A 321.71524,321.71524 45 0 0 321.71524,2200 Z" /></g><path
         id="path2"
         class="s1"
         d="m 1006.6,1927.4 c 64.8,-56.5 85.3,-148.6 50.4,-227.2 h 0.1 c -47.6,-107 -6.1,-234.4 98.4,-291.8 96.3,-53.1 214.3,-29 283,51.6 108.1,124.1 310.9,81.3 359.3,-76.4 l 0.1,0.2 c 24.2,-79.1 78,-149.2 156.2,-192.2 159.6,-87.9 360.2,-29.7 448,129.9 61.8,112.3 51.3,244.8 -15.9,344.1 h 0.1 c -54.1,79.8 -42.1,187.1 28.3,253.1 24.9,23.2 46.6,50.6 63.9,82.1 q 1.9,3.5 3.8,7 H 947.7 c 13.3,-30.3 33.1,-57.9 58.9,-80.4 z"
         style="fill:url(#g1)" /><g
         id="g3"><path
           id="path3"
           class="s2"
           d="m 1824.8,513.1 c 0,-40.1 -32.4,-72.5 -72.5,-72.5 -4.7,0 -9.3,0.4 -13.8,1.3 -4.4,-16.8 -19.7,-29.2 -38,-29.2 -9.2,0 -17.7,3.2 -24.4,8.5 -18.8,-25 -48.7,-41.1 -82.4,-41.1 -43.7,0 -81,27.2 -96,65.6 -7.1,-1.6 -14.6,-2.4 -22.2,-2.4 -33.4,0 -62.9,15.8 -81.7,40.4 -7.9,-4.4 -16.9,-6.9 -26.4,-6.9 -30.1,0 -54.5,24.4 -54.5,54.5 0,30 24.4,54.4 54.5,54.4 q 0.1,0 0.2,0 h 384.5 q 0.1,0 0.2,0 c 40.1,0 72.5,-32.5 72.5,-72.6 z" /></g><g
         id="g14"><g
           id="g13"><g
             id="g4"><path
               id="path4"
               class="s3"
               d="m 1769.4,449.3 c 4.8,5.3 6.2,11.9 2.9,14.9 -3.2,2.9 -9.7,1 -14.5,-4.3 -4.8,-5.3 -6.1,-12 -2.9,-14.9 3.2,-2.9 9.7,-1 14.5,4.3 z" /></g><g
             id="g5"><path
               id="path5"
               class="s3"
               d="m 1786,425.9 c 3.5,6.5 3.1,13.4 -0.7,15.4 -3.8,2.1 -9.7,-1.6 -13.2,-8 -3.4,-6.5 -3.1,-13.5 0.8,-15.5 3.8,-2 9.7,1.6 13.1,8.1 z" /></g><g
             id="g6"><path
               id="path6"
               class="s3"
               d="m 1791.5,419.7 c -3,4.4 -7.6,6.5 -10.2,4.7 -2.7,-1.8 -2.3,-6.9 0.8,-11.3 3.1,-4.4 7.7,-6.5 10.3,-4.7 2.6,1.8 2.2,6.9 -0.9,11.3 z" /></g><g
             id="g7"><path
               id="path7"
               class="s3"
               d="m 1800.3,448.4 c -5.3,8.1 -13.3,12.3 -18,9.3 -4.6,-3.1 -4.1,-12.1 1.2,-20.3 5.3,-8.1 13.4,-12.2 18,-9.2 4.7,3 4.2,12.1 -1.2,20.2 z" /></g><g
             id="g8"><path
               id="path8"
               class="s3"
               d="m 1768.4,419.9 c 4.7,0.7 8.2,3.5 7.8,6.3 -0.4,2.8 -4.5,4.5 -9.2,3.8 -4.7,-0.6 -8.3,-3.4 -7.9,-6.2 0.4,-2.8 4.6,-4.5 9.3,-3.9 z" /></g><g
             id="g9"><path
               id="path9"
               class="s3"
               d="m 1795.6,472.2 c 0,13.4 -6.7,24.4 -14.9,24.4 -8.2,0 -14.8,-11 -14.8,-24.4 0,-13.5 6.6,-24.5 14.8,-24.5 8.2,0 14.9,11 14.9,24.5 z" /></g><g
             id="g10"><path
               id="path10"
               class="s3"
               d="m 1762.9,480.2 c 0,5.2 -2.5,9.4 -5.6,9.4 -3.1,0 -5.6,-4.2 -5.6,-9.4 0,-5.2 2.5,-9.4 5.6,-9.4 3.1,0 5.6,4.2 5.6,9.4 z" /></g><g
             id="g11"><path
               id="path11"
               class="s3"
               d="m 1751.1,473.9 c 2.4,1.7 3.5,4.2 2.5,5.7 -1.1,1.4 -3.8,1.1 -6.2,-0.6 -2.3,-1.7 -3.4,-4.3 -2.4,-5.7 1,-1.4 3.8,-1.1 6.1,0.6 z" /></g><g
             id="g12"><path
               id="path12"
               class="s4"
               d="m 1797.1,485.7 h -22 -6.5 -22.1 c 0,0 -0.4,9.9 1.2,14 0,0 7.3,16.9 7.5,29 h 16.2 0.9 16.2 c 0.2,-12.1 7.5,-29 7.5,-29 1.6,-4.1 1.1,-14 1.1,-14 z" /></g></g></g><g
         id="g15"><path
           id="path14"
           class="s4"
           d="m 857.6,954.8 -7.5,40.2 133.6,-60.6 -4.5,-12.8 z" /></g><g
         id="g16"><path
           id="path15"
           class="s3"
           d="m 1051.4,1303.2 c -0.4,-7.1 3.5,-12.3 4.2,-13.2 h 10 c 0,0 12.6,7 16.8,9.2 q 2.5,-0.4 5,-0.8 c 0.2,0 0.3,-0.1 0.5,-0.1 1.3,0 2.4,1.1 2.4,2.5 0,1.3 -1.1,2.4 -2.4,2.4 q -0.1,0 -0.1,0 -2.6,0 -5.2,0 0,0 -0.1,0 0,0 -0.1,0 z" /></g><g
         id="g17"><path
           id="path16"
           class="s5"
           d="m 962.8,1361.3 c -0.3,-7.2 3.6,-12.3 4.3,-13.2 h 10 c 0,0 12.6,6.9 16.8,9.2 q 2.5,-0.4 5,-0.8 c 0.1,0 0.3,-0.1 0.4,-0.1 1.4,0 2.5,1.1 2.5,2.5 0,1.3 -1.1,2.4 -2.5,2.4 q 0,0 0,0 -2.6,-0.1 -5.3,0 0,0 0,0 -0.1,0 -0.1,0 z" /></g><g
         id="g18"><path
           id="path17"
           class="s2"
           d="m 1015.9,1186.9 c 0,-60.3 -48.9,-109.1 -109.2,-109.1 -19.1,0 -37.1,4.9 -52.7,13.6 -8.1,-47.9 -49.7,-84.4 -99.9,-84.4 -28.5,0 -54.2,11.7 -72.6,30.5 C 654.4,976.9 593.7,934.6 523,934.6 c -85.5,0 -156.5,61.8 -171,143.2 q -0.2,0 -0.5,0 c -60.3,0 -109.2,48.8 -109.2,109.1 0,60.3 48.9,109.1 109.2,109.1 h 555.2 c 60.3,0 109.2,-48.8 109.2,-109.1 z" /></g><g
         id="g19"><path
           id="path18"
           class="s3"
           d="m 861.4,750.2 -5.4,30.6 c -2.3,12.9 1.7,26.1 10.8,35.5 l 1.4,1.5 17.5,-47.6 z" /></g><g
         id="g20"><path
           id="path19"
           class="s3"
           d="m 925.9,746.9 8.5,33.5 c 0.9,3.4 0.2,7 -1.8,9.9 -2,2.8 -5.1,4.6 -8.6,5 l -5.2,0.4 -5.5,-35.8 z" /></g><g
         id="g21"><path
           id="path20"
           class="s6"
           d="m 915.6,771.4 -6.3,36.6 -2.6,6.7 -8.7,22.5 -3.6,9.4 -37.6,-17.7 16,-38.5 9,-36.5 z" /></g><g
         id="g22"><path
           id="path21"
           class="s2"
           d="m 847.3,830.4 9.9,-9.5 40.7,24.1 -24.4,125.1 -8,41.3 -15.9,81.7 -118.8,-26.2 50.4,-189.4 c 2.5,-9.2 8.6,-16.9 17.1,-21.4 z" /></g><g
         id="g23"><path
           id="path22"
           class="s5"
           d="m 731.2,1067.6 q -0.1,0 -0.2,0 c -0.3,-0.1 -0.6,-0.5 -0.5,-0.9 l 21.8,-82.8 c 0.1,-0.3 0.5,-0.6 0.9,-0.5 0.3,0.1 0.6,0.5 0.5,0.9 l -21.8,82.8 c -0.1,0.3 -0.4,0.5 -0.7,0.5 z" /></g><g
         id="g24"><path
           id="path23"
           class="s7"
           d="m 897.9,845 6,23.3 -11.9,6.8 z" /></g><g
         id="g25"><path
           id="path24"
           class="s7"
           d="m 898.2,867.8 5.4,202.2 h -33 l 22,-200.2 z" /></g><g
         id="g26"><path
           id="path25"
           class="s3"
           d="m 870.2,739 c 15.9,-11.4 34.7,-12.5 50.2,0.4 2.4,2 4.3,4.6 5.5,7.5 1.5,3.8 2.2,9.1 -1.4,14.5 l -24.2,-3.2 -9.6,-1.2 c 0.1,0.3 0.3,0.6 0.4,0.9 1.4,5.9 0.3,11.8 -2.6,16.3 -2.2,-1 -4.8,-0.9 -6.9,0.5 -1.9,1.2 -4,3.5 -3.6,7.4 q -0.4,0.1 -0.8,0.2 c -5.2,1.3 -10.5,0.1 -14.8,-2.8 -4.2,-2.7 -7.4,-7.2 -8.7,-12.5 -1.9,-8.1 1.1,-16.6 7.8,-21.6 3,-2.2 5.8,-4.4 8.7,-6.4 z" /></g><g
         id="g29"><g
           id="g27" /><g
           id="g28"><path
             id="path27"
             class="s6"
             d="m 924.1,796.7 -13.4,0.2 c -2.9,0.2 -5.7,-0.8 -7.8,-2.7 -2.1,-1.9 -3.4,-4.6 -3.6,-7.4 0,-0.2 0,-0.3 0,-0.5 0,-0.2 0,-0.3 0,-0.5 0,0 -0.6,-6.8 5.2,-13.3 0,0 4.3,-3.8 1.3,-9 q -0.5,-1 -1.4,-1.9 -1.9,-1.9 -4.1,-3.4 l 21.6,2.9 3.5,22.6 3.1,10.3 c 0.1,0.7 0,1.4 -0.4,1.9 -0.4,0.5 -1,0.8 -1.7,0.8 z" /></g></g><g
         id="g30"><path
           id="path29"
           class="s9"
           d="m 906.7,814.7 -8.7,22.5 c -13.8,-8 -5.8,-25.8 -5.8,-25.8 z" /></g><g
         id="g31"><path
           id="path30"
           class="s3"
           d="m 862.4,779.5 q -0.3,-0.5 -0.6,-1 l -2.9,-4.8 c -3.3,-9.5 1.6,-14.2 4.2,-15.9 11.5,-7.6 26.2,-7.2 37.2,0.4 q 2.2,1.5 4.1,3.4 c 0.6,0.6 1.1,1.2 1.4,1.9 3,5.2 -1.3,9 -1.3,9 -5.8,6.5 -5.2,13.3 -5.2,13.3 0,0.2 0,0.3 0,0.5 0,0.2 0,0.3 0,0.5 0.2,2.8 1.5,5.5 3.6,7.4 2.1,1.9 4.9,2.9 7.8,2.7 l 13.4,-0.2 -0.6,9.9 0.7,9.5 c -0.3,4.6 -3,8.7 -7,10.9 -9.3,5 -25.7,-4 -25,-14.8 l 0.8,-19.1 c 0,-0.2 0,-0.3 0,-0.5 l 0.4,-9.5 c 0.1,-1.6 -0.2,-3.1 -0.8,-4.4 -0.4,-0.8 -0.8,-1.7 -1.5,-2.4 -0.7,-1 -1.6,-1.7 -2.6,-2.1 -2.2,-1 -4.8,-0.9 -6.9,0.5 -1.9,1.2 -4,3.5 -3.6,7.4 0.1,1.1 0.4,2.4 1,3.8 0,0 0.6,1.6 1.7,3.5 l -16.1,17.2 c -2.6,-4.4 0.7,-16 -0.1,-21 -0.3,-2 -0.8,-3.8 -2.1,-6.1 z" /></g><g
         id="g32"><path
           id="path31"
           class="s3"
           d="m 1067.8,1292.6 -18.3,1.7 -65.7,-229 -174.7,73.8 c -21.1,7.9 -44.8,3.2 -61.3,-12 -6.1,-5.6 -10.8,-12.2 -14,-19.4 -5.7,-12.6 -6.9,-26.9 -3.1,-40.7 l 0.1,-0.1 19.1,4.2 42.5,-14.6 214.1,-73.5 c 6.1,-2.1 12.9,-1.1 18.2,2.7 5.3,3.8 8.4,10 8.3,16.5 z" /></g><g
         id="g33"><path
           id="path32"
           class="s5"
           d="m 792.4,1056.5 -58.6,51.2 c -5.7,-12.6 -6.9,-27 -3.1,-40.7 l 0.1,-0.1 19.1,4.2 z" /></g><g
         id="g34"><path
           id="path33"
           class="s5"
           d="m 964.1,1052.9 c -8.8,0 -17.2,3.7 -23.1,10.2 -5.9,6.6 -8.7,15.3 -7.8,24.1 l 27.8,264.6 h 17.6 L 996.3,1086 c 0.6,-8.6 -2.4,-17 -8.3,-23.3 -5.9,-6.3 -14.1,-9.8 -22.7,-9.8 z" /></g><g
         id="g35"><path
           id="path34"
           class="s5"
           d="m 951.1,1180.2 -10.6,-59.7 -143.7,21.8 154.5,-86.8 c 0,0 34,47.6 28.2,91.9 z" /></g><g
         id="g36"><path
           id="path35"
           class="s2"
           d="m 837,1163.1 c 0,41.6 -33.8,75.4 -75.4,75.4 -41.7,0 -75.4,-33.8 -75.4,-75.4 0,-41.7 33.7,-75.4 75.4,-75.4 41.6,0 75.4,33.7 75.4,75.4 z" /></g><g
         id="g54"><g
           id="g43"><g
             id="g37"><path
               id="path36"
               class="s2"
               d="m 860.3,1075.2 c 0,2.2 -1.7,3.9 -3.9,3.9 -2.1,0 -3.9,-1.7 -3.9,-3.9 0,-2.1 1.8,-3.9 3.9,-3.9 2.2,0 3.9,1.8 3.9,3.9 z" /></g><g
             id="g38"><path
               id="path37"
               class="s2"
               d="m 863,1071.4 c 0,1.7 -1.4,3 -3.1,3 -1.7,0 -3,-1.3 -3,-3 0,-1.7 1.3,-3 3,-3 1.7,0 3.1,1.3 3.1,3 z" /></g><g
             id="g39"><path
               id="path38"
               class="s2"
               d="m 868.2,1061.2 c 0,5.1 -4.1,9.2 -9.1,9.2 -5.1,0 -9.2,-4.1 -9.2,-9.2 0,-5.1 4.1,-9.2 9.2,-9.2 5,0 9.1,4.1 9.1,9.2 z" /></g><g
             id="g40"><path
               id="path39"
               class="s2"
               d="m 849.7,1050.9 c 0,1.6 -1.3,2.8 -2.9,2.8 -1.5,0 -2.8,-1.2 -2.8,-2.8 0,-1.6 1.3,-2.9 2.8,-2.9 1.6,0 2.9,1.3 2.9,2.9 z" /></g><g
             id="g41"><path
               id="path40"
               class="s2"
               d="m 867.9,1075.9 c 0,1 -0.8,1.8 -1.8,1.8 -0.9,0 -1.7,-0.8 -1.7,-1.8 0,-1 0.8,-1.8 1.7,-1.8 1,0 1.8,0.8 1.8,1.8 z" /></g><g
             id="g42"><path
               id="path41"
               class="s2"
               d="m 869.2,1049.9 c 0,2.6 -2.1,4.7 -4.8,4.7 -2.6,0 -4.7,-2.1 -4.7,-4.7 0,-2.7 2.1,-4.8 4.7,-4.8 2.7,0 4.8,2.1 4.8,4.8 z" /></g></g><g
           id="g53"><g
             id="g47"><g
               id="g44"><path
                 id="path43"
                 class="s10"
                 d="m 856.6,1137.2 c 0,0.1 -0.1,0.2 -0.2,0.2 H 834 c -0.2,0 -0.3,-0.1 -0.3,-0.2 v -2.5 h 22.9 z" /></g><g
               id="g45"><path
                 id="path44"
                 class="s10"
                 d="m 862.6,1090.5 v 0.6 l -1.7,13.6 -2.3,18.8 -1.6,12.6 c 0,0.2 -0.2,0.3 -0.3,0.3 h -23.1 c -0.1,0 -0.3,-0.1 -0.3,-0.3 l -1.6,-12.6 -2.3,-18.8 -1.7,-13.6 v -0.6 z" /></g><g
               id="g46"
               style="mix-blend-mode:multiply"><path
                 id="path45"
                 class="s11"
                 d="m 862.6,1091.1 -1.7,13.6" /></g></g><g
             id="g48"><path
               id="path47"
               class="s8"
               d="m 860.9,1104.7 -2.3,18.8 h -26.9 l -2.3,-18.8 z" /></g><g
             id="g49"><path
               id="path48"
               class="s8"
               d="m 854.8,1107.1 c 0,5.4 -4.3,9.7 -9.7,9.7 -5.3,0 -9.6,-4.3 -9.6,-9.7 0,-5.3 4.3,-9.6 9.6,-9.6 5.4,0 9.7,4.3 9.7,9.6 z" /></g><g
             id="g50"><path
               id="path49"
               class="s2"
               d="m 851.4,1107.1 c 0,3.5 -2.8,6.3 -6.3,6.3 -3.4,0 -6.2,-2.8 -6.2,-6.3 0,-3.4 2.8,-6.2 6.2,-6.2 3.5,0 6.3,2.8 6.3,6.2 z" /></g><g
             id="g51"><path
               id="path50"
               class="s5"
               d="m 861.3,1084.1 -0.3,-1.4 c -0.1,-0.3 -0.3,-0.4 -0.5,-0.4 h -1.1 c -0.1,-0.3 -0.3,-0.4 -0.5,-0.4 H 856 c -0.2,0 -0.4,0.1 -0.5,0.4 h -2.1 q -1.4,0 -2.8,0.3 l -1.6,0.3 q -1.2,0.3 -2.5,0.3 h -17.1 c -0.2,0 -0.5,0.2 -0.5,0.5 l -0.2,0.8 -0.5,3.6 33.9,-0.3 z" /></g><g
             id="g52"><path
               id="path51"
               class="s5"
               d="m 864.3,1090.7 v 0.4 H 826 v -0.4 c 0,-0.2 0.1,-0.4 0.3,-0.4 v -2.5 c 0,-0.3 0.3,-0.5 0.6,-0.5 h 36.5 c 0.3,0 0.6,0.2 0.6,0.5 v 2.5 c 0.2,0 0.3,0.2 0.3,0.4 z" /></g></g></g><g
         id="g55"><path
           id="path54"
           class="s4"
           d="m 840.6,867.7 v 149.8 l -26.5,-4.3 z" /></g><g
         id="g61"><g
           id="g56"><path
             id="path55"
             class="s2"
             d="m 823.1,1010.6 23.9,-178 -58.8,41.5 -8.7,167.2 c -0.3,4.1 1.6,8.1 5,10.5 3.3,2.5 7.6,3.1 11.5,1.6 l 134.4,-51.8 -3.3,-12.4 z" /></g><g
           id="g57"><path
             id="path56"
             class="s5"
             d="m 782.8,972 q -0.1,0 -0.1,0 c -0.4,0 -0.7,-0.4 -0.7,-0.8 l 4.4,-80.2 c 0,-0.3 -0.3,-31.4 27.6,-34.6 0.4,-0.1 0.7,0.2 0.8,0.6 0,0.4 -0.2,0.7 -0.6,0.8 -11.2,1.3 -19,7.2 -23.3,17.7 -3.2,7.8 -3.1,15.5 -3.1,15.5 l -4.3,80.3 c -0.1,0.4 -0.4,0.7 -0.7,0.7 z" /></g><g
           id="g58"><path
             id="path57"
             class="s5"
             d="m 781.9,993.7 q 0,0 0,0 c -0.4,0 -0.7,-0.4 -0.7,-0.8 l 0.7,-13.7 c 0,-0.4 0.4,-0.7 0.8,-0.7 0.4,0 0.7,0.3 0.6,0.7 l -0.7,13.8 c 0,0.4 -0.3,0.7 -0.7,0.7 z" /></g><g
           id="g59"><path
             id="path58"
             class="s5"
             d="m 791.7,1054.9 c -2.7,0 -5.4,-0.9 -7.7,-2.5 -3.5,-2.6 -5.5,-6.7 -5.3,-11.1 l 2.3,-39.8 c 0,-0.4 0.3,-0.7 0.7,-0.7 0.4,0.1 0.7,0.4 0.7,0.8 l -2.2,39.8 c -0.2,3.8 1.5,7.5 4.7,9.8 3.1,2.4 7.2,2.9 10.8,1.5 l 116.7,-45 c 0.4,-0.1 0.8,0.1 0.9,0.4 0.2,0.4 0,0.8 -0.4,1 l -116.7,45 c -1.4,0.5 -3,0.8 -4.5,0.8 z" /></g><g
           id="g60"><path
             id="path59"
             class="s6"
             d="m 997.9,982.1 c 0,0 -2.5,-0.8 -7.1,0.8 l -9.9,2.6 c 0,0 -2.2,-2.6 -9.8,-1.6 -7.5,1 -8.6,0.9 -16.8,-0.7 -2.8,-0.5 -5.2,-1 -7.4,-1.2 -5.1,-0.6 -9.9,1.7 -12.8,5.8 l -7,1.4 3.3,12.4 6.9,-2.7 19.2,-1.4 c 0,0 2.9,0.5 5.8,-0.9 L 995,985.4 c 0,0 5,-1.6 2.9,-3.3 z" /></g></g><g
         id="g70"><g
           id="g62"><path
             id="path61"
             class="s2"
             d="M 627.8,1480.3 H 625 v -280.5 h 2.8 z" /></g><g
           id="g65"><g
             id="g63"><path
               id="path62"
               class="s2"
               d="m 522.6,1397.5 h -44.9 v -2.9 h 44.9 c 18.3,0 33.2,-14.8 33.2,-33.1 v -122.1 h 2.8 v 122.1 c 0,19.8 -16.1,36 -36,36 z" /></g><g
             id="g64"><path
               id="&lt;Compound Path&gt;"
               fill-rule="evenodd"
               class="s2"
               d="m 465.1,1410.1 c -7.7,0 -14,-6.3 -14,-14.1 0,-7.7 6.3,-14 14,-14 7.8,0 14.1,6.3 14.1,14 0,7.8 -6.3,14.1 -14.1,14.1 z m 0,-25.2 c -6.1,0 -11.1,5 -11.1,11.1 0,6.2 5,11.2 11.1,11.2 6.2,0 11.2,-5 11.2,-11.2 0,-6.1 -5,-11.1 -11.2,-11.1 z" /></g></g><g
           id="g68"><g
             id="g66"><path
               id="path65"
               class="s2"
               d="m 775,1397.5 h -44.9 c -19.8,0 -35.9,-16.2 -35.9,-36 v -122.1 h 2.8 v 122.1 c 0,18.3 14.9,33.1 33.1,33.1 H 775 Z" /></g><g
             id="g67"><path
               id="path66"
               fill-rule="evenodd"
               class="s2"
               d="m 787.6,1410.1 c -7.7,0 -14,-6.3 -14,-14.1 0,-7.7 6.3,-14 14,-14 7.8,0 14.1,6.3 14.1,14 0,7.8 -6.3,14.1 -14.1,14.1 z m 0,-25.2 c -6.1,0 -11.1,5 -11.1,11.1 0,6.2 5,11.2 11.1,11.2 6.2,0 11.2,-5 11.2,-11.2 0,-6.1 -5,-11.1 -11.2,-11.1 z" /></g></g><g
           id="g69"><path
             id="path68"
             fill-rule="evenodd"
             class="s2"
             d="m 626.4,1506.9 c -7.7,0 -14,-6.3 -14,-14 0,-7.8 6.3,-14 14,-14 7.7,0 14,6.2 14,14 0,7.7 -6.3,14 -14,14 z m 0,-25.2 c -6.2,0 -11.2,5 -11.2,11.2 0,6.1 5,11.2 11.2,11.2 6.2,0 11.2,-5.1 11.2,-11.2 0,-6.2 -5,-11.2 -11.2,-11.2 z" /></g></g><g
         id="g79"><g
           id="g71"><path
             id="path70"
             class="s2"
             d="m 1566.4,726.7 h -2.9 V 520.9 h 2.9 z" /></g><g
           id="g74"><g
             id="g72"><path
               id="path71"
               class="s2"
               d="m 1488.8,1043.4 h -83.4 v -2.9 h 83.4 c 13.2,0 23.9,-10.7 23.9,-23.9 V 550 h 2.9 v 466.6 c 0,14.8 -12,26.8 -26.8,26.8 z" /></g><g
             id="g73"><path
               id="path72"
               fill-rule="evenodd"
               class="s2"
               d="m 1396.2,1052.6 c -5.9,0 -10.7,-4.8 -10.7,-10.6 0,-5.9 4.8,-10.7 10.7,-10.7 5.8,0 10.6,4.8 10.6,10.7 0,5.8 -4.8,10.6 -10.6,10.6 z m 0,-18.5 c -4.4,0 -7.9,3.5 -7.9,7.9 0,4.3 3.5,7.8 7.9,7.8 4.3,0 7.8,-3.5 7.8,-7.8 0,-4.4 -3.5,-7.9 -7.8,-7.9 z" /></g></g><g
           id="g77"><g
             id="g75"><path
               id="path74"
               class="s2"
               d="m 1877.6,881.6 h -236.5 c -14.8,0 -26.8,-12 -26.8,-26.8 V 550 h 2.8 v 304.8 c 0,13.2 10.8,23.9 24,23.9 h 236.5 z" /></g><g
             id="g76"><path
               id="path75"
               fill-rule="evenodd"
               class="s2"
               d="m 1886.9,890.8 c -5.9,0 -10.7,-4.8 -10.7,-10.7 0,-5.8 4.8,-10.6 10.7,-10.6 5.8,0 10.6,4.8 10.6,10.6 0,5.9 -4.8,10.7 -10.6,10.7 z m 0,-18.5 c -4.4,0 -7.9,3.5 -7.9,7.8 0,4.4 3.5,7.9 7.9,7.9 4.3,0 7.8,-3.5 7.8,-7.9 0,-4.3 -3.5,-7.8 -7.8,-7.8 z" /></g></g><g
           id="g78"><path
             id="path77"
             fill-rule="evenodd"
             class="s2"
             d="m 1564.9,746.6 c -5.8,0 -10.6,-4.8 -10.6,-10.6 0,-5.9 4.8,-10.7 10.6,-10.7 5.9,0 10.7,4.8 10.7,10.7 0,5.8 -4.8,10.6 -10.7,10.6 z m 0,-18.5 c -4.3,0 -7.8,3.5 -7.8,7.9 0,4.3 3.5,7.8 7.8,7.8 4.4,0 7.9,-3.5 7.9,-7.8 0,-4.4 -3.5,-7.9 -7.9,-7.9 z" /></g></g><g
         id="g88"><g
           id="g80"><path
             id="path79"
             class="s2"
             d="m 2868.4,1438.8 h -2.8 v -372.6 h 2.8 z" /></g><g
           id="g83"><g
             id="g81"><path
               id="path80"
               class="s2"
               d="m 2760.2,1649.4 h -199.9 v -2.8 h 199.9 c 18.8,0 34.1,-15.4 34.1,-34.2 V 1107 h 2.9 v 505.4 c 0,20.4 -16.6,37 -37,37 z" /></g><g
             id="g82"><path
               id="path81"
               fill-rule="evenodd"
               class="s2"
               d="m 2547.3,1662.4 c -7.9,0 -14.4,-6.5 -14.4,-14.4 0,-8 6.5,-14.4 14.4,-14.4 7.9,0 14.4,6.4 14.4,14.4 0,7.9 -6.5,14.4 -14.4,14.4 z m 0,-26 c -6.4,0 -11.6,5.2 -11.6,11.6 0,6.3 5.2,11.5 11.6,11.5 6.4,0 11.6,-5.2 11.6,-11.5 0,-6.4 -5.2,-11.6 -11.6,-11.6 z" /></g></g><g
           id="g86"><g
             id="g84"><path
               id="path83"
               class="s2"
               d="m 3020.1,1332 h -46.3 c -20.4,0 -37,-16.6 -37,-37 v -188 h 2.9 v 188 c 0,18.8 15.3,34.1 34.1,34.1 h 46.3 z" /></g><g
             id="g85"><path
               id="path84"
               fill-rule="evenodd"
               class="s2"
               d="m 3033,1344.9 c -7.9,0 -14.4,-6.4 -14.4,-14.4 0,-7.9 6.5,-14.4 14.4,-14.4 8,0 14.4,6.5 14.4,14.4 0,8 -6.4,14.4 -14.4,14.4 z m 0,-25.9 c -6.3,0 -11.5,5.2 -11.5,11.5 0,6.4 5.2,11.6 11.5,11.6 6.4,0 11.6,-5.2 11.6,-11.6 0,-6.3 -5.2,-11.5 -11.6,-11.5 z" /></g></g><g
           id="g87"><path
             id="path86"
             fill-rule="evenodd"
             class="s2"
             d="m 2867,1466.1 c -7.9,0 -14.4,-6.4 -14.4,-14.4 0,-7.9 6.5,-14.4 14.4,-14.4 7.9,0 14.4,6.5 14.4,14.4 0,8 -6.5,14.4 -14.4,14.4 z m 0,-25.9 c -6.4,0 -11.5,5.2 -11.5,11.5 0,6.4 5.1,11.6 11.5,11.6 6.4,0 11.6,-5.2 11.6,-11.6 0,-6.3 -5.2,-11.5 -11.6,-11.5 z" /></g></g><g
         id="g92"><g
           id="g89"><path
             id="path88"
             class="s3"
             d="m 905.5,976.7 c 0,2.9 2.3,5.3 5.2,5.3 h 134.5 c 2.9,0 5.2,-2.4 5.2,-5.3 0,-2.9 -2.3,-5.2 -5.2,-5.2 H 910.7 c -5.2,0 -5.2,5.2 -5.2,5.2 z" /></g><g
           id="g90"><path
             id="path89"
             class="s3"
             d="m 939.5,982 h 150.1 c 4.9,0 9.2,-3.6 10.1,-8.4 l 16.7,-90.3 c 0.5,-3 -0.3,-6.1 -2.2,-8.4 -2,-2.4 -4.8,-3.7 -7.9,-3.7 H 968.5 c -4.9,0 -9.2,3.5 -10.1,8.4 z" /></g><g
           id="g91"><path
             id="path90"
             class="s2"
             d="m 1013.7,924.5 c -1.5,8 3.7,14.4 11.7,14.4 7.9,0 15.5,-6.4 17,-14.4 1.4,-7.9 -3.8,-14.3 -11.7,-14.3 -8,0 -15.6,6.4 -17,14.3 z" /></g></g><g
         id="g93"><path
           id="path92"
           class="s2"
           d="m 1531.4,505.8 c 0,39.4 -32,71.4 -71.5,71.4 -39.4,0 -71.4,-32 -71.4,-71.4 0,-39.5 32,-71.5 71.4,-71.5 39.5,0 71.5,32 71.5,71.5 z" /></g><g
         id="g94"><path
           id="path93"
           class="s6"
           d="m 1564,238.5 0.4,10.5 0.4,10.3 0.2,4 28.2,-7.2 -1.6,-5.8 v -22.8 l -6.7,-8.4 -16.6,-10.1 z" /></g><g
         id="g95"><path
           id="path94"
           class="s2"
           d="m 1551.4,353 13.6,-89.7 28.2,-7.2 2,5.9 38.7,28.6 -3.7,66.9 -0.1,0.8 -4.5,87.4 -81.9,-9.4 7.6,-83.2 z" /></g><g
         id="g96"><path
           id="path95"
           class="s12"
           d="m 1565,263.3 -7.7,13.1 4.7,6.4 z" /></g><g
         id="g97"><path
           id="path96"
           class="s12"
           d="m 1559.9,274.8 -29.1,139.7 22.1,2.3 9.6,-140.8 z" /></g><g
         id="g98"><path
           id="path97"
           class="s9"
           d="m 1564.4,249 0.4,10.3 c 7.2,-2.4 5.9,-14 5.9,-14 z" /></g><g
         id="g99"><path
           id="path98"
           class="s5"
           d="m 1581.4,490 -327.6,13.5 -0.4,-11.1 317.5,-62.5 z" /></g><g
         id="g100"><path
           id="path99"
           class="s13"
           d="m 1590.5,441.6 35.1,4.1 0.1,4.3 q 0.1,3.4 -0.3,6.7 c -2.2,15.6 -13.7,28.7 -29.5,32.3 q 0,0 -0.1,0 c -20.3,4.6 -41.5,-3.6 -53.5,-20.7 l -54.5,-62.4 -96,87.9 -9.7,-9.5 95.1,-125.5 c 3.1,-4.1 7.8,-6.7 12.9,-7 5.1,-0.4 10.2,1.4 13.8,5 z" /></g><g
         id="g101"><path
           id="path100"
           class="s13"
           d="m 1394.9,497.9 c 0.1,-5.4 -3,-9.1 -3.6,-9.8 l -5.6,-1.7 c 0,0 -11.1,7.6 -14.2,9.4 q -1.9,-0.2 -3.8,-0.5 v 0.1 c -0.1,0 -0.2,-0.1 -0.3,-0.1 -1,0.1 -1.8,0.9 -1.8,1.9 0.1,1 0.9,1.8 1.9,1.8 q 0,0 0.1,0 1.9,-0.1 3.9,-0.2 0,0 0,0 0.1,0 0.1,0 z" /></g><g
         id="g102"><path
           id="path101"
           class="s5"
           d="m 1244.8,503.8 c 5.4,0.1 9.2,-3 9.8,-3.6 l -0.3,-7.4 c 0,0 -5.6,-9.3 -7.4,-12.4 q 0.2,-1.9 0.5,-3.8 c 0,-0.1 0,-0.2 0,-0.3 0,-1 -0.9,-1.8 -1.9,-1.8 -1,0.1 -1.8,0.9 -1.7,1.9 q 0,0 0,0.1 0.1,1.9 0.1,3.9 0,0 0,0 0,0.1 0,0.1 z" /></g><g
         id="g109"><g
           id="g108"><g
             id="g103"><path
               id="path102"
               class="s3"
               d="m 1613.9,224.4 c 0.7,-6.6 -1.6,-13.8 -5.7,-18.5 -3.2,-3.7 -7.6,-6.9 -12.3,-8.6 -4.1,-2.1 -9.3,-3.4 -15.9,-2.6 q 0,0 0,0 c -1.1,-1.7 -2.6,-3.2 -4.7,-4 -4.9,-2 -10.5,0.4 -12.5,5.4 -2,4.9 0.4,10.6 5.3,12.5 q 1.2,0.5 2.4,0.6 l 12.8,4.5 6.4,2.2 c -0.1,0.2 -0.3,0.3 -0.5,0.5 -2.8,3.3 -3.9,7.3 -3.5,11.1 1.7,0.1 3.3,1 4.2,2.5 0.8,1.4 1.4,3.5 -0.1,5.9 q 0.2,0.2 0.5,0.4 c 2.9,2.4 6.6,3.4 10.2,2.9 3.6,-0.4 7,-2.2 9.5,-5.2 2.3,-2.7 3.6,-6.1 3.9,-9.6 z" /></g><g
             id="g104"><path
               id="path103"
               class="s6"
               d="m 1574.5,249.7 2.4,-11.6 c 0,-0.1 0,-0.2 0.1,-0.3 l 2.8,-6.2 q 0,-0.1 0.1,-0.2 l -1.4,-0.8 1.5,-1.6 11.5,-15.3 -8.1,-6.6 -16.5,0.9 c 0,0 -1.5,2 -3.6,4.8 q -0.6,0.7 -1.2,1.5 c -4.2,5.6 -9.7,12.9 -9.8,13 -0.1,0.8 0.4,1.6 1.1,2 l 2.5,1.3 -3.6,9.8 c -0.8,2.1 -0.5,4.4 0.8,6.2 1.2,1.8 3.3,2.9 5.5,2.9 z" /></g><g
             id="g105"><path
               id="path104"
               class="s3"
               d="m 1607,225.2 c -4.9,-8.4 -14.3,-12.9 -23.7,-11.5 q -1.9,0.2 -3.7,0.8 -0.8,0.3 -1.5,0.7 c -3.5,2.4 -2,6.2 -2,6.2 0.9,3.4 0.5,6.2 -0.1,8 l 3.9,2 c 0.5,-1 1.1,-1.8 2,-2.4 0.4,-0.4 0.9,-0.7 1.5,-1 0.7,-0.3 1.5,-0.5 2.3,-0.5 1.7,0.1 3.3,1 4.2,2.5 0.8,1.4 1.4,3.5 -0.1,5.9 q -0.6,1 -1.8,2.1 c 0,0 -0.9,0.8 -2.2,1.7 l 5.8,10.6 13,-13.6 c 5.1,-5 3.5,-9.6 2.4,-11.5 z" /></g><g
             id="g106"><path
               id="path105"
               fill-rule="evenodd"
               class="s3"
               d="m 1559.1,217.9 c 2,-3.8 5.1,-7.3 7.1,-6.2 2,1 1.1,5.6 -0.9,9.4 -1.9,3.8 -5.1,7.3 -7.1,6.3 -2,-1 -1,-5.7 0.9,-9.5 z m 1,0.5 c -2.2,4.3 -2.3,7.5 -1.4,8 0.9,0.4 3.4,-1.6 5.6,-5.8 2.2,-4.3 2.3,-7.5 1.4,-7.9 -0.9,-0.5 -3.4,1.5 -5.6,5.7 z" /></g><g
             id="g107"><path
               id="path106"
               class="s3"
               d="m 1564.6,221.3 13.2,6.8 0.5,-1 -13.2,-6.8 z" /></g></g></g><g
         id="g110"><path
           id="path109"
           class="s2"
           d="m 1589.4,501.3 c 0,27.1 -22.1,49.2 -49.3,49.2 -27.2,0 -49.2,-22.1 -49.2,-49.2 0,-27.2 22,-49.3 49.2,-49.3 27.2,0 49.3,22.1 49.3,49.3 z" /></g><g
         id="g111"><path
           id="path110"
           class="s2"
           d="m 1517.9,518.7 c 0,27.2 -22,49.3 -49.2,49.3 -27.2,0 -49.3,-22.1 -49.3,-49.3 0,-27.2 22.1,-49.2 49.3,-49.2 27.2,0 49.2,22 49.2,49.2 z" /></g><g
         id="g134"><g
           id="g112"><path
             id="path111"
             class="s3"
             d="m 424.4,902.9 c 0,3.4 -2.8,6.2 -6.2,6.2 -3.4,0 -6.2,-2.8 -6.2,-6.2 0,-3.4 2.8,-6.2 6.2,-6.2 3.4,0 6.2,2.8 6.2,6.2 z" /></g><g
           id="g113"><path
             id="path112"
             class="s3"
             d="m 437.6,873.5 c 0,6 -4.9,10.8 -10.9,10.8 -6,0 -10.8,-4.8 -10.8,-10.8 0,-6 4.8,-10.9 10.8,-10.9 6,0 10.9,4.9 10.9,10.9 z" /></g><g
           id="g114"><path
             id="path113"
             class="s3"
             d="m 446.9,828.5 c 0,6.7 -5.3,12 -12,12 -6.6,0 -12,-5.3 -12,-12 0,-6.6 5.4,-12 12,-12 6.7,0 12,5.4 12,12 z" /></g><g
           id="g115"><path
             id="path114"
             class="s3"
             d="m 530.5,883.9 c 0,6.2 -5,11.3 -11.2,11.3 -6.2,0 -11.2,-5.1 -11.2,-11.3 0,-6.2 5,-11.2 11.2,-11.2 6.2,0 11.2,5 11.2,11.2 z" /></g><g
           id="g116"><path
             id="path115"
             class="s3"
             d="m 477.9,869.2 c 0,6.2 -5.1,11.2 -11.3,11.2 -6.2,0 -11.2,-5 -11.2,-11.2 0,-6.2 5,-11.2 11.2,-11.2 6.2,0 11.3,5 11.3,11.2 z" /></g><g
           id="g117"><path
             id="path116"
             class="s3"
             d="m 510.4,845.6 c 0,7.7 -6.3,13.9 -14,13.9 -7.7,0 -13.9,-6.2 -13.9,-13.9 0,-7.7 6.2,-14 13.9,-14 7.7,0 14,6.3 14,14 z" /></g><g
           id="g118"><path
             id="path117"
             class="s3"
             d="m 483.3,901.2 c 0,4 -3.2,7.3 -7.2,7.3 -4,0 -7.2,-3.3 -7.2,-7.3 0,-4 3.2,-7.2 7.2,-7.2 4,0 7.2,3.2 7.2,7.2 z" /></g><g
           id="g119"><path
             id="path118"
             class="s3"
             d="m 454,939.9 c -7.6,-48.3 -24.2,-62.5 -24.4,-62.6 l 1.2,-1.5 c 0.7,0.6 17.4,14.8 25.2,63.8 z" /></g><g
           id="g120"><path
             id="path119"
             class="s3"
             d="M 447.5,943 C 440.3,915.1 418,903.9 417.8,903.8 l 0.8,-1.8 c 0.3,0.2 23.4,11.8 30.7,40.6 z" /></g><g
           id="g121"><path
             id="path120"
             class="s3"
             d="m 455.3,945.3 c -10.8,-17.2 -18,-35.9 -21.4,-55.8 -3.4,-19.9 -2.1,-43.7 -0.4,-54.9 l 1.9,0.3 c -1.6,10.6 -2.9,34.7 0.4,54.3 3.3,19.6 10.4,38.1 21.2,55 z" /></g><g
           id="g122"><path
             id="path121"
             class="s3"
             d="m 454.5,949 c -5.6,-13.8 -6.5,-25.6 -2.5,-35 1.4,-3.3 3,-5.6 4.7,-8.1 1.9,-2.7 3.9,-5.5 5.7,-9.9 3.1,-7.6 4,-16 2.9,-25.1 l 1.9,-0.3 c 1.2,9.5 0.2,18.2 -3,26.1 -1.9,4.7 -3.9,7.6 -5.9,10.3 -1.7,2.4 -3.2,4.6 -4.5,7.7 -3.8,9 -3,20.3 2.5,33.5 z" /></g><g
           id="g123"><path
             id="path122"
             class="s3"
             d="m 460.6,947.8 -1.1,-1.5 c 11.1,-8.4 30.7,-27 36.8,-57.1 2.7,-13.7 2.4,-27.6 -1.2,-41.4 l 1.9,-0.5 c 3.6,14.1 4,28.3 1.2,42.2 -6.3,30.8 -26.2,49.8 -37.6,58.3 z" /></g><g
           id="g124"><path
             id="path123"
             class="s3"
             d="m 467.6,946.9 -1.9,-0.5 c 3.3,-13.4 9.8,-26.1 18.8,-36.8 8.9,-10.5 20.2,-19 32.9,-24.6 l 0.7,1.7 c -12.3,5.5 -23.4,13.9 -32.2,24.2 -8.7,10.4 -15.1,22.8 -18.3,36 z" /></g><g
           id="g125"><path
             id="path124"
             class="s3"
             d="m 463.7,948.5 -1.9,-0.5 12.8,-43 1.9,0.5 z" /></g><g
           id="g133"><g
             id="g126"><path
               id="path125"
               class="s4"
               d="m 495.7,949.7 -0.4,3.4 -2.1,16.8 -5.7,46.1 c -0.5,3.6 -3.6,6.4 -7.2,6.4 h -46.6 c -3.7,0 -6.8,-2.8 -7.2,-6.4 l -8.3,-66.3 z" /></g><g
             id="g130"><g
               id="g127"><path
                 id="path126"
                 class="s3"
                 d="m 496,988 h -78 v -1.7 h 78 z" /></g><g
               id="g129"><g
                 id="g128"><path
                   id="path127"
                   fill-rule="evenodd"
                   class="s3"
                   d="m 457.8,1081.7 h -1.6 l -16.5,-44.7 -16.4,44.7 -1.7,-0.3 v -93.6 l 1.7,-0.3 16.4,44.4 16.5,-45 h 1.6 l 16.5,45 16.4,-44.4 1.7,0.3 v 93.6 l -1.7,0.3 -16.4,-44.7 z m -17.2,-47.3 16.4,44.5 16.4,-44.5 -16.4,-44.8 z m 34.6,0 15.4,42.1 v -83.9 z m -51.9,-41.8 v 83.9 l 15.4,-42.1 z" /></g></g></g><g
             id="g131"><path
               id="path130"
               class="s5"
               d="m 495.3,953.1 -2.1,16.8 -41.9,-13.3 z" /></g><g
             id="g132"><path
               id="path131"
               class="s4"
               d="m 412.2,935.9 2.4,22.2 h 84.7 l 2.4,-22.2 z" /></g></g></g><g
         id="g135"><path
           id="path134"
           class="s3"
           d="m 2090.6,1457.6 c -6.9,45.6 -49.6,76.9 -95.2,70 -45.6,-7 -77,-49.6 -70,-95.2 6.9,-45.7 49.6,-77 95.2,-70.1 45.6,7 77,49.6 70,95.3 z" /></g><g
         id="g136"><path
           id="path135"
           class="s5"
           d="m 1986.6,1488.4 c -26.2,-4 -48.2,-18.8 -62.1,-39.2 1.9,38.9 30.9,72.3 70.9,78.4 45.6,6.9 88.3,-24.4 95.2,-70 1.8,-11.8 1.1,-23.4 -1.8,-34.2 -12.8,43.5 -56.1,72 -102.2,65 z" /></g><g
         id="g137"><path
           id="path136"
           class="s3"
           d="m 2003.9,1614.7 c -18.7,59 -81.8,91.6 -140.7,72.8 -24.5,-7.7 -44.4,-23 -58,-42.7 -19.2,-27.6 -25.9,-63.4 -14.9,-98 2.7,-8.4 6.1,-16.1 10.5,-23.4 2.2,-3.4 4.4,-6.7 6.5,-9.9 0.4,-0.5 0.7,-0.9 1.1,-1.4 10.7,-13.7 24.1,-24.6 39.4,-32 25.1,-12.3 54.6,-15.3 83.2,-6.2 59,18.7 91.7,81.7 72.9,140.8 z" /></g><g
         id="g138"><path
           id="path137"
           class="s6"
           d="m 1888.1,1740.7 -120.1,86.6 20.5,-144.4 1.8,-12.9 4.3,-30 1.5,-10.5 72.2,-39.9 z" /></g><g
         id="g139"><path
           id="path138"
           class="s9"
           d="m 1834.6,1625.1 c -7.9,31.9 -24.4,41 -44.3,44.9 l 4.3,-30 z" /></g><g
         id="g140"><path
           id="path139"
           class="s6"
           d="m 1854.9,1607.2 c -3.2,1.3 -5.8,4.4 -7.4,7.8 -8.7,17.6 -25.7,27.7 -42.3,29.8 -7,1 -13.8,0.6 -20.1,-1.3 -15.8,-4.5 -27.2,-17.9 -24.4,-40.2 0.3,-2.6 10.2,-30.5 10.5,-30.2 l 0.1,-0.2 c -2,-1.2 -4.9,-2.9 -7,-3.9 -1.7,-0.9 -2.5,-2.9 -2,-4.7 l 0.2,-0.4 c 0.5,-1.5 1.6,-2.8 2.8,-3.4 l 22.6,-15.7 7.1,-11.9 c 1.9,-3.2 3.8,-6.4 5.8,-9.5 2.2,-3.4 4.4,-6.7 6.5,-9.9 0.4,-0.5 0.7,-0.9 1.1,-1.4 10.7,-13.7 24.1,-24.6 39.4,-32 -2.4,48.2 -4.8,86.2 -4.8,86.2 l 8.6,4.5 c 3.1,-5.6 7.8,-11.9 11,-14.3 4.8,-3.6 10.4,-4.7 15.2,-2.9 4.7,1.8 7.5,6.2 8.5,11.8 4.1,21.4 -16.3,35.4 -31.4,41.8 z" /></g><g
         id="g141"><path
           id="path140"
           fill-rule="evenodd"
           class="s2"
           d="m 1788,1584.8 q -0.6,0 -1.3,-0.2 c -6.7,-2.1 -5,-19.8 0.2,-36.1 5.2,-16.3 14,-31.7 20.7,-29.6 6.7,2.2 5,19.8 -0.2,36.1 -4.8,15.3 -12.9,29.8 -19.4,29.8 z m 18.2,-62.4 c -2.6,0 -10,9 -15.8,27.2 -6,19 -4.8,30.8 -2.6,31.5 q 0.2,0 0.3,0 c 2.6,0 10,-8.9 15.8,-27.2 6,-19 4.9,-30.7 2.6,-31.5 q -0.2,0 -0.3,0 z" /></g><g
         id="g142"><path
           id="path141"
           class="s2"
           d="m 1851.3,1572.4 -46.7,-15.2 1.2,-3.5 46.6,15.2 z" /></g><g
         id="g143"><path
           id="path142"
           class="s14"
           d="m 1855.5,1596.4 -26,96 h 45.9 z" /></g><g
         id="g144"><path
           id="path143"
           class="s6"
           d="m 1999.8,1824.8 -94.5,-51.8 -17.2,-32.3 -106.8,20.1 -83.4,64 z" /></g><g
         id="g145"><path
           id="path144"
           class="s15"
           d="m 2073,2007.8 h -457.4 l 13,-28.9 13.7,-30.4 13,-29 13.7,-30.4 13,-29 15.9,-35.3 h 301.9 l 14.1,35.3 11.6,29 12.2,30.4 11.5,29 12.2,30.4 z" /></g><g
         id="g149"><g
           id="g146"><path
             id="path145"
             class="s16"
             d="M 2025.5,1889.1 H 1669 l 13,-29 h 331.9 z" /></g><g
           id="g147"><path
             id="path146"
             class="s16"
             d="m 2049.2,1948.5 h -406.9 l 13,-29 h 382.4 z" /></g><g
           id="g148"><path
             id="path147"
             class="s16"
             d="m 2073,2007.8 h -457.4 l 13,-28.9 h 432.8 z" /></g></g><g
         id="g150"><path
           id="path149"
           class="s9"
           d="m 1888.1,1740.7 -76.6,55.2 93.8,-22.9 z" /></g><g
         id="g151"><path
           id="path150"
           class="s5"
           d="m 1850.2,1890.5 h -179.8 c -0.8,0 -1.4,-0.6 -1.4,-1.4 0,-0.8 0.6,-1.5 1.4,-1.5 h 179.8 c 0.8,0 1.4,0.7 1.4,1.5 0,0.8 -0.6,1.4 -1.4,1.4 z" /></g><g
         id="g152"><path
           id="path151"
           class="s5"
           d="M 1915.9,1979.6 H 1873 c -0.8,0 -1.4,-0.6 -1.4,-1.4 0,-0.8 0.6,-1.4 1.4,-1.4 h 42.9 c 0.8,0 1.4,0.6 1.4,1.4 0,0.8 -0.6,1.4 -1.4,1.4 z" /></g><g
         id="g153"><path
           id="path152"
           class="s5"
           d="m 1913.4,1916.4 c 0,0 19.5,91.4 22.2,91.4 2.8,0 -22.2,0 -22.2,0 z" /></g><g
         id="g162"><g
           id="g154"><path
             id="path153"
             class="s3"
             d="m 1652.5,2000.1 c 0,5.4 -4.4,9.9 -9.9,9.9 h -252.9 c -5.5,0 -9.9,-4.5 -9.9,-9.9 0,-5.4 4.4,-9.9 9.9,-9.9 h 252.9 c 9.9,0 9.9,9.9 9.9,9.9 z" /></g><g
           id="g155"><path
             id="path154"
             class="s3"
             d="m 1588.6,2010 h -282.5 c -9.3,0 -17.2,-6.7 -18.9,-15.8 l -31.5,-169.9 c -1,-5.6 0.5,-11.4 4.1,-15.8 3.7,-4.4 9.1,-7 14.9,-7 h 259.2 c 9.3,0 17.3,6.7 19,15.8 z" /></g><g
           id="g156"><path
             id="path155"
             class="s2"
             d="m 1416.9,1810.1 c 0.3,1.9 -0.9,3.5 -2.8,3.5 -1.9,0 -3.7,-1.6 -4.1,-3.5 -0.3,-1.9 0.9,-3.4 2.8,-3.4 1.9,0 3.7,1.5 4.1,3.4 z" /></g><g
           id="g157"><path
             id="path156"
             class="s2"
             d="m 1267.7,1818.6 30.4,162.2 h 272.8 l -30.3,-162.2 z" /></g><g
           id="g158"><path
             id="path157"
             class="s14"
             d="m 1291.3,1838 6.1,32.6 h 54.9 l -6.1,-32.6 z" /></g><g
           id="g159"><path
             id="path158"
             class="s14"
             d="m 1363.5,1838 6.1,32.6 h 54.9 l -6.1,-32.6 z" /></g><g
           id="g160"><path
             id="path159"
             class="s14"
             d="m 1299.3,1886.1 6.1,32.6 h 54.9 l -6.1,-32.6 z" /></g><g
           id="g161"><path
             id="path160"
             class="s14"
             d="m 1371.6,1886.1 6,32.6 h 54.9 l -6.1,-32.6 z" /></g></g><g
         id="g169"><g
           id="g163"><path
             id="path162"
             fill-rule="evenodd"
             class="s2"
             d="m 1470.4,1720.3 h -311.2 c -37.3,0 -67.7,-30.3 -67.7,-67.7 0,-37.3 30.4,-67.7 67.7,-67.7 h 311.2 c 37.3,0 67.7,30.4 67.7,67.7 0,37.4 -30.4,67.7 -67.7,67.7 z m -311.2,-132.5 c -35.8,0 -64.9,29.1 -64.9,64.8 0,35.8 29.1,64.9 64.9,64.9 h 311.2 c 35.7,0 64.8,-29.1 64.8,-64.9 0,-35.7 -29.1,-64.8 -64.8,-64.8 z" /></g><g
           id="g164"><path
             id="path163"
             class="s2"
             d="m 1429,1719 32.8,48.6 -0.1,-48.7 z" /></g><g
           id="g168"><g
             id="g165"><path
               id="path164"
               class="s2"
               d="m 1395.4,1652.6 c 0,8.6 -7,15.5 -15.5,15.5 -8.6,0 -15.5,-6.9 -15.5,-15.5 0,-8.5 6.9,-15.5 15.5,-15.5 8.5,0 15.5,7 15.5,15.5 z" /></g><g
             id="g166"><path
               id="path165"
               class="s2"
               d="m 1330.3,1652.6 c 0,8.6 -7,15.5 -15.5,15.5 -8.6,0 -15.5,-6.9 -15.5,-15.5 0,-8.5 6.9,-15.5 15.5,-15.5 8.5,0 15.5,7 15.5,15.5 z" /></g><g
             id="g167"><path
               id="path166"
               class="s2"
               d="m 1265.2,1652.6 c 0,8.6 -6.9,15.5 -15.5,15.5 -8.5,0 -15.5,-6.9 -15.5,-15.5 0,-8.5 7,-15.5 15.5,-15.5 8.6,0 15.5,7 15.5,15.5 z" /></g></g></g><g
         id="g176"><g
           id="g170"><path
             id="path169"
             fill-rule="evenodd"
             class="s2"
             d="m 1845.1,385.4 h -139.3 c -17.1,0 -31,-14 -31,-31.1 0,-17.2 13.9,-31.1 31,-31.1 h 139.3 c 17.2,0 31.1,13.9 31.1,31.1 0,17.1 -13.9,31.1 -31.1,31.1 z M 1705.8,326 c -15.5,0 -28.2,12.7 -28.2,28.3 0,15.6 12.7,28.2 28.2,28.2 h 139.3 c 15.6,0 28.3,-12.6 28.3,-28.2 0,-15.6 -12.7,-28.3 -28.3,-28.3 z" /></g><g
           id="g171"><path
             id="path170"
             class="s2"
             d="m 1724.4,384 -14.7,21.8 V 384 Z" /></g><g
           id="g175"><g
             id="g172"><path
               id="path171"
               class="s2"
               d="m 1739.4,354.3 c 0,3.8 3.1,6.9 7,6.9 3.8,0 6.9,-3.1 6.9,-6.9 0,-3.9 -3.1,-7 -6.9,-7 -3.9,0 -7,3.1 -7,7 z" /></g><g
             id="g173"><path
               id="path172"
               class="s2"
               d="m 1768.6,354.3 c 0,3.8 3.1,6.9 6.9,6.9 3.8,0 6.9,-3.1 6.9,-6.9 0,-3.9 -3.1,-7 -6.9,-7 -3.8,0 -6.9,3.1 -6.9,7 z" /></g><g
             id="g174"><path
               id="path173"
               class="s2"
               d="m 1797.7,354.3 c 0,3.8 3.1,6.9 6.9,6.9 3.9,0 7,-3.1 7,-6.9 0,-3.9 -3.1,-7 -7,-7 -3.8,0 -6.9,3.1 -6.9,7 z" /></g></g></g><g
         id="g177"><path
           id="path176"
           class="s2"
           d="m 512.5,1119.8 c 0,30.6 -24.9,55.5 -55.5,55.5 -30.7,0 -55.5,-24.9 -55.5,-55.5 0,-30.7 24.8,-55.5 55.5,-55.5 30.6,0 55.5,24.8 55.5,55.5 z" /></g><g
         id="g178"><path
           id="path177"
           class="s2"
           d="m 1802.8,531.2 c 0,15.6 -12.6,28.2 -28.1,28.2 -15.6,0 -28.2,-12.6 -28.2,-28.2 0,-15.5 12.6,-28.1 28.2,-28.1 15.5,0 28.1,12.6 28.1,28.1 z" /></g><g
         id="g179"><path
           id="path178"
           class="s4"
           d="m 1608.2,317.6 c 0,0 19.2,92.3 19.3,90.5 0.1,-1.8 2.2,-41.6 2.2,-41.6 z" /></g><g
         id="g180"><path
           id="path179"
           class="s2"
           d="m 1700.3,475.6 -66.4,-185 -36.1,17.9 93.7,170.7 z" /></g><g
         id="g181"><path
           id="path180"
           class="s5"
           d="m 1668.8,438.4 c -0.3,0 -0.5,-0.1 -0.7,-0.3 l -64,-116.6 c 0,-0.1 -11,-16.5 3.5,-31.4 0.3,-0.2 0.8,-0.3 1,0 0.3,0.3 0.3,0.7 0.1,1 -13.8,14.1 -3.5,29.5 -3.4,29.6 l 64.1,116.7 c 0.2,0.3 0,0.8 -0.3,1 q -0.2,0 -0.3,0 z" /></g><g
         id="g184"><g
           id="g183"><g
             id="g182"><path
               id="path181"
               class="s6"
               d="m 1700.3,475.6 1.6,4 8.5,-2.4 q 1,-0.3 2,-0.2 l 19.9,3.1 c 0.3,0 0.5,0.2 0.6,0.4 0.1,0.3 0,0.5 -0.2,0.7 -0.4,0.5 -1.4,1 -3.7,1.1 l -6.8,-0.5 9.8,6.3 c 0.2,0.2 0.3,0.4 0.3,0.7 0,0.3 -0.2,0.5 -0.4,0.6 -1,0.4 -2.2,0.8 -3,0.2 0,0 -1.7,1.8 -5.9,-0.2 0,0 -0.9,0.8 -3.3,0.2 0,0 -8.8,-3.6 -8.8,-3.6 -5.7,2.6 -12.4,8.9 -16.2,-0.2 l -3.2,-6.6 z" /></g></g></g><g
         id="g185"><path
           id="path184"
           class="s5"
           d="m 1676.9,410.9 c -0.3,0 -0.6,-0.1 -0.7,-0.4 l -2.4,-6.7 c -0.1,-0.3 0.1,-0.7 0.5,-0.9 0.3,-0.1 0.7,0.1 0.9,0.5 l 2.3,6.6 c 0.2,0.4 0,0.8 -0.4,0.9 q -0.1,0 -0.2,0 z" /></g><g
         id="g186"><path
           id="path185"
           class="s5"
           d="m 1691.5,479.9 c -0.2,0 -0.5,-0.1 -0.6,-0.4 -0.2,-0.4 0,-0.8 0.4,-0.9 l 8.1,-3.4 -21.5,-59.9 c -0.2,-0.3 0,-0.8 0.4,-0.9 0.4,-0.1 0.8,0.1 0.9,0.4 l 22,61.2 -9.4,3.9 q -0.1,0 -0.3,0 z" /></g><g
         id="g190"><g
           id="g187"><path
             id="path186"
             class="s17"
             d="m 1623.5,487.7 c 0,1.7 1.4,3 3,3 h 76.6 c 1.6,0 3,-1.3 3,-3 0,-1.6 -1.4,-3 -3,-3 h -76.6 c -3,0 -3,3 -3,3 z" /></g><g
           id="g188"><path
             id="path187"
             class="s17"
             d="m 1642.9,490.7 h 85.5 c 2.8,0 5.2,-2 5.7,-4.8 l 9.5,-51.4 c 0.4,-1.7 -0.1,-3.5 -1.2,-4.8 -1.1,-1.3 -2.8,-2.1 -4.5,-2.1 h -78.5 c -2.8,0 -5.2,2 -5.7,4.8 z" /></g><g
           id="g189"><path
             id="path188"
             class="s2"
             d="m 1688.3,458 c -0.8,4.5 2.2,8.2 6.7,8.2 4.5,0 8.8,-3.7 9.7,-8.2 0.8,-4.5 -2.2,-8.2 -6.7,-8.2 -4.5,0 -8.9,3.7 -9.7,8.2 z" /></g></g><g
         id="g191"><path
           id="path190"
           class="s5"
           d="m 1487.8,407.7 c -0.4,0 -0.7,-0.3 -0.7,-0.7 v -12.5 c 0,-0.4 0.3,-0.8 0.7,-0.8 0.4,0 0.7,0.4 0.7,0.8 V 407 c 0,0.4 -0.3,0.7 -0.7,0.7 z" /></g><g
         id="g259"><g
           id="g192"><path
             id="path191"
             class="s2"
             d="m 3125.7,952.9 q 0,-1 0,-1.9 c 0,-63 -51.1,-114 -114,-114 -10.8,0 -21.2,1.5 -31.1,4.2 C 2932.4,768.8 2850,721 2756.5,721 2608,721 2487.6,841.4 2487.6,990 q 0,0 0,0 c 0,79.6 64.5,144.1 144.1,144.1 l 485.2,-0.1 c 48.5,0 88.4,-37.9 90.7,-86.4 q 0.1,-2.1 0.1,-4.3 c 0,-47.2 -36,-86 -82,-90.4 z" /></g><g
           id="g193"><path
             id="path192"
             class="s6"
             d="m 2759.9,715.2 c -4.6,0 -9,2.5 -11.3,6.7 l -49.2,89.1 -117.3,10 0.1,0.3 -9.8,-12.7 -11.2,0.3 0.1,24.7 26,-0.1 97.4,4.1 33.5,1.4 24.2,-32.6 15.3,-20.5 10,-70.7 z" /></g><g
           id="g207"><g
             id="g200"><g
               id="g194"><path
                 id="path193"
                 class="s2"
                 d="m 2561.5,782.9 c -0.1,1.7 1.3,3 2.9,3.1 1.7,0 3,-1.3 3,-3 0,-1.6 -1.3,-3 -2.9,-3 -1.7,0 -3,1.3 -3,2.9 z" /></g><g
               id="g195"><path
                 id="path194"
                 class="s2"
                 d="m 2559.5,780 c 0,1.3 1,2.3 2.3,2.3 1.3,0.1 2.3,-1 2.3,-2.2 0,-1.3 -1,-2.4 -2.3,-2.4 -1.3,0 -2.3,1 -2.3,2.3 z" /></g><g
               id="g196"><path
                 id="path195"
                 class="s2"
                 d="m 2555.5,772.1 c 0,3.9 3.1,7.1 7,7.2 3.8,0 7,-3.1 7.1,-7 0,-3.9 -3.1,-7.1 -7,-7.1 -3.9,-0.1 -7.1,3.1 -7.1,6.9 z" /></g><g
               id="g197"><path
                 id="path196"
                 class="s2"
                 d="m 2569.8,764.4 c 0,1.2 0.9,2.2 2.2,2.2 1.2,0 2.2,-1 2.2,-2.2 0,-1.2 -1,-2.2 -2.2,-2.2 -1.2,0 -2.2,1 -2.2,2.2 z" /></g><g
               id="g198"><path
                 id="path197"
                 class="s2"
                 d="m 2555.6,783.4 c 0,0.8 0.6,1.4 1.4,1.4 0.7,0 1.3,-0.6 1.4,-1.4 0,-0.7 -0.6,-1.3 -1.4,-1.3 -0.7,-0.1 -1.4,0.6 -1.4,1.3 z" /></g><g
               id="g199"><path
                 id="path198"
                 class="s2"
                 d="m 2554.9,763.4 c 0,2 1.6,3.7 3.6,3.7 2,0 3.6,-1.6 3.7,-3.6 0,-2 -1.6,-3.6 -3.6,-3.7 -2,0 -3.7,1.6 -3.7,3.6 z" /></g></g><g
             id="g206"><g
               id="g203"><g
                 id="g201"><path
                   id="path200"
                   class="s14"
                   d="m 2559.6,794.7 v 0.4 l 1.2,10.4 1.6,14.4 1.1,9.7 c 0,0.1 0.1,0.2 0.2,0.2 l 17.7,0.2 c 0.1,0 0.2,-0.1 0.2,-0.2 l 1.4,-9.6 1.9,-14.4 1.4,-10.4 V 795 Z" /></g><g
                 id="g202"
                 style="mix-blend-mode:multiply"><path
                   id="path201"
                   class="s11"
                   d="m 2559.6,795.1 1.2,10.4" /></g></g><g
               id="g204"><path
                 id="path203"
                 class="s18"
                 d="m 2560.6,789.7 0.3,-1 c 0,-0.2 0.2,-0.4 0.4,-0.4 h 0.8 c 0.1,-0.1 0.2,-0.2 0.4,-0.2 h 2.2 c 0.2,0 0.3,0.1 0.4,0.3 h 1.6 q 1.1,0 2.1,0.2 l 1.3,0.3 q 0.9,0.3 1.9,0.3 l 13.1,0.1 c 0.2,0 0.3,0.2 0.4,0.4 l 0.1,0.6 0.4,2.8 -26,-0.5 z" /></g><g
               id="g205"><path
                 id="path204"
                 class="s18"
                 d="m 2558.3,794.8 v 0.3 l 29.3,0.3 v -0.3 c 0,-0.2 -0.1,-0.3 -0.2,-0.3 v -1.9 c 0,-0.2 -0.2,-0.4 -0.4,-0.4 l -28,-0.3 c -0.2,0 -0.4,0.1 -0.4,0.4 l -0.1,1.8 c -0.1,0.1 -0.2,0.2 -0.2,0.4 z" /></g></g></g><g
           id="g208"><path
             id="path207"
             class="s6"
             d="m 2571.3,822.9 c 0.2,0.2 1.5,1.4 1.5,3.4 0,1.9 -1.2,3.1 -1.4,3.3 0,0.2 0.2,1.6 -0.8,2.8 -1.1,1.2 -2.6,1 -2.8,1 l -6.5,0.2 c -1.8,0 -3.3,-1.6 -3.5,-3.7 0,-0.4 0,-0.7 0,-0.7 -2.4,-3 0,-6.3 0,-6.3 -1.9,-0.8 -2,-2.9 -2,-2.9 0,-3.6 3.1,-4 3.1,-4 -1.6,-1.2 -1.3,-3.4 -1.3,-3.4 0,-3.9 3.6,-3.9 3.6,-3.9 h 7.5 c 1.9,0.3 3.4,1.7 3.7,3.4 0.4,2.1 -1.1,3.7 -1.3,3.8 0.2,0.1 1.9,1.3 1.9,3.5 0.1,2.1 -1.5,3.4 -1.7,3.5 z" /></g><g
           id="g209"><path
             id="path208"
             class="s6"
             d="m 2591.4,821.8 -10,-13.4 -12.3,-8.2 c -0.6,-0.5 -1.5,-0.5 -2.2,-0.1 -2.3,1.3 -0.6,4.7 0.9,6 l 4.3,2.9 1.8,1.3 c 0,0 1.7,12.2 11.1,15.5 0,0 3.9,-2.2 6.4,-4 z" /></g><g
           id="g210"><path
             id="path209"
             class="s16"
             d="m 2767.5,715.2 h 83.8 l 25.7,180.5 h -134.7 z" /></g><g
           id="g211"><path
             id="path210"
             class="s18"
             d="m 2764.9,859.6 c 0.5,-1.9 -0.5,-3.8 -2.4,-4.4 l -71.1,-21 -20.4,-86.9 c -0.3,-1.6 -1.8,-2.7 -3.4,-2.7 H 2578 c -1.1,0 -2.1,0.5 -2.8,1.3 -0.6,0.8 -0.9,1.9 -0.6,3 l 20.8,88.9 c 0.5,1.8 2.4,3 4.2,2.6 1.3,-0.3 2.2,-1.3 2.6,-2.5 l 69.7,20.7 h 77.3 l 11.3,3.3 q 0.5,0.2 1,0.2 c 1.5,0 2.9,-1 3.4,-2.5 z" /></g><g
           id="g215"><g
             id="g212"><path
               id="path211"
               class="s6"
               d="m 2754.3,1015.8 -1.2,9.9 -34.4,-21.4 -6.4,-3.9 -42.1,-26.1 3.5,-27.4 44.1,37.8 18.1,15.4 z" /></g><g
             id="g213"><path
               id="path212"
               class="s9"
               d="m 2735.9,1000.1 -17.2,4.2 -6.4,-3.9 5.5,-15.7 z" /></g><g
             id="g214"><path
               id="path213"
               class="s19"
               d="m 2750.7,1009.5 -8,12.8 2.1,40.9 -8.1,13.1 c -0.6,0.9 -0.6,2 0,2.8 0.6,0.8 1.7,1.2 2.7,1 l 5,-1.2 c 4.3,-1 7.9,-3.6 10.2,-7.2 l 28.5,-45.2 c 0.8,-1.3 0.7,-3 0.2,-4.5 -0.5,-1.4 -1.7,-2.5 -3.2,-3 z" /></g></g><g
           id="g216"><path
             id="path215"
             class="s2"
             d="m 2639.7,789.2 c 1.2,6.2 -2.9,11.2 -9.1,11.2 -6.2,0 -12.2,-5 -13.4,-11.2 -1.1,-6.2 3,-11.2 9.2,-11.2 6.2,0 12.2,5 13.3,11.2 z" /></g><g
           id="g217"><path
             id="path216"
             class="s20"
             d="m 2854.4,658.2 c 0,22.1 -17.9,39.9 -39.9,39.9 -9.2,0 -17.6,-3 -24.4,-8.2 -9.5,-7.3 -15.6,-18.8 -15.6,-31.7 q 0,-4.7 1,-9.1 c 0.4,-1.4 0.8,-2.8 1.2,-4.1 0.1,-0.2 0.1,-0.4 0.2,-0.6 2.1,-5.8 5.5,-11 9.9,-15.1 7.2,-6.9 17,-11.1 27.7,-11.1 22,0 39.9,17.9 39.9,40 z" /></g><g
           id="g218"><path
             id="path217"
             class="s6"
             d="m 2825.9,715.2 -32.8,41.6 -5,-50.4 -2.4,-23.4 -0.3,-3.3 20.3,-21.9 z" /></g><g
           id="g219"><path
             id="path218"
             class="s20"
             d="m 2858.9,685.9 c 0,5.8 -4.7,10.5 -10.5,10.5 -5.8,0 -10.6,-4.7 -10.6,-10.5 0,-5.8 4.8,-10.5 10.6,-10.5 5.8,0 10.5,4.7 10.5,10.5 z" /></g><g
           id="g220"><path
             id="path219"
             class="s9"
             d="m 2788.1,706.4 -2.4,-23.4 12.1,-5.2 c 0,0 7,21.6 -9.7,28.6 z" /></g><g
           id="g221"><path
             id="path220"
             class="s6"
             d="m 2803,671.7 c -1,0.8 -1.5,2.1 -1.7,3.5 -1.1,6.9 -5.7,12.1 -11.2,14.7 -2.2,1.1 -4.6,1.7 -6.9,1.7 -5.9,0.2 -11.2,-3.1 -12.7,-11 -0.1,-1 0.2,-11.5 0.3,-11.4 v -0.1 c -0.7,-0.2 -1.9,-0.5 -2.8,-0.6 -0.6,-0.1 -1.1,-0.7 -1.1,-1.4 V 667 c 0,-0.6 0.2,-1.1 0.6,-1.5 l 6,-7.8 1.1,-4.8 q 0.4,-1.9 0.9,-3.8 c 0.4,-1.4 0.8,-2.8 1.2,-4.1 0.1,-0.2 0.1,-0.4 0.2,-0.6 2.1,-5.8 5.5,-11 9.9,-15.1 4.4,16.6 7.7,29.8 7.7,29.8 l 3.4,0.6 c 0.5,-2.2 1.4,-4.9 2.2,-6.1 1.3,-1.7 3.1,-2.7 4.9,-2.6 1.8,0.1 3.2,1.3 4.1,3.1 3.7,6.9 -1.7,13.8 -6.1,17.6 z" /></g><g
           id="g222"><path
             id="path221"
             class="s20"
             d="m 2787.2,618.2 c -11.4,0 -20.7,9.2 -20.7,20.6 v 0.7 h 21.3 l 0.3,-5.9 27.4,-15.4 z" /></g><g
           id="g223"><path
             id="path222"
             class="s15"
             d="m 2863.1,957.3 c -10.6,8.3 -24.5,10.9 -37.4,6.9 l -173.5,-53.7 -25.3,-87.9 215.5,62.9 4.5,1.4 30.1,8.8 1.7,27 c 0.8,13.4 -5.1,26.4 -15.6,34.6 z" /></g><g
           id="g224"><path
             id="path223"
             class="s6"
             d="m 2910,863.9 -42.2,-136.7 c 0,0 -2.9,-12 -16.5,-12 l 19.3,135.3 -108.5,-22.6 -13.5,1.5 -15.4,-2.7 c -2.7,1.1 0.2,2.6 0.2,2.6 l -7.1,1 c -1.5,3.4 7.6,3 7.6,3 l -5.6,1.5 c -1,4.4 11.3,2.5 11.3,2.5 l -9.1,6.7 c 2.6,4.7 11.9,-2.7 11.9,-2.7 l 5.2,-3.3 c 5.2,-0.3 13.5,2.9 13.5,2.9 0,0 0.2,1.2 -5.7,4.5 -5.9,3.3 -5.2,7.7 -5.2,7.7 0.9,3.6 4.3,0.1 4.3,0.1 l 3.4,-2.2 8.4,-3.1 c 4.3,-0.9 10,-4.3 11.3,-5.2 l 110,42.5 c 6.2,2.2 13.1,0.8 17.8,-3.7 4.8,-4.5 6.6,-11.3 4.6,-17.6 z" /></g><g
           id="g245"><g
             id="g233"><g
               id="g225"><path
                 id="path224"
                 class="s3"
                 d="m 3052,700.5 c 0,0 -12.6,3.1 -18.2,13.6 -5.5,10.4 -13.6,11.7 -15.1,11.4 0,0 -6.2,-1.3 -3.4,-9.9 0,0 5.9,-19.4 36.7,-15.1 z" /></g><g
               id="g226"><path
                 id="path225"
                 class="s3"
                 d="m 3001.7,704.7 c 0,0 8.7,2.4 9,13.8 0,0 0.3,9.9 -4.9,15.4 l -5.9,-12.9 v -0.1 c -3.3,-9.9 -8.3,-19.2 -14.7,-27.5 -2.1,-2.8 -4.1,-6.4 -5.3,-10.9 0,0 17.2,1.5 21.8,22.2 z" /></g><g
               id="g227"><path
                 id="path226"
                 class="s3"
                 d="m 3051.5,728.8 c -5.3,-2.3 -14.6,-0.9 -19.9,0.8 -4,1.2 -7.7,3.4 -10,6.9 -1.3,1.9 -2.1,4.2 -2.4,6.6 -0.3,2.2 1.2,7 0.4,8.7 0,0 4,-9.2 14.8,-14.2 3.5,-1.6 6.9,-0.7 10.3,-2 2.7,-1.1 5.5,-4.3 6.8,-6.8 z" /></g><g
               id="g228"><path
                 id="path227"
                 class="s3"
                 d="m 3003.3,755.5 c 0,0 3.1,-10.8 -5.3,-21.9 0,0 -7.9,-12.8 -29.6,-11.3 -2.4,0.1 -4.7,0.7 -6.9,1.8 -1.7,0.8 -3.5,1.9 -4.8,3.4 0,0 11.2,-1.1 25.3,6.9 7,4 13.1,9.5 17.7,16.1 z" /></g><g
               id="g229"><path
                 id="path228"
                 class="s3"
                 d="m 3014.8,782.7 c 0.3,-19.9 8.1,-36.8 8.2,-36.9 l -1.8,-0.9 c -0.1,0.2 -8.1,17.4 -8.4,37.7 z" /></g><g
               id="g230"><path
                 id="path229"
                 class="s3"
                 d="m 3010.3,781.4 h 2 c -1.2,-43.3 9.2,-63 9.3,-63.2 l -1.7,-1 c -0.5,0.8 -10.8,20.3 -9.6,64.2 z" /></g><g
               id="g231"><path
                 id="path230"
                 class="s3"
                 d="m 3010.9,781.6 c 0.4,-30.2 -4.3,-50.8 -4.4,-51 l -1.9,0.5 c 0,0.2 4.7,20.6 4.3,50.5 z" /></g><g
               id="g232"><path
                 id="path231"
                 class="s3"
                 d="m 3006.2,781.9 2,-0.2 c -1.6,-20.4 -6,-33.4 -6,-33.5 l -1.9,0.7 c 0,0.1 4.3,12.8 5.9,33 z" /></g></g><g
             id="g234"><path
               id="path233"
               class="s3"
               d="m 3010.1,772.4 c -1.6,-72.7 -8.4,-100.4 -8.5,-100.6 l -1.7,0.4 c 0.1,0.3 6.9,27.8 8.4,100.2 z" /></g><g
             id="g235"><path
               id="path234"
               class="s3"
               d="m 3016.6,777.1 1.7,-0.2 c -16.3,-125.2 -9.7,-247.5 -9.7,-248.7 l -1.7,-0.1 c -0.1,1.3 -6.7,123.7 9.7,249 z" /></g><g
             id="g236"><path
               id="path235"
               class="s3"
               d="m 3012.6,741 1.7,-0.2 c -4.1,-33.9 22.1,-123.5 22.4,-124.4 l -1.7,-0.5 c -0.3,0.9 -26.6,90.8 -22.4,125.1 z" /></g><g
             id="g237"><path
               id="path236"
               class="s3"
               d="m 3006.7,779.2 c -8,-110.5 -41.3,-173.6 -41.6,-174.2 l -1.6,0.8 c 0.4,0.6 33.5,63.4 41.5,173.5 z" /></g><g
             id="g240"><g
               id="g238"><path
                 id="path237"
                 class="s2"
                 d="m 2992,765.8 h 13.3 9.5 13.4 l 19.5,58.3 h -32.9 -9.5 -32.8 z" /></g><g
               id="g239"><path
                 id="path238"
                 class="s4"
                 d="m 3028.2,882.4 h -13.4 -9.5 -13.3 l -19.5,-58.3 h 32.8 9.5 32.9 z" /></g></g><g
             id="g241"><path
               id="path240"
               class="s3"
               d="m 3027.5,613.1 c 0,5.3 4.3,9.7 9.6,9.7 5.4,0 9.7,-4.4 9.7,-9.7 0,-5.3 -4.3,-9.7 -9.7,-9.7 -5.3,0 -9.6,4.4 -9.6,9.7 z" /></g><g
             id="g242"><path
               id="path241"
               class="s3"
               d="m 2994,670.7 c 0,3.5 2.9,6.4 6.4,6.4 3.5,0 6.4,-2.9 6.4,-6.4 0,-3.6 -2.9,-6.4 -6.4,-6.4 -3.5,0 -6.4,2.8 -6.4,6.4 z" /></g><g
             id="g243"><path
               id="path242"
               class="s3"
               d="m 2954.8,603.3 c 0,4.6 3.8,8.4 8.4,8.4 4.6,0 8.4,-3.8 8.4,-8.4 0,-4.6 -3.8,-8.4 -8.4,-8.4 -4.6,0 -8.4,3.8 -8.4,8.4 z" /></g><g
             id="g244"><path
               id="path243"
               class="s3"
               d="m 2996.2,523 c 0,6.2 5,11.2 11.2,11.2 6.2,0 11.2,-5 11.2,-11.2 0,-6.2 -5,-11.2 -11.2,-11.2 -6.2,0 -11.2,5 -11.2,11.2 z" /></g></g><g
           id="g246"><path
             id="path245"
             class="s2"
             d="m 3052.7,897.5 c 0,24 -19.5,43.5 -43.6,43.5 -24,0 -43.5,-19.5 -43.5,-43.5 0,-24.1 19.5,-43.6 43.5,-43.6 24.1,0 43.6,19.5 43.6,43.6 z" /></g><g
           id="g251"><g
             id="g249"><g
               id="g247"><path
                 id="path246"
                 class="s6"
                 d="m 2544.5,1019.4 -13,20.3 -27.3,42.2 -17.2,26.6 -9.9,0.1 12.3,-27.4 21.4,-47.9 6.2,-13.6 z" /></g><g
               id="g248"><path
                 id="path247"
                 class="s2"
                 d="m 2497,1096.1 -15.1,0.2 -33.4,23.7 -15.4,0.2 c -1,0 -1.9,0.6 -2.3,1.5 -0.4,1 -0.2,2 0.6,2.8 l 3.7,3.6 c 3.1,3.1 7.2,4.7 11.6,4.7 l 53.3,-0.2 c 1.6,0 3,-1 3.9,-2.2 1,-1.2 1.3,-2.8 0.9,-4.3 z" /></g></g><g
             id="g250"><path
               id="path249"
               class="s9"
               d="m 2531.5,1039.7 -27.3,42.2 -14.8,-0.7 21.4,-47.9 z" /></g></g><g
           id="g252"><path
             id="path251"
             class="s18"
             d="m 2779.4,949.8 -86.9,-38.3 -103.8,-49.7 6.3,-12.8 h -37.7 c -13.7,-1.2 -27.3,5.9 -33.8,19 l -0.1,0.1 c -7.9,15.8 -2.6,35 12.3,44.6 l 173,102.8 37.2,-65.7 z" /></g><g
           id="g253"><path
             id="path252"
             class="s15"
             d="m 2667.7,887.7 -106.1,220.4 -38.5,-20.3 -4,-2.1 -40.8,-21.6 107.8,-223.3 c 7.4,-15.2 24.6,-22.9 40.8,-18.2 z" /></g><g
           id="g254"><path
             id="path253"
             class="s18"
             d="m 2665.5,901.5 c -0.2,0 -0.4,0 -0.6,-0.2 l -14.6,-17.5 c -0.3,-0.3 -0.2,-0.7 0.1,-1 0.3,-0.2 0.7,-0.2 1,0.1 l 14.6,17.5 c 0.3,0.3 0.2,0.7 -0.1,1 q -0.2,0.1 -0.4,0.1 z" /></g><g
           id="g255"><path
             id="path254"
             class="s16"
             d="M 2842.4,885.5 V 923 l -130.5,-41 -1.4,4.3 131.9,41.4 4.5,1.4 v -4.7 -37.5 z" /></g><g
           id="g256"><path
             id="path255"
             class="s16"
             d="m 2616.3,907.5 -93.2,180.3 -4,-2.1 93.2,-180.3 z" /></g><g
           id="g257"><path
             id="path256"
             class="s2"
             d="m 2967.8,1007.5 c 0,-48.7 -39.4,-88.1 -88.1,-88.1 -48.6,0 -88,39.4 -88,88.1 0,48.6 39.4,88 88,88 48.7,0 88.1,-39.4 88.1,-88 z" /></g><g
           id="g258"><path
             id="path257"
             class="s18"
             d="m 2877,896.4 q -0.1,0 -0.2,0 L 2799,873.6 c -0.3,-0.1 -0.6,-0.5 -0.5,-0.8 0.2,-0.4 0.6,-0.6 0.9,-0.5 l 77.8,22.7 c 0.4,0.1 0.6,0.5 0.5,0.9 -0.1,0.3 -0.3,0.5 -0.7,0.5 z" /></g></g><g
         id="g260"><path
           id="path259"
           class="s21"
           d="m 2577.3,399.7 c -15.2,-3.3 -26.5,-16.1 -27.9,-31.6 -1.8,-21.1 -19.6,-37.7 -41.2,-37.6 -19.9,0 -36.4,14.2 -40.3,33 -6.2,29.1 -42.1,40.1 -63.6,19.4 h 0.1 c -10.8,-10.4 -25.5,-16.8 -41.6,-16.7 -9.8,0 -19,2.4 -27.1,6.5 -1.7,0.9 -3.7,0.9 -5.3,0 -1.7,-0.9 -2.8,-2.6 -2.9,-4.5 q 0,0 0,-0.1 h -0.1 c -1.8,-21.1 -19.5,-37.7 -41.1,-37.6 -19.9,0 -36.5,14.2 -40.3,33 -6.3,29.1 -42.1,40.1 -63.6,19.4 -10.8,-10.4 -25.5,-16.8 -41.6,-16.7 -32.8,0.1 -59.4,26.6 -59.6,59.3 h 222 82.1 222 c -4.9,-13 -16.2,-22.9 -30,-25.8 z" /></g><g
         id="g261"><path
           id="path260"
           class="s8"
           d="m 674.6,482.3 c 0,59.1 -48,107.1 -107.2,107.1 -59.1,0 -107.1,-48 -107.1,-107.1 0,-59.2 48,-107.2 107.1,-107.2 59.2,0 107.2,48 107.2,107.2 z" /></g><g
         id="g262"><path
           id="path261"
           class="s21"
           d="m 437.7,591.9 h 337.1 c 0,0 5.1,-33.3 -27.7,-37.9 -6,-0.8 -12.4,-0.9 -18,-3.1 -11,-4.3 -11.4,-14.8 -11.5,-25 -0.1,-18.9 -7.4,-36.4 -25.9,-43.5 -19.1,-7.3 -43.6,-3.8 -55.8,13.8 -4.8,6.9 -5.5,16.9 -13.1,21.7 -13.9,8.8 -31,-8.3 -44.8,-10.3 -15.3,-2.3 -29.9,5 -33.3,21.2 0,0 -4,19.2 -26.2,21.2 -19.2,1.8 -28.6,1.2 -34.7,12.5 -2.8,5.1 -7.3,9.2 -12.7,11.4 -5.4,2.3 -10.4,1.4 -15.9,2.2 -8.6,1.3 -17.5,6 -17.5,15.8 z" /></g><g
         id="g263"><path
           id="path262"
           class="s21"
           d="m 1598.3,1145.6 q -0.1,-1.9 -0.1,-3.8 c 0.1,-40.5 33,-73.3 73.5,-73.1 27.2,0 50.9,14.9 63.5,37 10.6,18.7 33.3,26.8 53.4,19.2 5.7,-2.2 11.8,-3.4 18.2,-3.4 18.2,0.1 34.1,9.7 43,24.1 z" /></g><g
         id="g270"><g
           id="g267"><g
             id="g264"><path
               id="path263"
               class="s2"
               d="m 1071.7,737 c -5.1,0 -9.3,-4.2 -9.3,-9.3 0,-5.2 4.2,-9.3 9.3,-9.3 5.1,0 9.3,4.1 9.3,9.3 0,5.1 -4.2,9.3 -9.3,9.3 z" /></g><g
             id="g265"><path
               id="path264"
               class="s2"
               d="m 1039.3,737 c -5.2,0 -9.3,-4.2 -9.3,-9.3 0,-5.2 4.1,-9.3 9.3,-9.3 5.1,0 9.3,4.1 9.3,9.3 0,5.1 -4.2,9.3 -9.3,9.3 z" /></g><g
             id="g266"><path
               id="path265"
               class="s2"
               d="m 1006.9,737 c -5.2,0 -9.3,-4.2 -9.3,-9.3 0,-5.2 4.1,-9.3 9.3,-9.3 5.1,0 9.3,4.1 9.3,9.3 0,5.1 -4.2,9.3 -9.3,9.3 z" /></g></g><g
           id="g268"><path
             id="path267"
             fill-rule="evenodd"
             class="s2"
             d="m 1039.3,823.3 c -52.7,0 -95.6,-42.9 -95.6,-95.6 0,-52.8 42.9,-95.6 95.6,-95.6 52.7,0 95.6,42.8 95.6,95.6 0,52.7 -42.9,95.6 -95.6,95.6 z m 0,-188.4 c -51.2,0 -92.8,41.6 -92.8,92.8 0,51.1 41.6,92.7 92.8,92.7 51.1,0 92.8,-41.6 92.8,-92.7 0,-51.2 -41.7,-92.8 -92.8,-92.8 z" /></g><g
           id="g269"><path
             id="path268"
             class="s2"
             d="m 1039.3,844.1 7.8,-22 h -15.7 z" /></g></g><g
         id="g277"><g
           id="g274"><g
             id="g271"><path
               id="path270"
               class="s2"
               d="m 2646,636.6 c -3.8,0 -7,-3.2 -7,-7 0,-3.9 3.2,-7.1 7,-7.1 3.9,0 7.1,3.2 7.1,7.1 0,3.8 -3.2,7 -7.1,7 z" /></g><g
             id="g272"><path
               id="path271"
               class="s2"
               d="m 2621.6,636.6 c -3.9,0 -7.1,-3.2 -7.1,-7 0,-3.9 3.2,-7.1 7.1,-7.1 3.8,0 7,3.2 7,7.1 0,3.8 -3.2,7 -7,7 z" /></g><g
             id="g273"><path
               id="path272"
               class="s2"
               d="m 2597.1,636.6 c -3.9,0 -7,-3.2 -7,-7 0,-3.9 3.1,-7.1 7,-7.1 3.9,0 7,3.2 7,7.1 0,3.8 -3.1,7 -7,7 z" /></g></g><g
           id="g275"><path
             id="path274"
             fill-rule="evenodd"
             class="s2"
             d="m 2621.6,702.1 c -40,0 -72.6,-32.5 -72.6,-72.5 0,-40 32.6,-72.6 72.6,-72.6 40,0 72.5,32.6 72.5,72.6 0,40 -32.5,72.5 -72.5,72.5 z m 0,-142.2 c -38.5,0 -69.7,31.2 -69.7,69.7 0,38.4 31.2,69.7 69.7,69.7 38.4,0 69.6,-31.3 69.6,-69.7 0,-38.5 -31.2,-69.7 -69.6,-69.7 z" /></g><g
           id="g276"><path
             id="path275"
             class="s2"
             d="m 2621.6,719.9 6.8,-19.1 h -13.6 z" /></g></g></g></g></svg>
