<?xml version="1.0" encoding="UTF-8" standalone="no"?>
<!-- Created with Inkscape (http://www.inkscape.org/) -->

<svg
   width="2000"
   height="1000"
   viewBox="0 0 185.20833 185.20833"
   version="1.1"
   id="svg1"
   xml:space="preserve"
   sodipodi:docname="logo-main.svg"
   inkscape:version="1.3.2 (091e20e, 2023-11-25, custom)"
   inkscape:export-filename="mega.png"
   inkscape:export-xdpi="1000"
   inkscape:export-ydpi="1000"
   xmlns:inkscape="http://www.inkscape.org/namespaces/inkscape"
   xmlns:sodipodi="http://sodipodi.sourceforge.net/DTD/sodipodi-0.dtd"
   xmlns:xlink="http://www.w3.org/1999/xlink"
   xmlns="http://www.w3.org/2000/svg"
   xmlns:svg="http://www.w3.org/2000/svg"><sodipodi:namedview
     id="namedview1"
     pagecolor="#ffffff"
     bordercolor="#666666"
     borderopacity="1.0"
     inkscape:showpageshadow="2"
     inkscape:pageopacity="0.0"
     inkscape:pagecheckerboard="0"
     inkscape:deskcolor="#d1d1d1"
     inkscape:document-units="mm"
     inkscape:zoom="1.4142136"
     inkscape:cx="304.76301"
     inkscape:cy="335.87571"
     inkscape:window-width="1718"
     inkscape:window-height="1360"
     inkscape:window-x="1706"
     inkscape:window-y="0"
     inkscape:window-maximized="0"
     inkscape:current-layer="layer6"
     showgrid="false"
     inkscape:export-bgcolor="#ffffff00"><inkscape:grid
       id="grid44"
       units="mm"
       originx="0"
       originy="0"
       spacingx="1"
       spacingy="1"
       empcolor="#0099e5"
       empopacity="0.30196078"
       color="#0099e5"
       opacity="0.14901961"
       empspacing="5"
       dotted="false"
       gridanglex="30"
       gridanglez="30"
       visible="false" /></sodipodi:namedview><defs
     id="defs1"><inkscape:path-effect
       effect="powerclip"
       id="path-effect29"
       is_visible="true"
       lpeversion="1"
       inverse="true"
       flatten="false"
       hide_clip="false"
       message="Use fill-rule evenodd on &lt;b&gt;fill and stroke&lt;/b&gt; dialog if no flatten result after convert clip to paths." /><inkscape:path-effect
       effect="powerclip"
       id="path-effect20"
       is_visible="true"
       lpeversion="1"
       inverse="true"
       flatten="false"
       hide_clip="false"
       message="Use fill-rule evenodd on &lt;b&gt;fill and stroke&lt;/b&gt; dialog if no flatten result after convert clip to paths." /><inkscape:path-effect
       effect="powerclip"
       id="path-effect18"
       is_visible="true"
       lpeversion="1"
       inverse="true"
       flatten="false"
       hide_clip="false"
       message="Use fill-rule evenodd on &lt;b&gt;fill and stroke&lt;/b&gt; dialog if no flatten result after convert clip to paths." /><inkscape:path-effect
       effect="powerclip"
       id="path-effect14"
       is_visible="true"
       lpeversion="1"
       inverse="true"
       flatten="false"
       hide_clip="false"
       message="Use fill-rule evenodd on &lt;b&gt;fill and stroke&lt;/b&gt; dialog if no flatten result after convert clip to paths." /><inkscape:path-effect
       effect="powerclip"
       id="path-effect12"
       is_visible="true"
       lpeversion="1"
       inverse="true"
       flatten="false"
       hide_clip="false"
       message="Use fill-rule evenodd on &lt;b&gt;fill and stroke&lt;/b&gt; dialog if no flatten result after convert clip to paths." /><linearGradient
       id="linearGradient8"
       inkscape:collect="always"><stop
         style="stop-color:#000000;stop-opacity:0.25531915;"
         offset="0"
         id="stop7" /><stop
         style="stop-color:#000000;stop-opacity:0;"
         offset="1"
         id="stop8" /></linearGradient><linearGradient
       id="linearGradient476"
       inkscape:collect="always"><stop
         style="stop-color:#643f91;stop-opacity:1;"
         offset="0.35766447"
         id="stop476" /><stop
         style="stop-color:#8156b3;stop-opacity:1;"
         offset="1"
         id="stop477" /></linearGradient><inkscape:path-effect
       effect="powerclip"
       id="path-effect475"
       is_visible="true"
       lpeversion="1"
       inverse="true"
       flatten="false"
       hide_clip="false"
       message="Use fill-rule evenodd on &lt;b&gt;fill and stroke&lt;/b&gt; dialog if no flatten result after convert clip to paths." /><inkscape:path-effect
       effect="powerclip"
       id="path-effect473"
       is_visible="true"
       lpeversion="1"
       inverse="true"
       flatten="false"
       hide_clip="false"
       message="Use fill-rule evenodd on &lt;b&gt;fill and stroke&lt;/b&gt; dialog if no flatten result after convert clip to paths." /><linearGradient
       id="linearGradient468"
       inkscape:collect="always"><stop
         style="stop-color:#000000;stop-opacity:0.45951861;"
         offset="0"
         id="stop468" /><stop
         style="stop-color:#000000;stop-opacity:0;"
         offset="1"
         id="stop469" /></linearGradient><inkscape:path-effect
       effect="powerclip"
       id="path-effect466"
       is_visible="true"
       lpeversion="1"
       inverse="true"
       flatten="false"
       hide_clip="false"
       message="Use fill-rule evenodd on &lt;b&gt;fill and stroke&lt;/b&gt; dialog if no flatten result after convert clip to paths." /><inkscape:path-effect
       effect="powerclip"
       id="path-effect462"
       is_visible="true"
       lpeversion="1"
       inverse="true"
       flatten="false"
       hide_clip="false"
       message="Use fill-rule evenodd on &lt;b&gt;fill and stroke&lt;/b&gt; dialog if no flatten result after convert clip to paths." /><inkscape:path-effect
       effect="powerclip"
       id="path-effect460"
       is_visible="true"
       lpeversion="1"
       inverse="true"
       flatten="false"
       hide_clip="false"
       message="Use fill-rule evenodd on &lt;b&gt;fill and stroke&lt;/b&gt; dialog if no flatten result after convert clip to paths." /><inkscape:path-effect
       effect="powerclip"
       id="path-effect421"
       is_visible="true"
       lpeversion="1"
       inverse="true"
       flatten="false"
       hide_clip="false"
       message="Use fill-rule evenodd on &lt;b&gt;fill and stroke&lt;/b&gt; dialog if no flatten result after convert clip to paths." /><inkscape:path-effect
       effect="powerclip"
       id="path-effect419"
       is_visible="true"
       lpeversion="1"
       inverse="true"
       flatten="false"
       hide_clip="false"
       message="Use fill-rule evenodd on &lt;b&gt;fill and stroke&lt;/b&gt; dialog if no flatten result after convert clip to paths." /><inkscape:path-effect
       effect="powerclip"
       id="path-effect413"
       is_visible="true"
       lpeversion="1"
       inverse="true"
       flatten="false"
       hide_clip="false"
       message="Use fill-rule evenodd on &lt;b&gt;fill and stroke&lt;/b&gt; dialog if no flatten result after convert clip to paths." /><inkscape:path-effect
       effect="powerclip"
       id="path-effect411"
       is_visible="true"
       lpeversion="1"
       inverse="true"
       flatten="false"
       hide_clip="false"
       message="Use fill-rule evenodd on &lt;b&gt;fill and stroke&lt;/b&gt; dialog if no flatten result after convert clip to paths." /><inkscape:path-effect
       effect="powerclip"
       id="path-effect391"
       is_visible="true"
       lpeversion="1"
       inverse="true"
       flatten="false"
       hide_clip="false"
       message="Use fill-rule evenodd on &lt;b&gt;fill and stroke&lt;/b&gt; dialog if no flatten result after convert clip to paths." /><inkscape:path-effect
       effect="powerclip"
       id="path-effect389"
       is_visible="true"
       lpeversion="1"
       inverse="true"
       flatten="false"
       hide_clip="false"
       message="Use fill-rule evenodd on &lt;b&gt;fill and stroke&lt;/b&gt; dialog if no flatten result after convert clip to paths." /><inkscape:path-effect
       effect="powerclip"
       id="path-effect387"
       is_visible="true"
       lpeversion="1"
       inverse="true"
       flatten="false"
       hide_clip="false"
       message="Use fill-rule evenodd on &lt;b&gt;fill and stroke&lt;/b&gt; dialog if no flatten result after convert clip to paths." /><inkscape:path-effect
       effect="powerclip"
       id="path-effect386"
       is_visible="true"
       lpeversion="1"
       inverse="true"
       flatten="false"
       hide_clip="false"
       message="Use fill-rule evenodd on &lt;b&gt;fill and stroke&lt;/b&gt; dialog if no flatten result after convert clip to paths." /><inkscape:path-effect
       effect="powerclip"
       id="path-effect382"
       is_visible="true"
       lpeversion="1"
       inverse="true"
       flatten="false"
       hide_clip="false"
       message="Use fill-rule evenodd on &lt;b&gt;fill and stroke&lt;/b&gt; dialog if no flatten result after convert clip to paths." /><inkscape:path-effect
       effect="powerclip"
       id="path-effect381"
       is_visible="true"
       lpeversion="1"
       inverse="true"
       flatten="false"
       hide_clip="false"
       message="Use fill-rule evenodd on &lt;b&gt;fill and stroke&lt;/b&gt; dialog if no flatten result after convert clip to paths." /><inkscape:path-effect
       effect="powerclip"
       id="path-effect380"
       is_visible="true"
       lpeversion="1"
       inverse="true"
       flatten="false"
       hide_clip="false"
       message="Use fill-rule evenodd on &lt;b&gt;fill and stroke&lt;/b&gt; dialog if no flatten result after convert clip to paths." /><inkscape:path-effect
       effect="powerclip"
       id="path-effect379"
       is_visible="true"
       lpeversion="1"
       inverse="true"
       flatten="false"
       hide_clip="false"
       message="Use fill-rule evenodd on &lt;b&gt;fill and stroke&lt;/b&gt; dialog if no flatten result after convert clip to paths." /><inkscape:path-effect
       effect="powerclip"
       id="path-effect378"
       is_visible="true"
       lpeversion="1"
       inverse="true"
       flatten="false"
       hide_clip="false"
       message="Use fill-rule evenodd on &lt;b&gt;fill and stroke&lt;/b&gt; dialog if no flatten result after convert clip to paths." /><inkscape:path-effect
       effect="powerclip"
       id="path-effect377"
       is_visible="true"
       lpeversion="1"
       inverse="true"
       flatten="false"
       hide_clip="false"
       message="Use fill-rule evenodd on &lt;b&gt;fill and stroke&lt;/b&gt; dialog if no flatten result after convert clip to paths." /><inkscape:path-effect
       effect="powerclip"
       id="path-effect376"
       is_visible="true"
       lpeversion="1"
       inverse="true"
       flatten="false"
       hide_clip="false"
       message="Use fill-rule evenodd on &lt;b&gt;fill and stroke&lt;/b&gt; dialog if no flatten result after convert clip to paths." /><inkscape:path-effect
       effect="powerclip"
       id="path-effect375"
       is_visible="true"
       lpeversion="1"
       inverse="true"
       flatten="false"
       hide_clip="false"
       message="Use fill-rule evenodd on &lt;b&gt;fill and stroke&lt;/b&gt; dialog if no flatten result after convert clip to paths." /><inkscape:path-effect
       effect="fillet_chamfer"
       id="path-effect298"
       is_visible="true"
       lpeversion="1"
       nodesatellites_param="F,0,0,1,0,5.49611,0,1 @ F,0,0,1,0,4.7276882,0,1 @ F,0,0,1,0,0,0,1 @ F,0,0,1,0,0,0,1 @ F,0,0,1,0,3.9689723,0,1 @ F,0,0,1,0,2.3962181,0,1 @ F,0,0,1,0,0,0,1 @ F,0,0,1,0,0,0,1 @ F,0,0,1,0,2.4738797,0,1"
       radius="0"
       unit="px"
       method="auto"
       mode="F"
       chamfer_steps="1"
       flexible="false"
       use_knot_distance="true"
       apply_no_radius="true"
       apply_with_radius="true"
       only_selected="false"
       hide_knots="false" /><inkscape:path-effect
       effect="fillet_chamfer"
       id="path-effect199"
       is_visible="true"
       lpeversion="1"
       nodesatellites_param="F,0,0,1,0,3.1078,0,1 @ F,0,0,1,0,1.0048,0,1 @ F,0,0,1,0,1.8934,0,1 @ F,0,0,1,0,0.6146,0,1 @ F,0,0,1,0,0.6146,0,1 @ F,0,0,1,0,0.9211,0,1 @ F,0,0,1,0,3.1078,0,1 @ F,0,0,1,0,1.4328,0,1 @ F,0,0,1,0,2.2029,0,1 @ F,0,0,1,0,0,0,1 @ F,0,0,1,0,0,0,1 @ F,0,0,1,0,0,0,1 @ F,0,0,1,0,0,0,1 @ F,0,0,1,0,2.2029,0,1 @ F,0,0,1,0,1.4328,0,1"
       radius="0"
       unit="px"
       method="auto"
       mode="F"
       chamfer_steps="1"
       flexible="false"
       use_knot_distance="true"
       apply_no_radius="true"
       apply_with_radius="true"
       only_selected="false"
       hide_knots="false" /><inkscape:path-effect
       effect="fillet_chamfer"
       id="path-effect167"
       is_visible="true"
       lpeversion="1"
       nodesatellites_param="F,0,0,1,0,1.0048053,0,1 @ F,0,0,1,0,3.1078071,0,1 @ F,0,0,1,0,1.2185917,0,1 @ F,0,0,1,0,2.2144032,0,1 @ F,0,0,1,0,0,0,1 @ F,0,0,1,0,0,0,1 @ F,0,0,1,0,0,0,1 @ F,0,0,1,0,0,0,1 @ F,0,0,1,0,2.2028873,0,1 @ F,0,0,1,0,1.4327914,0,1 @ F,0,0,1,0,3.1805984,0,1 @ F,0,0,1,0,0.92105664,0,1 @ F,0,0,1,0,0.65174195,0,1 @ F,0,0,1,0,0.61462151,0,1 @ F,0,0,1,0,1.8934467,0,1"
       radius="0"
       unit="px"
       method="auto"
       mode="F"
       chamfer_steps="1"
       flexible="false"
       use_knot_distance="true"
       apply_no_radius="true"
       apply_with_radius="true"
       only_selected="false"
       hide_knots="false" /><linearGradient
       id="linearGradient1"
       inkscape:collect="always"><stop
         style="stop-color:#000000;stop-opacity:0.34;"
         offset="0"
         id="stop1" /><stop
         style="stop-color:#000000;stop-opacity:0;"
         offset="1"
         id="stop6" /></linearGradient><linearGradient
       id="linearGradient3"
       inkscape:collect="always"><stop
         style="stop-color:#000000;stop-opacity:0.38175675;"
         offset="0"
         id="stop4" /><stop
         style="stop-color:#000000;stop-opacity:0;"
         offset="1"
         id="stop5" /></linearGradient><inkscape:path-effect
       effect="fillet_chamfer"
       id="path-effect28"
       is_visible="true"
       lpeversion="1"
       nodesatellites_param="F,0,0,1,0,1.0048053,0,1 @ F,0,0,1,0,3.1078071,0,1 @ F,0,0,1,0,1.2185917,0,1 @ F,0,0,1,0,2.2144032,0,1 @ F,0,0,1,0,0,0,1 @ F,0,0,1,0,0,0,1 @ F,0,0,1,0,0,0,1 @ F,0,0,1,0,0,0,1 @ F,0,0,1,0,2.2028873,0,1 @ F,0,0,1,0,1.4327914,0,1 @ F,0,0,1,0,3.1805984,0,1 @ F,0,0,1,0,0.92105664,0,1 @ F,0,0,1,0,0.65174195,0,1 @ F,0,0,1,0,0.61462151,0,1 @ F,0,0,1,0,1.8934467,0,1"
       radius="0"
       unit="px"
       method="auto"
       mode="F"
       chamfer_steps="1"
       flexible="false"
       use_knot_distance="true"
       apply_no_radius="true"
       apply_with_radius="true"
       only_selected="false"
       hide_knots="false" /><inkscape:path-effect
       effect="fillet_chamfer"
       id="path-effect27"
       is_visible="true"
       lpeversion="1"
       nodesatellites_param="F,0,0,1,0,0,0,1 @ F,0,0,1,0,0,0,1 @ F,0,0,1,0,0,0,1 @ F,0,0,1,0,0,0,1 @ F,0,0,1,0,0,0,1 @ F,0,0,1,0,0,0,1 @ F,0,0,1,0,0,0,1 @ F,0,0,1,0,0,0,1 @ F,0,0,1,0,0,0,1 @ F,0,0,1,0,0,0,1 @ F,0,0,1,0,0,0,1 @ F,0,0,1,0,0,0,1 @ F,0,0,1,0,0,0,1 @ F,0,0,1,0,0,0,1 @ F,0,0,1,0,0,0,1"
       radius="0"
       unit="px"
       method="auto"
       mode="F"
       chamfer_steps="1"
       flexible="false"
       use_knot_distance="true"
       apply_no_radius="true"
       apply_with_radius="true"
       only_selected="false"
       hide_knots="false" /><inkscape:path-effect
       effect="fillet_chamfer"
       id="path-effect26"
       is_visible="true"
       lpeversion="1"
       nodesatellites_param="F,0,0,1,0,0,0,1 @ F,0,0,1,0,0,0,1 @ F,0,0,1,0,0,0,1 @ F,0,0,1,0,0,0,1 @ F,0,0,1,0,0,0,1 @ F,0,0,1,0,0,0,1 @ F,0,0,1,0,0,0,1 | F,0,0,1,0,0,0,1 @ F,0,0,1,0,0,0,1 @ F,0,0,1,0,0,0,1 @ F,0,0,1,0,0,0,1 @ F,0,0,1,0,0,0,1 @ F,0,0,1,0,0,0,1 @ F,0,0,1,0,0,0,1 @ F,0,0,1,0,0,0,1 @ F,0,0,1,0,0,0,1 @ F,0,0,1,0,0,0,1 @ F,0,0,1,0,0,0,1"
       radius="0"
       unit="px"
       method="auto"
       mode="F"
       chamfer_steps="1"
       flexible="false"
       use_knot_distance="true"
       apply_no_radius="true"
       apply_with_radius="true"
       only_selected="false"
       hide_knots="false" /><inkscape:path-effect
       effect="fillet_chamfer"
       id="path-effect25"
       is_visible="true"
       lpeversion="1"
       nodesatellites_param="F,0,0,1,0,0,0,1 @ F,0,0,1,0,0,0,1 @ F,0,0,1,0,0,0,1 @ F,0,0,1,0,0,0,1 @ F,0,0,1,0,0,0,1 @ F,0,0,1,0,0,0,1 @ F,0,0,1,0,0,0,1 | F,0,0,1,0,0,0,1 @ F,0,0,1,0,0,0,1 @ F,0,0,1,0,0,0,1 @ F,0,0,1,0,0,0,1 @ F,0,0,1,0,0,0,1 @ F,0,0,1,0,0,0,1 @ F,0,0,1,0,0,0,1 @ F,0,0,1,0,0,0,1 @ F,0,0,1,0,0,0,1 @ F,0,0,1,0,0,0,1 @ F,0,0,1,0,0,0,1"
       radius="0"
       unit="px"
       method="auto"
       mode="F"
       chamfer_steps="1"
       flexible="false"
       use_knot_distance="true"
       apply_no_radius="true"
       apply_with_radius="true"
       only_selected="false"
       hide_knots="false" /><inkscape:path-effect
       effect="fillet_chamfer"
       id="path-effect24"
       is_visible="true"
       lpeversion="1"
       nodesatellites_param="F,0,0,1,0,0,0,1 @ F,0,0,1,0,0,0,1 @ F,0,0,1,0,0,0,1 @ F,0,0,1,0,0,0,1 @ F,0,0,1,0,0,0,1 @ F,0,0,1,0,0,0,1 @ F,0,1,1,0,0,0,1 @ F,0,0,1,0,0,0,1 | F,0,0,1,0,0,0,1 @ F,0,0,1,0,0,0,1 @ F,0,0,1,0,0,0,1 @ F,0,0,1,0,0,0,1 @ F,0,0,1,0,0,0,1 @ F,0,0,1,0,0,0,1 @ F,0,1,1,0,0,0,1 @ F,0,0,1,0,0,0,1 @ F,0,0,1,0,0,0,1 @ F,0,0,1,0,0,0,1 @ F,0,0,1,0,0,0,1 @ F,0,0,1,0,0,0,1"
       radius="0"
       unit="px"
       method="auto"
       mode="F"
       chamfer_steps="1"
       flexible="false"
       use_knot_distance="true"
       apply_no_radius="true"
       apply_with_radius="true"
       only_selected="false"
       hide_knots="false" /><inkscape:path-effect
       effect="mirror_symmetry"
       start_point="105,199.64751"
       end_point="105,249.26128"
       center_point="105,224.4544"
       id="path-effect23"
       is_visible="true"
       lpeversion="1.2"
       lpesatellites=""
       mode="free"
       discard_orig_path="false"
       fuse_paths="false"
       oposite_fuse="false"
       split_items="false"
       split_open="false"
       link_styles="false" /><inkscape:path-effect
       effect="fillet_chamfer"
       id="path-effect22"
       is_visible="true"
       lpeversion="1"
       nodesatellites_param="F,0,0,1,0,3.2876873,0,1 @ F,0,0,1,0,0,0,1 @ F,0,0,1,0,0,0,1 @ F,0,0,1,0,0,0,1 @ F,0,0,1,0,0,0,1 @ F,0,0,1,0,2.2978901,0,1 @ F,0,0,1,0,0.91958839,0,1"
       radius="0"
       unit="px"
       method="auto"
       mode="F"
       chamfer_steps="1"
       flexible="false"
       use_knot_distance="true"
       apply_no_radius="true"
       apply_with_radius="true"
       only_selected="false"
       hide_knots="false" /><inkscape:path-effect
       effect="powermask"
       id="path-effect11"
       is_visible="true"
       lpeversion="1"
       uri="#mask-powermask-path-effect11"
       invert="false"
       hide_mask="false"
       background="true"
       background_color="#ffffffff" /><clipPath
       clipPathUnits="userSpaceOnUse"
       id="clipPath14"><g
         id="g15"
         transform="translate(18.798913,1.2532607)"><use
           x="0"
           y="0"
           xlink:href="#g12"
           id="use14" /></g></clipPath><filter
       id="mask-powermask-path-effect17_inverse"
       inkscape:label="filtermask-powermask-path-effect17"
       style="color-interpolation-filters:sRGB"
       height="100"
       width="100"
       x="-50"
       y="-50"><feColorMatrix
         id="mask-powermask-path-effect17_primitive1"
         values="1"
         type="saturate"
         result="fbSourceGraphic" /><feColorMatrix
         id="mask-powermask-path-effect17_primitive2"
         values="-1 0 0 0 1 0 -1 0 0 1 0 0 -1 0 1 0 0 0 1 0 "
         in="fbSourceGraphic" /></filter><clipPath
       clipPathUnits="userSpaceOnUse"
       id="clipPath368"><path
         id="path368"
         style="display:block;opacity:1;fill:#ff5555;fill-opacity:1;stroke-width:0.277336"
         d="M 90.516795,102.64406 111.11441,81.980595 a 0.99940036,0.99940036 0 0 1 1.41717,0.0021 l 8.23005,8.292719 a 0.77329837,0.77329837 0 0 0 1.32216,-0.54946 l -0.009,-1.47797 a 0.60858887,0.60858887 0 0 1 0.61085,-0.61231 l 3.49146,0.01291 a 0.61645575,0.61645575 0 0 1 0.61416,0.616879 l -0.005,7.132121 a 2.2193072,2.2193072 0 0 0 0.65115,1.571948 l 5.68828,5.680118 a 1.2810241,1.2810241 0 0 1 -0.90868,2.18749 l -6.08724,-0.0166 a 1.4326682,1.4326682 0 0 0 -1.43656,1.42889 l -0.0485,18.39961 a 2.1976117,2.1976117 0 0 0 2.19709,2.2034 l 6.37383,0.001 -0.0134,4.02932 H 90.445323 l -0.01339,-4.02932 6.373831,-0.001 a 2.1976117,2.1976117 0 0 0 2.197089,-2.2034 l -0.0485,-18.39961 a 1.4326682,1.4326682 0 0 0 -1.436572,-1.42889 l -6.087229,0.0166 a 1.2852307,1.2852307 0 0 1 -0.913749,-2.19257 z"
         sodipodi:nodetypes="cccccccccccccccc"
         inkscape:label="Path" /></clipPath><clipPath
       clipPathUnits="userSpaceOnUse"
       id="clipPath369"><path
         id="path369"
         style="display:block;opacity:1;fill:#ff5555;fill-opacity:1;stroke-width:0.277336"
         d="M 90.516795,102.64406 111.11441,81.980595 a 0.99940036,0.99940036 0 0 1 1.41717,0.0021 l 8.23005,8.292719 a 0.77329837,0.77329837 0 0 0 1.32216,-0.54946 l -0.009,-1.47797 a 0.60858887,0.60858887 0 0 1 0.61085,-0.61231 l 3.49146,0.01291 a 0.61645575,0.61645575 0 0 1 0.61416,0.616879 l -0.005,7.132121 a 2.2193072,2.2193072 0 0 0 0.65115,1.571948 l 5.68828,5.680118 a 1.2810241,1.2810241 0 0 1 -0.90868,2.18749 l -6.08724,-0.0166 a 1.4326682,1.4326682 0 0 0 -1.43656,1.42889 l -0.0485,18.39961 a 2.1976117,2.1976117 0 0 0 2.19709,2.2034 l 6.37383,0.001 -0.0134,4.02932 H 90.445323 l -0.01339,-4.02932 6.373831,-0.001 a 2.1976117,2.1976117 0 0 0 2.197089,-2.2034 l -0.0485,-18.39961 a 1.4326682,1.4326682 0 0 0 -1.436572,-1.42889 l -6.087229,0.0166 a 1.2852307,1.2852307 0 0 1 -0.913749,-2.19257 z"
         sodipodi:nodetypes="cccccccccccccccc"
         inkscape:label="Path" /></clipPath><clipPath
       clipPathUnits="userSpaceOnUse"
       id="clipPath370"><path
         id="path370"
         style="display:block;opacity:1;fill:#ff5555;fill-opacity:1;stroke-width:0.277336"
         d="M 90.516795,102.64406 111.11441,81.980595 a 0.99940036,0.99940036 0 0 1 1.41717,0.0021 l 8.23005,8.292719 a 0.77329837,0.77329837 0 0 0 1.32216,-0.54946 l -0.009,-1.47797 a 0.60858887,0.60858887 0 0 1 0.61085,-0.61231 l 3.49146,0.01291 a 0.61645575,0.61645575 0 0 1 0.61416,0.616879 l -0.005,7.132121 a 2.2193072,2.2193072 0 0 0 0.65115,1.571948 l 5.68828,5.680118 a 1.2810241,1.2810241 0 0 1 -0.90868,2.18749 l -6.08724,-0.0166 a 1.4326682,1.4326682 0 0 0 -1.43656,1.42889 l -0.0485,18.39961 a 2.1976117,2.1976117 0 0 0 2.19709,2.2034 l 6.37383,0.001 -0.0134,4.02932 H 90.445323 l -0.01339,-4.02932 6.373831,-0.001 a 2.1976117,2.1976117 0 0 0 2.197089,-2.2034 l -0.0485,-18.39961 a 1.4326682,1.4326682 0 0 0 -1.436572,-1.42889 l -6.087229,0.0166 a 1.2852307,1.2852307 0 0 1 -0.913749,-2.19257 z"
         sodipodi:nodetypes="cccccccccccccccc"
         inkscape:label="Path" /></clipPath><clipPath
       clipPathUnits="userSpaceOnUse"
       id="clipPath371"><path
         id="path371"
         style="display:none;opacity:1;fill:#ff5555;fill-opacity:1;stroke-width:0.277336"
         d="M 90.516795,102.64406 111.11441,81.980595 a 0.99940036,0.99940036 0 0 1 1.41717,0.0021 l 8.23005,8.292719 a 0.77329837,0.77329837 0 0 0 1.32216,-0.54946 l -0.009,-1.47797 a 0.60858887,0.60858887 0 0 1 0.61085,-0.61231 l 3.49146,0.01291 a 0.61645575,0.61645575 0 0 1 0.61416,0.616879 l -0.005,7.132121 a 2.2193072,2.2193072 0 0 0 0.65115,1.571948 l 5.68828,5.680118 a 1.2810241,1.2810241 0 0 1 -0.90868,2.18749 l -6.08724,-0.0166 a 1.4326682,1.4326682 0 0 0 -1.43656,1.42889 l -0.0485,18.39961 a 2.1976117,2.1976117 0 0 0 2.19709,2.2034 l 6.37383,0.001 -0.0134,4.02932 H 90.445323 l -0.01339,-4.02932 6.373831,-0.001 a 2.1976117,2.1976117 0 0 0 2.197089,-2.2034 l -0.0485,-18.39961 a 1.4326682,1.4326682 0 0 0 -1.436572,-1.42889 l -6.087229,0.0166 a 1.2852307,1.2852307 0 0 1 -0.913749,-2.19257 z"
         sodipodi:nodetypes="cccccccccccccccc"
         inkscape:label="Path" /></clipPath><clipPath
       clipPathUnits="userSpaceOnUse"
       id="clipPath372"><path
         id="path372"
         style="display:none;opacity:1;fill:#ff5555;fill-opacity:1;stroke-width:0.277336"
         d="M 90.516795,102.64406 111.11441,81.980595 a 0.99940036,0.99940036 0 0 1 1.41717,0.0021 l 8.23005,8.292719 a 0.77329837,0.77329837 0 0 0 1.32216,-0.54946 l -0.009,-1.47797 a 0.60858887,0.60858887 0 0 1 0.61085,-0.61231 l 3.49146,0.01291 a 0.61645575,0.61645575 0 0 1 0.61416,0.616879 l -0.005,7.132121 a 2.2193072,2.2193072 0 0 0 0.65115,1.571948 l 5.68828,5.680118 a 1.2810241,1.2810241 0 0 1 -0.90868,2.18749 l -6.08724,-0.0166 a 1.4326682,1.4326682 0 0 0 -1.43656,1.42889 l -0.0485,18.39961 a 2.1976117,2.1976117 0 0 0 2.19709,2.2034 l 6.37383,0.001 -0.0134,4.02932 H 90.445323 l -0.01339,-4.02932 6.373831,-0.001 a 2.1976117,2.1976117 0 0 0 2.197089,-2.2034 l -0.0485,-18.39961 a 1.4326682,1.4326682 0 0 0 -1.436572,-1.42889 l -6.087229,0.0166 a 1.2852307,1.2852307 0 0 1 -0.913749,-2.19257 z"
         sodipodi:nodetypes="cccccccccccccccc"
         inkscape:label="Path" /></clipPath><clipPath
       clipPathUnits="userSpaceOnUse"
       id="clipPath373"><path
         id="path373"
         style="display:block;opacity:1;fill:#ff5555;fill-opacity:1;stroke-width:0.277336"
         d="M 90.516795,102.64406 111.11441,81.980595 a 0.99940036,0.99940036 0 0 1 1.41717,0.0021 l 8.23005,8.292719 a 0.77329837,0.77329837 0 0 0 1.32216,-0.54946 l -0.009,-1.47797 a 0.60858887,0.60858887 0 0 1 0.61085,-0.61231 l 3.49146,0.01291 a 0.61645575,0.61645575 0 0 1 0.61416,0.616879 l -0.005,7.132121 a 2.2193072,2.2193072 0 0 0 0.65115,1.571948 l 5.68828,5.680118 a 1.2810241,1.2810241 0 0 1 -0.90868,2.18749 l -6.08724,-0.0166 a 1.4326682,1.4326682 0 0 0 -1.43656,1.42889 l -0.0485,18.39961 a 2.1976117,2.1976117 0 0 0 2.19709,2.2034 l 6.37383,0.001 -0.0134,4.02932 H 90.445323 l -0.01339,-4.02932 6.373831,-0.001 a 2.1976117,2.1976117 0 0 0 2.197089,-2.2034 l -0.0485,-18.39961 a 1.4326682,1.4326682 0 0 0 -1.436572,-1.42889 l -6.087229,0.0166 a 1.2852307,1.2852307 0 0 1 -0.913749,-2.19257 z"
         sodipodi:nodetypes="cccccccccccccccc"
         inkscape:label="Path" /></clipPath><clipPath
       clipPathUnits="userSpaceOnUse"
       id="clipPath374"><path
         id="path374"
         style="display:block;opacity:1;fill:#ff5555;fill-opacity:1;stroke-width:0.277336"
         d="M 90.516795,102.64406 111.11441,81.980595 a 0.99940036,0.99940036 0 0 1 1.41717,0.0021 l 8.23005,8.292719 a 0.77329837,0.77329837 0 0 0 1.32216,-0.54946 l -0.009,-1.47797 a 0.60858887,0.60858887 0 0 1 0.61085,-0.61231 l 3.49146,0.01291 a 0.61645575,0.61645575 0 0 1 0.61416,0.616879 l -0.005,7.132121 a 2.2193072,2.2193072 0 0 0 0.65115,1.571948 l 5.68828,5.680118 a 1.2810241,1.2810241 0 0 1 -0.90868,2.18749 l -6.08724,-0.0166 a 1.4326682,1.4326682 0 0 0 -1.43656,1.42889 l -0.0485,18.39961 a 2.1976117,2.1976117 0 0 0 2.19709,2.2034 l 6.37383,0.001 -0.0134,4.02932 H 90.445323 l -0.01339,-4.02932 6.373831,-0.001 a 2.1976117,2.1976117 0 0 0 2.197089,-2.2034 l -0.0485,-18.39961 a 1.4326682,1.4326682 0 0 0 -1.436572,-1.42889 l -6.087229,0.0166 a 1.2852307,1.2852307 0 0 1 -0.913749,-2.19257 z"
         sodipodi:nodetypes="cccccccccccccccc"
         inkscape:label="Path" /></clipPath><clipPath
       clipPathUnits="userSpaceOnUse"
       id="clipPath375"><path
         id="path375"
         style="display:block;opacity:1;fill:#ff5555;fill-opacity:1;stroke-width:0.277336"
         d="M 90.516795,102.64406 111.11441,81.980595 a 0.99940036,0.99940036 0 0 1 1.41717,0.0021 l 8.23005,8.292719 a 0.77329837,0.77329837 0 0 0 1.32216,-0.54946 l -0.009,-1.47797 a 0.60858887,0.60858887 0 0 1 0.61085,-0.61231 l 3.49146,0.01291 a 0.61645575,0.61645575 0 0 1 0.61416,0.616879 l -0.005,7.132121 a 2.2193072,2.2193072 0 0 0 0.65115,1.571948 l 5.68828,5.680118 a 1.2810241,1.2810241 0 0 1 -0.90868,2.18749 l -6.08724,-0.0166 a 1.4326682,1.4326682 0 0 0 -1.43656,1.42889 l -0.0485,18.39961 a 2.1976117,2.1976117 0 0 0 2.19709,2.2034 l 6.37383,0.001 -0.0134,4.02932 H 90.445323 l -0.01339,-4.02932 6.373831,-0.001 a 2.1976117,2.1976117 0 0 0 2.197089,-2.2034 l -0.0485,-18.39961 a 1.4326682,1.4326682 0 0 0 -1.436572,-1.42889 l -6.087229,0.0166 a 1.2852307,1.2852307 0 0 1 -0.913749,-2.19257 z"
         sodipodi:nodetypes="cccccccccccccccc"
         inkscape:label="Path" /></clipPath><clipPath
       clipPathUnits="userSpaceOnUse"
       id="clipath_lpe_path-effect386"><path
         id="path386"
         style="display:none;opacity:1;fill:#ff5555;fill-opacity:1;stroke-width:0.277336"
         d="M 90.516795,102.64406 111.11441,81.980595 a 0.99940036,0.99940036 0 0 1 1.41717,0.0021 l 8.23005,8.292719 a 0.77329837,0.77329837 0 0 0 1.32216,-0.54946 l -0.009,-1.47797 a 0.60858887,0.60858887 0 0 1 0.61085,-0.61231 l 3.49146,0.01291 a 0.61645575,0.61645575 0 0 1 0.61416,0.616879 l -0.005,7.132121 a 2.2193072,2.2193072 0 0 0 0.65115,1.571948 l 5.68828,5.680118 a 1.2810241,1.2810241 0 0 1 -0.90868,2.18749 l -6.08724,-0.0166 a 1.4326682,1.4326682 0 0 0 -1.43656,1.42889 l -0.0485,18.39961 a 2.1976117,2.1976117 0 0 0 2.19709,2.2034 l 6.37383,0.001 -0.0134,4.02932 H 90.445323 l -0.01339,-4.02932 6.373831,-0.001 a 2.1976117,2.1976117 0 0 0 2.197089,-2.2034 l -0.0485,-18.39961 a 1.4326682,1.4326682 0 0 0 -1.436572,-1.42889 l -6.087229,0.0166 a 1.2852307,1.2852307 0 0 1 -0.913749,-2.19257 z"
         sodipodi:nodetypes="cccccccccccccccc"
         inkscape:label="Path" /><path
         id="lpe_path-effect386"
         style="display:block;opacity:1;fill:#ff5555;fill-opacity:1;stroke-width:0.277336"
         class="powerclip"
         d="m 126.43158,79.336979 h 52.51471 v 52.514701 h -52.51471 z m -35.914785,23.307081 8e-6,5.1e-4 a 1.2852307,1.2852307 0 0 0 0.913749,2.19257 l 6.087229,-0.0166 a 1.4326682,1.4326682 0 0 1 1.436572,1.42889 l 0.0485,18.39961 a 2.1976117,2.1976117 0 0 1 -2.197089,2.2034 l -6.373831,0.001 0.01339,4.02932 h 42.756907 l 0.0134,-4.02932 -6.37383,-0.001 a 2.1976117,2.1976117 0 0 1 -2.19709,-2.2034 l 0.0485,-18.39961 a 1.4326682,1.4326682 0 0 1 1.43656,-1.42889 l 6.08724,0.0166 a 1.2810241,1.2810241 0 0 0 0.90868,-2.18749 l -5.68828,-5.680118 a 2.2193072,2.2193072 0 0 1 -0.65115,-1.571948 l 0.005,-7.132121 a 0.61645575,0.61645575 0 0 0 -0.61416,-0.616879 l -3.49146,-0.01291 a 0.60858887,0.60858887 0 0 0 -0.61085,0.61231 l 0.009,1.47797 a 0.77329837,0.77329837 0 0 1 -1.32216,0.54946 l -8.23005,-8.292719 a 0.99940036,0.99940036 0 0 0 -1.41717,-0.0021 z" /></clipPath><clipPath
       clipPathUnits="userSpaceOnUse"
       id="clipPath387"><path
         style="display:block;fill:#008000;fill-opacity:1;stroke-width:0.244775"
         id="path387"
         clip-path="url(#clipath_lpe_path-effect386)"
         inkscape:label="mask"
         d="m 173.94629,105.59433 a 21.257351,21.257351 0 0 1 -21.25736,21.25735 21.257351,21.257351 0 0 1 -21.25735,-21.25735 21.257351,21.257351 0 0 1 21.25735,-21.257351 21.257351,21.257351 0 0 1 21.25736,21.257351 z"
         sodipodi:type="arc"
         sodipodi:ry="21.257351"
         sodipodi:rx="21.257351"
         sodipodi:cy="105.59433"
         sodipodi:cx="152.68893"
         inkscape:path-effect="#path-effect386" /></clipPath><clipPath
       clipPathUnits="userSpaceOnUse"
       id="clipath_lpe_path-effect389"><path
         id="path389"
         style="display:none;opacity:1;fill:#ff5555;fill-opacity:1;stroke-width:0.277336"
         d="M 90.516795,102.64406 111.11441,81.980595 a 0.99940036,0.99940036 0 0 1 1.41717,0.0021 l 8.23005,8.292719 a 0.77329837,0.77329837 0 0 0 1.32216,-0.54946 l -0.009,-1.47797 a 0.60858887,0.60858887 0 0 1 0.61085,-0.61231 l 3.49146,0.01291 a 0.61645575,0.61645575 0 0 1 0.61416,0.616879 l -0.005,7.132121 a 2.2193072,2.2193072 0 0 0 0.65115,1.571948 l 5.68828,5.680118 a 1.2810241,1.2810241 0 0 1 -0.90868,2.18749 l -6.08724,-0.0166 a 1.4326682,1.4326682 0 0 0 -1.43656,1.42889 l -0.0485,18.39961 a 2.1976117,2.1976117 0 0 0 2.19709,2.2034 l 6.37383,0.001 -0.0134,4.02932 H 90.445323 l -0.01339,-4.02932 6.373831,-0.001 a 2.1976117,2.1976117 0 0 0 2.197089,-2.2034 l -0.0485,-18.39961 a 1.4326682,1.4326682 0 0 0 -1.436572,-1.42889 l -6.087229,0.0166 a 1.2852307,1.2852307 0 0 1 -0.913749,-2.19257 z"
         sodipodi:nodetypes="cccccccccccccccc"
         inkscape:label="Path" /><path
         id="lpe_path-effect389"
         style="display:block;opacity:1;fill:#ff5555;fill-opacity:1;stroke-width:0.277336"
         class="powerclip"
         d="M 28.421995,70.959089 H 89.314577 V 131.85167 H 28.421995 Z m 62.0948,31.684971 8e-6,5.1e-4 a 1.2852307,1.2852307 0 0 0 0.913749,2.19257 l 6.087229,-0.0166 a 1.4326682,1.4326682 0 0 1 1.436572,1.42889 l 0.0485,18.39961 a 2.1976117,2.1976117 0 0 1 -2.197089,2.2034 l -6.373831,0.001 0.01339,4.02932 h 42.756907 l 0.0134,-4.02932 -6.37383,-0.001 a 2.1976117,2.1976117 0 0 1 -2.19709,-2.2034 l 0.0485,-18.39961 a 1.4326682,1.4326682 0 0 1 1.43656,-1.42889 l 6.08724,0.0166 a 1.2810241,1.2810241 0 0 0 0.90868,-2.18749 l -5.68828,-5.680118 a 2.2193072,2.2193072 0 0 1 -0.65115,-1.571948 l 0.005,-7.132121 a 0.61645575,0.61645575 0 0 0 -0.61416,-0.616879 l -3.49146,-0.01291 a 0.60858887,0.60858887 0 0 0 -0.61085,0.61231 l 0.009,1.47797 a 0.77329837,0.77329837 0 0 1 -1.32216,0.54946 l -8.23005,-8.292719 a 0.99940036,0.99940036 0 0 0 -1.41717,-0.0021 z" /></clipPath><clipPath
       clipPathUnits="userSpaceOnUse"
       id="clipPath391"><path
         style="display:block;fill:#008000;fill-opacity:1;stroke-width:0.254456"
         id="path391"
         clip-path="url(#clipath_lpe_path-effect389)"
         inkscape:label="mask"
         d="M 84.314577,101.40538 A 25.446291,25.446291 0 0 1 58.868286,126.85167 25.446291,25.446291 0 0 1 33.421995,101.40538 25.446291,25.446291 0 0 1 58.868286,75.959089 25.446291,25.446291 0 0 1 84.314577,101.40538 Z"
         sodipodi:type="arc"
         sodipodi:ry="25.446291"
         sodipodi:rx="25.446291"
         sodipodi:cy="101.40538"
         sodipodi:cx="58.868286"
         inkscape:path-effect="#path-effect389" /></clipPath><clipPath
       clipPathUnits="userSpaceOnUse"
       id="clipPath410"><path
         id="lpe_path-effect411"
         style="display:inline;fill:#008000;fill-opacity:1;stroke-width:0.244775"
         class="powerclip"
         d="M 68.174004,44.879997 H 154.63947 V 131.34547 H 68.174004 Z M 173.94629,105.59433 a 21.257351,21.257351 0 0 0 -21.25736,-21.257351 21.257351,21.257351 0 0 0 -21.25735,21.257351 21.257351,21.257351 0 0 0 21.25735,21.25735 21.257351,21.257351 0 0 0 21.25736,-21.25735 z" /></clipPath><clipPath
       clipPathUnits="userSpaceOnUse"
       id="clipPath412"><path
         id="lpe_path-effect413"
         style="display:inline;fill:#008000;fill-opacity:1;stroke-width:0.254456"
         class="powerclip"
         d="M 68.174004,44.879997 H 154.63947 V 131.34547 H 68.174004 Z M 84.314577,101.40537 A 25.446291,25.446291 0 0 0 58.868286,75.959082 25.446291,25.446291 0 0 0 33.421995,101.40537 25.446291,25.446291 0 0 0 58.868286,126.85166 25.446291,25.446291 0 0 0 84.314577,101.40537 Z" /></clipPath><clipPath
       clipPathUnits="userSpaceOnUse"
       id="clipath_lpe_path-effect419"><circle
         style="display:none;fill:#008000;fill-opacity:1;stroke-width:0.244775"
         id="circle421"
         r="21.257351"
         cy="105.59433"
         cx="152.68893" /></clipPath><clipPath
       clipPathUnits="userSpaceOnUse"
       id="clipath_lpe_path-effect421"><circle
         style="display:none;fill:#008000;fill-opacity:1;stroke-width:0.254456"
         id="circle422"
         r="25.446291"
         cy="101.40537"
         cx="58.868286" /></clipPath><clipPath
       clipPathUnits="userSpaceOnUse"
       id="clipPath459"><path
         id="path459"
         style="opacity:1;fill:#e9afaf;stroke-width:0.264583"
         d="m 127.52473,96.985799 3.90726,-22.774859 19.02672,-6.682651 2.18782,36.815901 -19.43353,-1.67828 z"
         sodipodi:nodetypes="cccccc" /></clipPath><clipPath
       clipPathUnits="userSpaceOnUse"
       id="clipPath460"><circle
         style="display:none;fill:#e9afaf;fill-opacity:1;stroke-width:0.244775"
         id="circle460"
         inkscape:label="Shadow"
         r="21.257351"
         cy="105.59435"
         cx="152.68935"
         d="M 173.9467,105.59435 A 21.257351,21.257351 0 0 1 152.68935,126.8517 21.257351,21.257351 0 0 1 131.432,105.59435 21.257351,21.257351 0 0 1 152.68935,84.337002 21.257351,21.257351 0 0 1 173.9467,105.59435 Z" /><path
         id="lpe_path-effect460"
         style="display:inline;fill:#e9afaf;fill-opacity:1;stroke-width:0.244775"
         class="powerclip"
         d="M 68.174004,44.879997 H 154.63947 V 131.34547 H 68.174004 Z M 173.9467,105.59435 A 21.257351,21.257351 0 0 0 152.68935,84.337002 21.257351,21.257351 0 0 0 131.432,105.59435 21.257351,21.257351 0 0 0 152.68935,126.8517 21.257351,21.257351 0 0 0 173.9467,105.59435 Z" /></clipPath><radialGradient
       inkscape:collect="always"
       xlink:href="#linearGradient3"
       id="radialGradient462"
       gradientUnits="userSpaceOnUse"
       gradientTransform="matrix(0.42157749,-0.11072849,0.11490226,0.43746838,20.699837,49.226114)"
       cx="254.34525"
       cy="166.80063"
       fx="254.34525"
       fy="166.80063"
       r="38.232735" /><clipPath
       clipPathUnits="userSpaceOnUse"
       id="clipPath462"><path
         id="path462"
         style="display:block;fill:#ff5555;fill-opacity:1;stroke-width:0.277336"
         d="M 90.604121,102.66043 111.20174,81.996968 a 0.99940036,0.99940036 0 0 1 1.41716,0.0021 l 8.23005,8.292722 a 0.77329837,0.77329837 0 0 0 1.32216,-0.549461 l -0.009,-1.47797 a 0.60858887,0.60858887 0 0 1 0.61084,-0.612309 l 3.49146,0.01288 a 0.61645575,0.61645575 0 0 1 0.61417,0.616881 l -0.005,7.132119 a 2.2193072,2.2193072 0 0 0 0.65114,1.57195 l 5.68828,5.68011 a 1.2810241,1.2810241 0 0 1 -0.90867,2.18749 l -6.08724,-0.0166 a 1.4326682,1.4326682 0 0 0 -1.43657,1.42889 l -0.0485,18.39961 a 2.1976117,2.1976117 0 0 0 2.19709,2.2034 l 6.37383,0.001 -0.0134,4.02932 H 90.532652 l -0.01341,-4.02932 6.373831,-0.001 a 2.1976117,2.1976117 0 0 0 2.19709,-2.2034 l -0.0485,-18.39961 a 1.4326682,1.4326682 0 0 0 -1.436571,-1.42889 l -6.087229,0.0166 a 1.2852307,1.2852307 0 0 1 -0.913752,-2.19257 z"
         sodipodi:nodetypes="cccccccccccccccc"
         inkscape:label="Path" /></clipPath><radialGradient
       inkscape:collect="always"
       xlink:href="#linearGradient3"
       id="radialGradient463"
       gradientUnits="userSpaceOnUse"
       gradientTransform="matrix(0.51755069,-0.21909998,0.17975586,0.42461334,-2.204169,73.799393)"
       cx="105.52544"
       cy="91.25843"
       fx="105.52544"
       fy="91.25843"
       r="38.232735" /><radialGradient
       inkscape:collect="always"
       xlink:href="#linearGradient8"
       id="radialGradient464"
       gradientUnits="userSpaceOnUse"
       gradientTransform="matrix(0.1926634,1.2370958,-1.4068431,0.21909963,257.59445,110.465)"
       cx="12.643635"
       cy="143.44411"
       fx="12.643635"
       fy="143.44411"
       r="25.446291" /><radialGradient
       inkscape:collect="always"
       xlink:href="#linearGradient1"
       id="radialGradient465"
       gradientUnits="userSpaceOnUse"
       gradientTransform="matrix(-1.3061792,-2.6646212,0.99476143,-0.48762531,335.49862,695.89622)"
       cx="182.55319"
       cy="93.99865"
       fx="182.55319"
       fy="93.99865"
       r="21.257351" /><clipPath
       clipPathUnits="userSpaceOnUse"
       id="clipath_lpe_path-effect466"><path
         id="lpe_path-effect466"
         style="display:inline;fill:#ff5555;fill-opacity:1;stroke-width:0.277336"
         class="powerclip"
         d="M 28.422197,44.879627 H 178.94644 V 131.85167 H 28.422197 Z m 62.181924,57.780803 -1e-5,4.8e-4 a 1.2852307,1.2852307 0 0 0 0.913752,2.19257 l 6.087229,-0.0166 a 1.4326682,1.4326682 0 0 1 1.436571,1.42889 l 0.0485,18.39961 a 2.1976117,2.1976117 0 0 1 -2.19709,2.2034 l -6.373831,0.001 0.01341,4.02932 h 42.756888 l 0.0134,-4.02932 -6.37383,-0.001 a 2.1976117,2.1976117 0 0 1 -2.19709,-2.2034 l 0.0485,-18.39961 a 1.4326682,1.4326682 0 0 1 1.43657,-1.42889 l 6.08724,0.0166 a 1.2810241,1.2810241 0 0 0 0.90867,-2.18749 l -5.68828,-5.68011 a 2.2193072,2.2193072 0 0 1 -0.65114,-1.57195 l 0.005,-7.132119 a 0.61645575,0.61645575 0 0 0 -0.61417,-0.616881 l -3.49146,-0.01288 a 0.60858887,0.60858887 0 0 0 -0.61084,0.612309 l 0.009,1.47797 a 0.77329837,0.77329837 0 0 1 -1.32216,0.549461 l -8.23005,-8.292722 a 0.99940036,0.99940036 0 0 0 -1.41716,-0.0021 z" /></clipPath><linearGradient
       inkscape:collect="always"
       xlink:href="#linearGradient468"
       id="linearGradient469"
       x1="110.41595"
       y1="145.25107"
       x2="109.91728"
       y2="117.20523"
       gradientUnits="userSpaceOnUse" /><clipPath
       clipPathUnits="userSpaceOnUse"
       id="clipath_lpe_path-effect473"><circle
         style="display:none;fill:#e9afaf;fill-opacity:1;stroke-width:0.244775"
         id="circle473"
         inkscape:label="Shadow"
         r="21.257351"
         cy="105.59435"
         cx="152.68935" /></clipPath><clipPath
       clipPathUnits="userSpaceOnUse"
       id="clipath_lpe_path-effect475"><path
         id="path475"
         style="display:block;fill:#ff5555;fill-opacity:1;stroke-width:0.277336"
         d="M 90.604121,102.66043 111.20174,81.996968 a 0.99940036,0.99940036 0 0 1 1.41716,0.0021 l 8.23005,8.292722 a 0.77329837,0.77329837 0 0 0 1.32216,-0.549461 l -0.009,-1.47797 a 0.60858887,0.60858887 0 0 1 0.61084,-0.612309 l 3.49146,0.01288 a 0.61645575,0.61645575 0 0 1 0.61417,0.616881 l -0.005,7.132119 a 2.2193072,2.2193072 0 0 0 0.65114,1.57195 l 5.68828,5.68011 a 1.2810241,1.2810241 0 0 1 -0.90867,2.18749 l -6.08724,-0.0166 a 1.4326682,1.4326682 0 0 0 -1.43657,1.42889 l -0.0485,18.39961 a 2.1976117,2.1976117 0 0 0 2.19709,2.2034 l 6.37383,0.001 -0.0134,4.02932 H 90.532652 l -0.01341,-4.02932 6.373831,-0.001 a 2.1976117,2.1976117 0 0 0 2.19709,-2.2034 l -0.0485,-18.39961 a 1.4326682,1.4326682 0 0 0 -1.436571,-1.42889 l -6.087229,0.0166 a 1.2852307,1.2852307 0 0 1 -0.913752,-2.19257 z"
         sodipodi:nodetypes="cccccccccccccccc"
         inkscape:label="Path" /></clipPath><linearGradient
       inkscape:collect="always"
       xlink:href="#linearGradient476"
       id="linearGradient477"
       x1="34.170551"
       y1="126.15755"
       x2="160.10188"
       y2="30.742336"
       gradientUnits="userSpaceOnUse" /><clipPath
       clipPathUnits="userSpaceOnUse"
       id="clipath_lpe_path-effect12"><path
         id="path12"
         style="display:block;fill:#ff5555;fill-opacity:1;stroke-width:0.277336"
         d="M 90.604121,102.66043 111.20174,81.996968 a 0.99940036,0.99940036 0 0 1 1.41716,0.0021 l 8.23005,8.292722 a 0.77329837,0.77329837 0 0 0 1.32216,-0.549461 l -0.009,-1.47797 a 0.60858887,0.60858887 0 0 1 0.61084,-0.612309 l 3.49146,0.01288 a 0.61645575,0.61645575 0 0 1 0.61417,0.616881 l -0.005,7.132119 a 2.2193072,2.2193072 0 0 0 0.65114,1.57195 l 5.68828,5.68011 a 1.2810241,1.2810241 0 0 1 -0.90867,2.18749 l -6.08724,-0.0166 a 1.4326682,1.4326682 0 0 0 -1.43657,1.42889 l -0.0485,18.39961 a 2.1976117,2.1976117 0 0 0 2.19709,2.2034 l 6.37383,0.001 -0.0134,4.02932 H 90.532652 l -0.01341,-4.02932 6.373831,-0.001 a 2.1976117,2.1976117 0 0 0 2.19709,-2.2034 l -0.0485,-18.39961 a 1.4326682,1.4326682 0 0 0 -1.436571,-1.42889 l -6.087229,0.0166 a 1.2852307,1.2852307 0 0 1 -0.913752,-2.19257 z"
         sodipodi:nodetypes="cccccccccccccccc"
         inkscape:label="Path" /></clipPath><clipPath
       clipPathUnits="userSpaceOnUse"
       id="clipath_lpe_path-effect14"><path
         id="path14"
         style="display:none;fill:#ff5555;fill-opacity:1;stroke-width:0.277336"
         d="M 90.604121,102.66043 111.20174,81.996968 a 0.99940036,0.99940036 0 0 1 1.41716,0.0021 l 8.23005,8.292722 a 0.77329837,0.77329837 0 0 0 1.32216,-0.549461 l -0.009,-1.47797 a 0.60858887,0.60858887 0 0 1 0.61084,-0.612309 l 3.49146,0.01288 a 0.61645575,0.61645575 0 0 1 0.61417,0.616881 l -0.005,7.132119 a 2.2193072,2.2193072 0 0 0 0.65114,1.57195 l 5.68828,5.68011 a 1.2810241,1.2810241 0 0 1 -0.90867,2.18749 l -6.08724,-0.0166 a 1.4326682,1.4326682 0 0 0 -1.43657,1.42889 l -0.0485,18.39961 a 2.1976117,2.1976117 0 0 0 2.19709,2.2034 l 6.37383,0.001 -0.0134,4.02932 H 90.532652 l -0.01341,-4.02932 6.373831,-0.001 a 2.1976117,2.1976117 0 0 0 2.19709,-2.2034 l -0.0485,-18.39961 a 1.4326682,1.4326682 0 0 0 -1.436571,-1.42889 l -6.087229,0.0166 a 1.2852307,1.2852307 0 0 1 -0.913752,-2.19257 z"
         sodipodi:nodetypes="cccccccccccccccc"
         inkscape:label="Path" /><path
         id="lpe_path-effect14"
         style="display:inline;fill:#ff5555;fill-opacity:1;stroke-width:0.277336"
         class="powerclip"
         d="M 28.422197,44.879627 H 178.94644 V 131.85167 H 28.422197 Z m 62.181924,57.780803 -1e-5,4.8e-4 a 1.2852307,1.2852307 0 0 0 0.913752,2.19257 l 6.087229,-0.0166 a 1.4326682,1.4326682 0 0 1 1.436571,1.42889 l 0.0485,18.39961 a 2.1976117,2.1976117 0 0 1 -2.19709,2.2034 l -6.373831,0.001 0.01341,4.02932 h 42.756888 l 0.0134,-4.02932 -6.37383,-0.001 a 2.1976117,2.1976117 0 0 1 -2.19709,-2.2034 l 0.0485,-18.39961 a 1.4326682,1.4326682 0 0 1 1.43657,-1.42889 l 6.08724,0.0166 a 1.2810241,1.2810241 0 0 0 0.90867,-2.18749 l -5.68828,-5.68011 a 2.2193072,2.2193072 0 0 1 -0.65114,-1.57195 l 0.005,-7.132119 a 0.61645575,0.61645575 0 0 0 -0.61417,-0.616881 l -3.49146,-0.01288 a 0.60858887,0.60858887 0 0 0 -0.61084,0.612309 l 0.009,1.47797 a 0.77329837,0.77329837 0 0 1 -1.32216,0.549461 l -8.23005,-8.292722 a 0.99940036,0.99940036 0 0 0 -1.41716,-0.0021 z" /></clipPath><clipPath
       clipPathUnits="userSpaceOnUse"
       id="clipath_lpe_path-effect18"><path
         id="path29"
         style="display:block;fill:#ff5555;fill-opacity:1;stroke-width:0.277336"
         d="M 90.604121,102.66043 111.20174,81.996968 a 0.99940036,0.99940036 0 0 1 1.41716,0.0021 l 8.23005,8.292722 a 0.77329837,0.77329837 0 0 0 1.32216,-0.549461 l -0.009,-1.47797 a 0.60858887,0.60858887 0 0 1 0.61084,-0.612309 l 3.49146,0.01288 a 0.61645575,0.61645575 0 0 1 0.61417,0.616881 l -0.005,7.132119 a 2.2193072,2.2193072 0 0 0 0.65114,1.57195 l 5.68828,5.68011 a 1.2810241,1.2810241 0 0 1 -0.90867,2.18749 l -6.08724,-0.0166 a 1.4326682,1.4326682 0 0 0 -1.43657,1.42889 l -0.0485,18.39961 a 2.1976117,2.1976117 0 0 0 2.19709,2.2034 l 6.37383,0.001 -0.0134,4.02932 H 90.532652 l -0.01341,-4.02932 6.373831,-0.001 a 2.1976117,2.1976117 0 0 0 2.19709,-2.2034 l -0.0485,-18.39961 a 1.4326682,1.4326682 0 0 0 -1.436571,-1.42889 l -6.087229,0.0166 a 1.2852307,1.2852307 0 0 1 -0.913752,-2.19257 z"
         sodipodi:nodetypes="cccccccccccccccc"
         inkscape:label="Path" /></clipPath><clipPath
       clipPathUnits="userSpaceOnUse"
       id="clipath_lpe_path-effect20"><path
         id="path30"
         style="display:block;fill:#ff5555;fill-opacity:1;stroke-width:0.277336"
         d="M 90.604121,102.66043 111.20174,81.996968 a 0.99940036,0.99940036 0 0 1 1.41716,0.0021 l 8.23005,8.292722 a 0.77329837,0.77329837 0 0 0 1.32216,-0.549461 l -0.009,-1.47797 a 0.60858887,0.60858887 0 0 1 0.61084,-0.612309 l 3.49146,0.01288 a 0.61645575,0.61645575 0 0 1 0.61417,0.616881 l -0.005,7.132119 a 2.2193072,2.2193072 0 0 0 0.65114,1.57195 l 5.68828,5.68011 a 1.2810241,1.2810241 0 0 1 -0.90867,2.18749 l -6.08724,-0.0166 a 1.4326682,1.4326682 0 0 0 -1.43657,1.42889 l -0.0485,18.39961 a 2.1976117,2.1976117 0 0 0 2.19709,2.2034 l 6.37383,0.001 -0.0134,4.02932 H 90.532652 l -0.01341,-4.02932 6.373831,-0.001 a 2.1976117,2.1976117 0 0 0 2.19709,-2.2034 l -0.0485,-18.39961 a 1.4326682,1.4326682 0 0 0 -1.436571,-1.42889 l -6.087229,0.0166 a 1.2852307,1.2852307 0 0 1 -0.913752,-2.19257 z"
         sodipodi:nodetypes="cccccccccccccccc"
         inkscape:label="Path" /></clipPath><clipPath
       clipPathUnits="userSpaceOnUse"
       id="clipath_lpe_path-effect29"><path
         id="path31"
         style="display:block;fill:#ff5555;fill-opacity:1;stroke-width:0.277336"
         d="M 90.604121,102.66043 111.20174,81.996968 a 0.99940036,0.99940036 0 0 1 1.41716,0.0021 l 8.23005,8.292722 a 0.77329837,0.77329837 0 0 0 1.32216,-0.549461 l -0.009,-1.47797 a 0.60858887,0.60858887 0 0 1 0.61084,-0.612309 l 3.49146,0.01288 a 0.61645575,0.61645575 0 0 1 0.61417,0.616881 l -0.005,7.132119 a 2.2193072,2.2193072 0 0 0 0.65114,1.57195 l 5.68828,5.68011 a 1.2810241,1.2810241 0 0 1 -0.90867,2.18749 l -6.08724,-0.0166 a 1.4326682,1.4326682 0 0 0 -1.43657,1.42889 l -0.0485,18.39961 a 2.1976117,2.1976117 0 0 0 2.19709,2.2034 l 6.37383,0.001 -0.0134,4.02932 H 90.532652 l -0.01341,-4.02932 6.373831,-0.001 a 2.1976117,2.1976117 0 0 0 2.19709,-2.2034 l -0.0485,-18.39961 a 1.4326682,1.4326682 0 0 0 -1.436571,-1.42889 l -6.087229,0.0166 a 1.2852307,1.2852307 0 0 1 -0.913752,-2.19257 z"
         sodipodi:nodetypes="cccccccccccccccc"
         inkscape:label="Path" /></clipPath><clipPath
       clipPathUnits="userSpaceOnUse"
       id="clipath_lpe_path-effect14-2"><path
         id="path14-4"
         style="display:block;fill:#ff5555;fill-opacity:1;stroke-width:0.277336"
         d="M 90.604121,102.66043 111.20174,81.996968 a 0.99940036,0.99940036 0 0 1 1.41716,0.0021 l 8.23005,8.292722 a 0.77329837,0.77329837 0 0 0 1.32216,-0.549461 l -0.009,-1.47797 a 0.60858887,0.60858887 0 0 1 0.61084,-0.612309 l 3.49146,0.01288 a 0.61645575,0.61645575 0 0 1 0.61417,0.616881 l -0.005,7.132119 a 2.2193072,2.2193072 0 0 0 0.65114,1.57195 l 5.68828,5.68011 a 1.2810241,1.2810241 0 0 1 -0.90867,2.18749 l -6.08724,-0.0166 a 1.4326682,1.4326682 0 0 0 -1.43657,1.42889 l -0.0485,18.39961 a 2.1976117,2.1976117 0 0 0 2.19709,2.2034 l 6.37383,0.001 -0.0134,4.02932 H 90.532652 l -0.01341,-4.02932 6.373831,-0.001 a 2.1976117,2.1976117 0 0 0 2.19709,-2.2034 l -0.0485,-18.39961 a 1.4326682,1.4326682 0 0 0 -1.436571,-1.42889 l -6.087229,0.0166 a 1.2852307,1.2852307 0 0 1 -0.913752,-2.19257 z"
         sodipodi:nodetypes="cccccccccccccccc"
         inkscape:label="Path" /></clipPath><inkscape:path-effect
       effect="powerclip"
       id="path-effect14-0"
       is_visible="true"
       lpeversion="1"
       inverse="true"
       flatten="false"
       hide_clip="false"
       message="Use fill-rule evenodd on &lt;b&gt;fill and stroke&lt;/b&gt; dialog if no flatten result after convert clip to paths." /><clipPath
       clipPathUnits="userSpaceOnUse"
       id="clipath_lpe_path-effect14-6"><path
         id="path14-7"
         style="display:none;fill:#ff5555;fill-opacity:1;stroke-width:0.277336"
         d="M 90.604121,102.66043 111.20174,81.996968 a 0.99940036,0.99940036 0 0 1 1.41716,0.0021 l 8.23005,8.292722 a 0.77329837,0.77329837 0 0 0 1.32216,-0.549461 l -0.009,-1.47797 a 0.60858887,0.60858887 0 0 1 0.61084,-0.612309 l 3.49146,0.01288 a 0.61645575,0.61645575 0 0 1 0.61417,0.616881 l -0.005,7.132119 a 2.2193072,2.2193072 0 0 0 0.65114,1.57195 l 5.68828,5.68011 a 1.2810241,1.2810241 0 0 1 -0.90867,2.18749 l -6.08724,-0.0166 a 1.4326682,1.4326682 0 0 0 -1.43657,1.42889 l -0.0485,18.39961 a 2.1976117,2.1976117 0 0 0 2.19709,2.2034 l 6.37383,0.001 -0.0134,4.02932 H 90.532652 l -0.01341,-4.02932 6.373831,-0.001 a 2.1976117,2.1976117 0 0 0 2.19709,-2.2034 l -0.0485,-18.39961 a 1.4326682,1.4326682 0 0 0 -1.436571,-1.42889 l -6.087229,0.0166 a 1.2852307,1.2852307 0 0 1 -0.913752,-2.19257 z"
         sodipodi:nodetypes="cccccccccccccccc"
         inkscape:label="Path" /><path
         id="lpe_path-effect14-2"
         style="display:inline;fill:#ff5555;fill-opacity:1;stroke-width:0.277336"
         class="powerclip"
         d="M 28.422197,44.879627 H 178.94644 V 131.85167 H 28.422197 Z m 62.181924,57.780803 -1e-5,4.8e-4 a 1.2852307,1.2852307 0 0 0 0.913752,2.19257 l 6.087229,-0.0166 a 1.4326682,1.4326682 0 0 1 1.436571,1.42889 l 0.0485,18.39961 a 2.1976117,2.1976117 0 0 1 -2.19709,2.2034 l -6.373831,0.001 0.01341,4.02932 h 42.756888 l 0.0134,-4.02932 -6.37383,-0.001 a 2.1976117,2.1976117 0 0 1 -2.19709,-2.2034 l 0.0485,-18.39961 a 1.4326682,1.4326682 0 0 1 1.43657,-1.42889 l 6.08724,0.0166 a 1.2810241,1.2810241 0 0 0 0.90867,-2.18749 l -5.68828,-5.68011 a 2.2193072,2.2193072 0 0 1 -0.65114,-1.57195 l 0.005,-7.132119 a 0.61645575,0.61645575 0 0 0 -0.61417,-0.616881 l -3.49146,-0.01288 a 0.60858887,0.60858887 0 0 0 -0.61084,0.612309 l 0.009,1.47797 a 0.77329837,0.77329837 0 0 1 -1.32216,0.549461 l -8.23005,-8.292722 a 0.99940036,0.99940036 0 0 0 -1.41716,-0.0021 z" /></clipPath><inkscape:path-effect
       effect="powerclip"
       id="path-effect14-7"
       is_visible="true"
       lpeversion="1"
       inverse="true"
       flatten="false"
       hide_clip="false"
       message="Use fill-rule evenodd on &lt;b&gt;fill and stroke&lt;/b&gt; dialog if no flatten result after convert clip to paths." /><clipPath
       clipPathUnits="userSpaceOnUse"
       id="clipath_lpe_path-effect14-7"><path
         id="path33"
         style="display:block;fill:#ff5555;fill-opacity:1;stroke-width:0.277336"
         d="M 90.604121,102.66043 111.20174,81.996968 a 0.99940036,0.99940036 0 0 1 1.41716,0.0021 l 8.23005,8.292722 a 0.77329837,0.77329837 0 0 0 1.32216,-0.549461 l -0.009,-1.47797 a 0.60858887,0.60858887 0 0 1 0.61084,-0.612309 l 3.49146,0.01288 a 0.61645575,0.61645575 0 0 1 0.61417,0.616881 l -0.005,7.132119 a 2.2193072,2.2193072 0 0 0 0.65114,1.57195 l 5.68828,5.68011 a 1.2810241,1.2810241 0 0 1 -0.90867,2.18749 l -6.08724,-0.0166 a 1.4326682,1.4326682 0 0 0 -1.43657,1.42889 l -0.0485,18.39961 a 2.1976117,2.1976117 0 0 0 2.19709,2.2034 l 6.37383,0.001 -0.0134,4.02932 H 90.532652 l -0.01341,-4.02932 6.373831,-0.001 a 2.1976117,2.1976117 0 0 0 2.19709,-2.2034 l -0.0485,-18.39961 a 1.4326682,1.4326682 0 0 0 -1.436571,-1.42889 l -6.087229,0.0166 a 1.2852307,1.2852307 0 0 1 -0.913752,-2.19257 z"
         sodipodi:nodetypes="cccccccccccccccc"
         inkscape:label="Path" /></clipPath><clipPath
       clipPathUnits="userSpaceOnUse"
       id="clipath_lpe_path-effect14-2-3"><path
         id="path14-4-2"
         style="display:none;fill:#ff5555;fill-opacity:1;stroke-width:0.277336"
         d="M 90.604121,102.66043 111.20174,81.996968 a 0.99940036,0.99940036 0 0 1 1.41716,0.0021 l 8.23005,8.292722 a 0.77329837,0.77329837 0 0 0 1.32216,-0.549461 l -0.009,-1.47797 a 0.60858887,0.60858887 0 0 1 0.61084,-0.612309 l 3.49146,0.01288 a 0.61645575,0.61645575 0 0 1 0.61417,0.616881 l -0.005,7.132119 a 2.2193072,2.2193072 0 0 0 0.65114,1.57195 l 5.68828,5.68011 a 1.2810241,1.2810241 0 0 1 -0.90867,2.18749 l -6.08724,-0.0166 a 1.4326682,1.4326682 0 0 0 -1.43657,1.42889 l -0.0485,18.39961 a 2.1976117,2.1976117 0 0 0 2.19709,2.2034 l 6.37383,0.001 -0.0134,4.02932 H 90.532652 l -0.01341,-4.02932 6.373831,-0.001 a 2.1976117,2.1976117 0 0 0 2.19709,-2.2034 l -0.0485,-18.39961 a 1.4326682,1.4326682 0 0 0 -1.436571,-1.42889 l -6.087229,0.0166 a 1.2852307,1.2852307 0 0 1 -0.913752,-2.19257 z"
         sodipodi:nodetypes="cccccccccccccccc"
         inkscape:label="Path" /><path
         id="lpe_path-effect14-0-6"
         style="display:inline;fill:#ff5555;fill-opacity:1;stroke-width:0.277336"
         class="powerclip"
         d="M 28.422197,44.879627 H 178.94644 V 131.85167 H 28.422197 Z m 62.181924,57.780803 -1e-5,4.8e-4 a 1.2852307,1.2852307 0 0 0 0.913752,2.19257 l 6.087229,-0.0166 a 1.4326682,1.4326682 0 0 1 1.436571,1.42889 l 0.0485,18.39961 a 2.1976117,2.1976117 0 0 1 -2.19709,2.2034 l -6.373831,0.001 0.01341,4.02932 h 42.756888 l 0.0134,-4.02932 -6.37383,-0.001 a 2.1976117,2.1976117 0 0 1 -2.19709,-2.2034 l 0.0485,-18.39961 a 1.4326682,1.4326682 0 0 1 1.43657,-1.42889 l 6.08724,0.0166 a 1.2810241,1.2810241 0 0 0 0.90867,-2.18749 l -5.68828,-5.68011 a 2.2193072,2.2193072 0 0 1 -0.65114,-1.57195 l 0.005,-7.132119 a 0.61645575,0.61645575 0 0 0 -0.61417,-0.616881 l -3.49146,-0.01288 a 0.60858887,0.60858887 0 0 0 -0.61084,0.612309 l 0.009,1.47797 a 0.77329837,0.77329837 0 0 1 -1.32216,0.549461 l -8.23005,-8.292722 a 0.99940036,0.99940036 0 0 0 -1.41716,-0.0021 z" /></clipPath><inkscape:path-effect
       effect="powerclip"
       id="path-effect14-0-0"
       is_visible="true"
       lpeversion="1"
       inverse="true"
       flatten="false"
       hide_clip="false"
       message="Use fill-rule evenodd on &lt;b&gt;fill and stroke&lt;/b&gt; dialog if no flatten result after convert clip to paths." /><clipPath
       clipPathUnits="userSpaceOnUse"
       id="clipath_lpe_path-effect14-0-0"><path
         id="path44"
         style="display:block;fill:#ff5555;fill-opacity:1;stroke-width:0.277336"
         d="M 90.604121,102.66043 111.20174,81.996968 a 0.99940036,0.99940036 0 0 1 1.41716,0.0021 l 8.23005,8.292722 a 0.77329837,0.77329837 0 0 0 1.32216,-0.549461 l -0.009,-1.47797 a 0.60858887,0.60858887 0 0 1 0.61084,-0.612309 l 3.49146,0.01288 a 0.61645575,0.61645575 0 0 1 0.61417,0.616881 l -0.005,7.132119 a 2.2193072,2.2193072 0 0 0 0.65114,1.57195 l 5.68828,5.68011 a 1.2810241,1.2810241 0 0 1 -0.90867,2.18749 l -6.08724,-0.0166 a 1.4326682,1.4326682 0 0 0 -1.43657,1.42889 l -0.0485,18.39961 a 2.1976117,2.1976117 0 0 0 2.19709,2.2034 l 6.37383,0.001 -0.0134,4.02932 H 90.532652 l -0.01341,-4.02932 6.373831,-0.001 a 2.1976117,2.1976117 0 0 0 2.19709,-2.2034 l -0.0485,-18.39961 a 1.4326682,1.4326682 0 0 0 -1.436571,-1.42889 l -6.087229,0.0166 a 1.2852307,1.2852307 0 0 1 -0.913752,-2.19257 z"
         sodipodi:nodetypes="cccccccccccccccc"
         inkscape:label="Path" /></clipPath></defs><g
     inkscape:groupmode="layer"
     id="layer6"
     inkscape:label="Cloud"
     transform="translate(-25.937754,-139.49743)"
     style="display:inline"><path
       id="path13"
       style="display:inline;fill:url(#linearGradient477);fill-opacity:1;stroke-width:0.2497"
       d="M 111.40658,49.879627 A 38.232735,38.232735 0 0 0 73.946338,80.910291 25.446291,25.446291 0 0 0 58.868189,75.959172 25.446291,25.446291 0 0 0 33.422197,101.40516 25.446291,25.446291 0 0 0 58.868189,126.85167 h 93.820631 a 21.257351,21.257351 0 0 0 21.25762,-21.2571 21.257351,21.257351 0 0 0 -21.25762,-21.257614 21.257351,21.257351 0 0 0 -3.21634,0.257865 38.232735,38.232735 0 0 0 -38.0659,-34.715194 z"
       transform="translate(14.8576,136.32753)"
       clip-path="url(#clipath_lpe_path-effect14)"
       inkscape:label="Main"
       inkscape:original-d="M 111.40658,49.879627 A 38.232735,38.232735 0 0 0 73.946338,80.910291 25.446291,25.446291 0 0 0 58.868189,75.959172 25.446291,25.446291 0 0 0 33.422197,101.40516 25.446291,25.446291 0 0 0 58.868189,126.85167 h 93.820631 a 21.257351,21.257351 0 0 0 21.25762,-21.2571 21.257351,21.257351 0 0 0 -21.25762,-21.257614 21.257351,21.257351 0 0 0 -3.21634,0.257865 38.232735,38.232735 0 0 0 -38.0659,-34.715194 z"
       inkscape:path-effect="#path-effect14"
       inkscape:export-filename="logo-white-bg.png"
       inkscape:export-xdpi="250"
       inkscape:export-ydpi="250" /></g><g
     inkscape:groupmode="layer"
     id="layer7"
     inkscape:label="Shading"
     style="display:inline"
     transform="translate(-32.339254,-88.498808)"><circle
       style="display:inline;fill:url(#radialGradient465);stroke-width:0.244775"
       id="path6-6-4-6"
       inkscape:label="RightShadow"
       r="21.257351"
       cy="190.92354"
       cx="173.94844" /><circle
       style="display:inline;fill:url(#radialGradient464);fill-opacity:1;stroke-width:0.254456"
       id="path4-1-0-0"
       inkscape:label="LeftShadow"
       r="25.446291"
       cy="186.73447"
       cx="80.127396" /><path
       id="path3-1-6-0"
       transform="translate(21.2591,85.328986)"
       clip-path="url(#clipPath412)"
       d="M 149.63947,88.112732 A 38.232735,38.232735 0 0 1 111.40674,126.34547 38.232735,38.232735 0 0 1 73.174004,88.112732 38.232735,38.232735 0 0 1 111.40674,49.879997 38.232735,38.232735 0 0 1 149.63947,88.112732 Z"
       style="display:inline;fill:url(#radialGradient463);stroke-width:0.2497"
       inkscape:label="LeftCenterShadow" /><path
       id="path3-1-5-1-3"
       transform="translate(21.2591,85.328986)"
       clip-path="url(#clipPath460)"
       d="M 149.63947,88.112732 A 38.232735,38.232735 0 0 1 111.40674,126.34547 38.232735,38.232735 0 0 1 73.174004,88.112732 38.232735,38.232735 0 0 1 111.40674,49.879997 38.232735,38.232735 0 0 1 149.63947,88.112732 Z"
       style="display:inline;fill:url(#radialGradient462);stroke-width:0.2497"
       inkscape:original-d="M 149.63947,88.112732 A 38.232735,38.232735 0 0 1 111.40674,126.34547 38.232735,38.232735 0 0 1 73.174004,88.112732 38.232735,38.232735 0 0 1 111.40674,49.879997 38.232735,38.232735 0 0 1 149.63947,88.112732 Z"
       inkscape:path-effect="#path-effect460"
       inkscape:label="RightCenterShadow" /><path
       id="path465"
       style="display:inline;fill:url(#linearGradient469);fill-opacity:1;stroke-width:0.2497"
       d="M 111.40658,49.879627 A 38.232735,38.232735 0 0 0 73.946338,80.910291 25.446291,25.446291 0 0 0 58.868189,75.959172 25.446291,25.446291 0 0 0 33.422197,101.40516 25.446291,25.446291 0 0 0 58.868189,126.85167 h 93.820631 a 21.257351,21.257351 0 0 0 21.25762,-21.2571 21.257351,21.257351 0 0 0 -21.25762,-21.257614 21.257351,21.257351 0 0 0 -3.21634,0.257865 38.232735,38.232735 0 0 0 -38.0659,-34.715194 z"
       transform="translate(21.2591,85.328986)"
       clip-path="url(#clipath_lpe_path-effect466)"
       inkscape:label="BottomShadow" /></g></svg>
