<?xml version="1.0" encoding="UTF-8" standalone="no"?>
<!-- Created with Inkscape (http://www.inkscape.org/) -->

<svg
   width="208.76648mm"
   height="90.976357mm"
   viewBox="0 0 208.76648 90.976357"
   version="1.1"
   id="svg1"
   xml:space="preserve"
   xmlns="http://www.w3.org/2000/svg"
   xmlns:svg="http://www.w3.org/2000/svg"><defs
     id="defs1"><filter
       id="Rectangle_2176"
       x="0"
       y="0"
       width="380.88501"
       height="380.88501"
       filterUnits="userSpaceOnUse"><feOffset
         dy="20"
         input="SourceAlpha"
         id="feOffset1" /><feGaussianBlur
         stdDeviation="22.5"
         result="blur"
         id="feGaussianBlur1" /><feFlood
         flood-opacity="0.102"
         id="feFlood1" /><feComposite
         operator="in"
         in2="blur"
         id="feComposite1" /><feComposite
         in="SourceGraphic"
         id="feComposite2" /></filter></defs><g
     id="layer1"
     transform="translate(0.01380352,-36.265468)"><g
       id="Group_1170"
       data-name="Group 1170"
       transform="matrix(0.26458333,0,0,0.26458333,-50.193734,-422.35959)"><path
         id="Path_1286"
         data-name="Path 1286"
         d="m 519.54064,1825.5278 c 32.7664,4.9807 57.05705,-1.4807 90.79142,-4.8691 85.07287,-8.5448 166.0646,24.3412 151.93572,53.3098 -14.39322,29.4907 88.80523,29.0418 63.43616,77.361 -36.78475,70.0503 -159.8369,94.0308 -268.31945,86.8869 -74.77367,-4.9227 -84.09304,-12.4286 -137.83802,2.5418 -115.6716,32.2191 -245.31162,-27.7348 -228.39276,-70.398 3.84298,-9.6458 7.31452,-26.1534 76.12242,-69.7385 45.4181,-28.7716 35.82635,-64.0889 102.0796,-79.9367 66.25326,-15.8479 117.31125,-0.1515 150.18491,4.8428 z"
         fill="#e3d0fc"
         style="stroke-width:0.900683" /><path
         id="Path_1305"
         data-name="Path 1305"
         d="m 571.13134,1842.462 c 32.7664,4.9807 57.05705,-1.4806 90.79142,-4.8691 85.07288,-8.5447 166.0646,24.3413 151.93572,53.3099 -14.39322,29.4906 88.80524,29.0418 63.43617,77.361 -36.78477,70.0503 -159.83691,94.0308 -268.31946,86.8868 -74.77366,-4.9227 -84.09304,-12.4287 -137.83802,2.5418 -115.6716,32.219 -245.31162,-27.7347 -228.39276,-70.398 3.84298,-9.6458 7.31452,-26.1534 76.12242,-69.7384 45.41811,-28.7718 35.82635,-64.0889 102.07961,-79.9367 66.25326,-15.8479 117.31125,-0.1516 150.1849,4.8427 z"
         fill="none"
         stroke="#000000"
         stroke-width="1.35103" /><rect
         id="Rectangle_2176-2"
         data-name="Rectangle 2176"
         width="180"
         height="180"
         rx="20"
         transform="matrix(-0.371336,-0.57232671,0.64317282,-0.33043298,733.72025,2077.2337)"
         fill="#9860dd"
         x="0"
         y="0"
         style="filter:url(#Rectangle_2176)" /></g></g></svg>
